SplineFontDB: 3.0
FontName: NotoSans-ExtraCondensedExtraLight
FullName: Noto Sans ExtraCondensed ExtraLight
FamilyName: Noto Sans ExtCond ExtLt
Weight: Extra-Light
Copyright: Copyright 2015 Google Inc. All Rights Reserved.
Version: 2.000;GOOG;noto-source:20170915:90ef993387c0; ttfautohint (v1.7)
ItalicAngle: 0
UnderlinePosition: -125
UnderlineWidth: 50
Ascent: 800
Descent: 200
InvalidEm: 0
sfntRevision: 0x00020000
LayerCount: 2
Layer: 0 1 "Back" 1
Layer: 1 1 "Fore" 0
XUID: [1021 104 26715473 5260738]
StyleMap: 0x0040
FSType: 0
OS2Version: 4
OS2_WeightWidthSlopeOnly: 1
OS2_UseTypoMetrics: 0
CreationTime: 1458096639
ModificationTime: 1554830629
PfmFamily: 17
TTFWeight: 200
TTFWidth: 2
LineGap: 0
VLineGap: 0
Panose: 2 11 3 6 4 5 4 2 2 4
OS2TypoAscent: 1069
OS2TypoAOffset: 0
OS2TypoDescent: -293
OS2TypoDOffset: 0
OS2TypoLinegap: 0
OS2WinAscent: 1069
OS2WinAOffset: 0
OS2WinDescent: 293
OS2WinDOffset: 0
HheadAscent: 1069
HheadAOffset: 0
HheadDescent: -293
HheadDOffset: 0
OS2SubXSize: 650
OS2SubYSize: 600
OS2SubXOff: 0
OS2SubYOff: 75
OS2SupXSize: 650
OS2SupYSize: 600
OS2SupXOff: 0
OS2SupYOff: 350
OS2StrikeYSize: 50
OS2StrikeYPos: 322
OS2CapHeight: 714
OS2XHeight: 536
OS2Vendor: 'GOOG'
OS2CodePages: 00000000.00000000
OS2UnicodeRanges: e00002ff.4000001f.08000029.00100000
Lookup: 1 0 0 "'aalt' Access All Alternates lookup 0" { "'aalt' Access All Alternates lookup 0 subtable"  } ['aalt' ('DFLT' <'dflt' > 'cyrl' <'dflt' > 'grek' <'dflt' > 'latn' <'CAT ' 'MAH ' 'MOL ' 'NAV ' 'ROM ' 'dflt' > ) ]
Lookup: 3 0 0 "'aalt' Access All Alternates lookup 1" { "'aalt' Access All Alternates lookup 1 subtable"  } ['aalt' ('DFLT' <'dflt' > 'cyrl' <'dflt' > 'grek' <'dflt' > 'latn' <'CAT ' 'MAH ' 'MOL ' 'NAV ' 'ROM ' 'dflt' > ) ]
Lookup: 4 0 0 "'ccmp' Glyph Composition/Decomposition lookup 2" { "'ccmp' Glyph Composition/Decomposition lookup 2 subtable"  } ['ccmp' ('DFLT' <'dflt' > 'cyrl' <'dflt' > 'grek' <'dflt' > 'latn' <'CAT ' 'MAH ' 'MOL ' 'NAV ' 'ROM ' 'dflt' > ) ]

StartChar: .notdef
Encoding: 65536 -1 0
Width: 516
Flags: W
LayerCount: 2
Fore
SplineSet
68 0 m 1,0,-1
 68 714 l 1,1,-1
 417.200195312 714 l 1,2,-1
 417.200195312 0 l 1,3,-1
 68 0 l 1,0,-1
119 51 m 1,4,-1
 366.200195312 51 l 1,5,-1
 366.200195312 663 l 1,6,-1
 119 663 l 1,7,-1
 119 51 l 1,4,-1
EndSplineSet
EndChar

StartChar: exclam
Encoding: 33 33 4
Width: 188
Flags: W
LayerCount: 2
Fore
SplineSet
103 176 m 1,0,-1
 71 176 l 1,1,-1
 65 714 l 1,2,-1
 111 714 l 1,3,-1
 103 176 l 1,0,-1
56 35 m 0,4,5
 56 53 56 53 63 64.5 c 128,-1,6
 70 76 70 76 87 76 c 0,7,8
 119 76 119 76 119 35 c 0,9,10
 119 -7 119 -7 87 -7 c 0,11,12
 70 -7 70 -7 63 4.5 c 128,-1,13
 56 16 56 16 56 35 c 0,4,5
EndSplineSet
Substitution2: "'smcp' Lowercase to Small Capitals lookup 34 subtable" exclam.sc
Substitution2: "'c2sc' Capitals to Small Capitals lookup 33 subtable" exclam.sc
EndChar

StartChar: quotedbl
Encoding: 34 34 5
Width: 297
Flags: W
LayerCount: 2
Fore
SplineSet
95.2001953125 714 m 1,0,-1
 88.2001953125 456 l 1,1,-1
 58.2001953125 456 l 1,2,-1
 51.2001953125 714 l 1,3,-1
 95.2001953125 714 l 1,0,-1
234.200195312 714 m 1,4,-1
 227.200195312 456 l 1,5,-1
 197.200195312 456 l 1,6,-1
 189.200195312 714 l 1,7,-1
 234.200195312 714 l 1,4,-1
EndSplineSet
EndChar

StartChar: numbersign
Encoding: 35 35 6
Width: 402
Flags: W
LayerCount: 2
Fore
SplineSet
293.599609375 473 m 1,0,-1
 270.599609375 264 l 1,1,-1
 358.599609375 264 l 1,2,-1
 358.599609375 231 l 1,3,-1
 267.599609375 231 l 1,4,-1
 239.599609375 0 l 1,5,-1
 206.599609375 0 l 1,6,-1
 234.599609375 231 l 1,7,-1
 129 231 l 1,8,-1
 107.400390625 0 l 1,9,-1
 75.400390625 0 l 1,10,-1
 102.400390625 231 l 1,11,-1
 14.400390625 231 l 1,12,-1
 14.400390625 264 l 1,13,-1
 105.400390625 264 l 1,14,-1
 125 473 l 1,15,-1
 37.400390625 473 l 1,16,-1
 37.400390625 505 l 1,17,-1
 128.200195312 505 l 1,18,-1
 147.400390625 714 l 1,19,-1
 173 714 l 1,20,-1
 154.599609375 505 l 1,21,-1
 264.599609375 505 l 1,22,-1
 288.599609375 714 l 1,23,-1
 319.599609375 714 l 1,24,-1
 296.599609375 505 l 1,25,-1
 384.599609375 505 l 1,26,-1
 384.599609375 473 l 1,27,-1
 293.599609375 473 l 1,0,-1
132.200195312 264 m 1,28,-1
 238.599609375 264 l 1,29,-1
 261.599609375 473 l 1,30,-1
 151.400390625 473 l 1,31,-1
 132.200195312 264 l 1,28,-1
EndSplineSet
EndChar

StartChar: dollar
Encoding: 36 36 7
Width: 369
Flags: W
LayerCount: 2
Fore
SplineSet
173.400390625 -58 m 1,0,-1
 173.400390625 27 l 1,1,2
 132.400390625 28 132.400390625 28 92.900390625 38 c 128,-1,3
 53.400390625 48 53.400390625 48 28.400390625 60 c 1,4,-1
 28.400390625 99 l 1,5,6
 55.400390625 85 55.400390625 85 95.900390625 73.5 c 128,-1,7
 136.400390625 62 136.400390625 62 173.400390625 62 c 1,8,-1
 173.400390625 350 l 1,9,10
 103.400390625 383 103.400390625 383 64.900390625 423 c 128,-1,11
 26.400390625 463 26.400390625 463 26.400390625 533 c 0,12,13
 26.400390625 605 26.400390625 605 67.900390625 650 c 128,-1,14
 109.400390625 695 109.400390625 695 173.400390625 700 c 1,15,-1
 173.400390625 760 l 1,16,-1
 202.400390625 760 l 1,17,-1
 202.400390625 701 l 1,18,19
 260.799804688 700 260.799804688 700 309.599609375 666 c 1,20,-1
 296.799804688 633 l 1,21,22
 275.200195312 648 275.200195312 648 252 656.5 c 128,-1,23
 228.799804688 665 228.799804688 665 202.400390625 666 c 1,24,-1
 202.400390625 375 l 1,25,26
 267.200195312 338 267.200195312 338 301.900390625 298.5 c 128,-1,27
 336.599609375 259 336.599609375 259 336.599609375 195 c 0,28,29
 336.599609375 127 336.599609375 127 300.700195312 82 c 128,-1,30
 264.799804688 37 264.799804688 37 202.400390625 29 c 1,31,-1
 202.400390625 -58 l 1,32,-1
 173.400390625 -58 l 1,0,-1
173.400390625 389 m 1,33,-1
 173.400390625 665 l 1,34,35
 125.400390625 660 125.400390625 660 93.900390625 625.5 c 128,-1,36
 62.400390625 591 62.400390625 591 62.400390625 532 c 0,37,38
 62.400390625 476 62.400390625 476 91.400390625 446 c 128,-1,39
 120.400390625 416 120.400390625 416 173.400390625 389 c 1,33,-1
202.400390625 63 m 1,40,41
 246.400390625 68 246.400390625 68 274 101.5 c 128,-1,42
 301.599609375 135 301.599609375 135 301.599609375 193 c 0,43,44
 301.599609375 244 301.599609375 244 278 275 c 128,-1,45
 254.400390625 306 254.400390625 306 202.400390625 337 c 1,46,-1
 202.400390625 63 l 1,40,41
EndSplineSet
EndChar

StartChar: percent
Encoding: 37 37 8
Width: 541
Flags: W
LayerCount: 2
Fore
SplineSet
121.799804688 724 m 0,0,1
 210.200195312 724 210.200195312 724 210.200195312 501 c 0,2,3
 210.200195312 392 210.200195312 392 186 334 c 128,-1,4
 161.799804688 276 161.799804688 276 122.599609375 276 c 0,5,6
 82.599609375 276 82.599609375 276 59.2998046875 334 c 128,-1,7
 36 392 36 392 36 502 c 0,8,9
 36 609 36 609 58.5 666.5 c 128,-1,10
 81 724 81 724 121.799804688 724 c 0,0,1
406.958007812 714 m 1,11,-1
 185 0 l 1,12,-1
 151 0 l 1,13,-1
 384.596679688 714 l 1,14,-1
 406.958007812 714 l 1,11,-1
122.599609375 695 m 256,15,16
 69 695 69 695 69 501 c 0,17,18
 69 308 69 308 122.599609375 308 c 256,19,20
 176.200195312 308 176.200195312 308 176.200195312 501 c 0,21,22
 176.200195312 695 176.200195312 695 122.599609375 695 c 256,15,16
417.799804688 439 m 0,23,24
 450.325195312 439 450.325195312 439 473.762695312 383.5 c 128,-1,25
 497.200195312 328 497.200195312 328 497.200195312 216 c 0,26,27
 480.799804688 100 480.799804688 100 456.200195312 45.5 c 128,-1,28
 431.599609375 -9 431.599609375 -9 394 -9 c 0,29,30
 357.200195312 -9 357.200195312 -9 331.900390625 44.5 c 128,-1,31
 306.599609375 98 306.599609375 98 339.400390625 217 c 0,32,33
 339.400390625 439 339.400390625 439 417.799804688 439 c 0,23,24
417.799804688 410 m 256,34,35
 372.400390625 410 372.400390625 410 372.400390625 215 c 0,36,37
 339.599609375 120 339.599609375 120 352.799804688 71 c 128,-1,38
 366 22 366 22 394 22 c 256,39,40
 422 22 422 22 434.400390625 73 c 128,-1,41
 446.799804688 124 446.799804688 124 463.200195312 215 c 0,42,43
 463.200195312 410 463.200195312 410 417.799804688 410 c 256,34,35
EndSplineSet
EndChar

StartChar: ampersand
Encoding: 38 38 9
Width: 348
Flags: W
LayerCount: 2
Fore
SplineSet
153.799804688 724 m 0,0,1
 188.200195312 724 188.200195312 724 209.400390625 688.5 c 128,-1,2
 230.599609375 653 230.599609375 653 230.599609375 580 c 0,3,4
 230.599609375 512 230.599609375 512 211.799804688 462.5 c 128,-1,5
 193 413 193 413 157.799804688 379 c 1,6,-1
 258.599609375 154 l 1,7,8
 269.799804688 183 269.799804688 183 278.299804688 227 c 128,-1,9
 286.799804688 271 286.799804688 271 285.799804688 312 c 1,10,-1
 320.799804688 312 l 1,11,12
 320.799804688 266 320.799804688 266 307.299804688 212 c 128,-1,13
 293.799804688 158 293.799804688 158 276.200195312 120 c 1,14,-1
 342.799804688 0 l 1,15,-1
 301.799804688 0 l 1,16,-1
 259.400390625 90 l 1,17,18
 239.400390625 48 239.400390625 48 210.599609375 19 c 128,-1,19
 181.799804688 -10 181.799804688 -10 141.799804688 -10 c 0,20,21
 90.599609375 -10 90.599609375 -10 57.7001953125 41 c 128,-1,22
 24.7998046875 92 24.7998046875 92 24.7998046875 175 c 0,23,24
 24.7998046875 241 24.7998046875 241 49.7001953125 292.5 c 128,-1,25
 74.599609375 344 74.599609375 344 122.599609375 389 c 1,26,27
 101 441 101 441 88.599609375 486.5 c 128,-1,28
 76.2001953125 532 76.2001953125 532 76.2001953125 585 c 0,29,30
 76.2001953125 651 76.2001953125 651 97 687.5 c 128,-1,31
 117.799804688 724 117.799804688 724 153.799804688 724 c 0,0,1
153 691 m 0,32,33
 129 691 129 691 116.200195312 662.5 c 128,-1,34
 103.400390625 634 103.400390625 634 103.400390625 585 c 256,35,36
 103.400390625 536 103.400390625 536 115.799804688 491 c 128,-1,37
 128.200195312 446 128.200195312 446 145 408 c 1,38,39
 177.799804688 438 177.799804688 438 190.599609375 483.5 c 128,-1,40
 203.400390625 529 203.400390625 529 203.400390625 580 c 0,41,42
 203.400390625 632 203.400390625 632 191 661.5 c 128,-1,43
 178.599609375 691 178.599609375 691 153 691 c 0,32,33
135.400390625 360 m 1,44,45
 93.7998046875 320 93.7998046875 320 77.7998046875 275 c 128,-1,46
 61.7998046875 230 61.7998046875 230 61.7998046875 175 c 0,47,48
 61.7998046875 105 61.7998046875 105 83.400390625 65 c 128,-1,49
 105 25 105 25 143.400390625 25 c 0,50,51
 175.400390625 25 175.400390625 25 200.200195312 51.5 c 128,-1,52
 225 78 225 78 243.400390625 122 c 1,53,-1
 135.400390625 360 l 1,44,45
EndSplineSet
Substitution2: "'smcp' Lowercase to Small Capitals lookup 34 subtable" ampersand.sc
Substitution2: "'c2sc' Capitals to Small Capitals lookup 33 subtable" ampersand.sc
EndChar

StartChar: quotesingle
Encoding: 39 39 10
Width: 158
Flags: W
LayerCount: 2
Fore
SplineSet
95.2001953125 714 m 1,0,-1
 89.2001953125 456 l 1,1,-1
 59.2001953125 456 l 1,2,-1
 51.2001953125 714 l 1,3,-1
 95.2001953125 714 l 1,0,-1
EndSplineSet
EndChar

StartChar: parenleft
Encoding: 40 40 11
Width: 261
Flags: W
LayerCount: 2
Fore
SplineSet
40.7998046875 278 m 0,0,1
 40.7998046875 402 40.7998046875 402 77.2998046875 515.5 c 128,-1,2
 113.799804688 629 113.799804688 629 183.799804688 715 c 1,3,-1
 220.799804688 715 l 1,4,5
 153.799804688 627 153.799804688 627 116.299804688 515.5 c 128,-1,6
 78.7998046875 404 78.7998046875 404 78.7998046875 278 c 0,7,8
 78.7998046875 148 78.7998046875 148 118.799804688 36 c 128,-1,9
 158.799804688 -76 158.799804688 -76 220.799804688 -158 c 1,10,-1
 182.799804688 -158 l 1,11,12
 117.799804688 -79 117.799804688 -79 79.2998046875 32 c 128,-1,13
 40.7998046875 143 40.7998046875 143 40.7998046875 278 c 0,0,1
EndSplineSet
Substitution2: "'smcp' Lowercase to Small Capitals lookup 34 subtable" parenleft.sc
Substitution2: "'c2sc' Capitals to Small Capitals lookup 33 subtable" parenleft.sc
Substitution2: "'sups' Superscript lookup 19 subtable" uni207D
Substitution2: "'subs' Subscript lookup 18 subtable" uni208D
EndChar

StartChar: parenright
Encoding: 41 41 12
Width: 258
Flags: W
LayerCount: 2
Fore
SplineSet
210.400390625 282 m 0,0,1
 210.400390625 200 210.400390625 200 193.400390625 118.5 c 128,-1,2
 176.400390625 37 176.400390625 37 144.400390625 -34.5 c 128,-1,3
 112.400390625 -106 112.400390625 -106 67.400390625 -158 c 1,4,-1
 30.400390625 -158 l 1,5,6
 73.400390625 -104 73.400390625 -104 105.400390625 -32.5 c 128,-1,7
 137.400390625 39 137.400390625 39 154.900390625 120 c 128,-1,8
 172.400390625 201 172.400390625 201 172.400390625 281 c 0,9,10
 172.400390625 406 172.400390625 406 132.400390625 518.5 c 128,-1,11
 92.400390625 631 92.400390625 631 30.400390625 715 c 1,12,-1
 67.400390625 715 l 1,13,14
 134.400390625 632 134.400390625 632 172.400390625 519 c 128,-1,15
 210.400390625 406 210.400390625 406 210.400390625 282 c 0,0,1
EndSplineSet
Substitution2: "'smcp' Lowercase to Small Capitals lookup 34 subtable" parenright.sc
Substitution2: "'c2sc' Capitals to Small Capitals lookup 33 subtable" parenright.sc
Substitution2: "'sups' Superscript lookup 19 subtable" uni207E
Substitution2: "'subs' Subscript lookup 18 subtable" uni208E
EndChar

StartChar: asterisk
Encoding: 42 42 13
Width: 342
Flags: W
LayerCount: 2
Fore
SplineSet
185.400390625 760 m 1,0,-1
 179.400390625 633 l 1,1,-1
 290.400390625 676 l 1,2,-1
 298.400390625 646 l 1,3,-1
 187.400390625 610 l 1,4,-1
 269.400390625 507 l 1,5,-1
 243.400390625 489 l 1,6,-1
 168.400390625 596 l 1,7,-1
 90.400390625 489 l 1,8,-1
 64.400390625 506 l 1,9,-1
 148.400390625 610 l 1,10,-1
 34.400390625 645 l 1,11,-1
 43.400390625 675 l 1,12,-1
 156.400390625 633 l 1,13,-1
 151.400390625 760 l 1,14,-1
 185.400390625 760 l 1,0,-1
EndSplineSet
EndChar

StartChar: plus
Encoding: 43 43 14
Width: 384
Flags: W
LayerCount: 2
Fore
SplineSet
206.799804688 368 m 1,0,-1
 354.799804688 368 l 1,1,-1
 354.799804688 335 l 1,2,-1
 206.799804688 335 l 1,3,-1
 206.799804688 122 l 1,4,-1
 172.799804688 122 l 1,5,-1
 172.799804688 335 l 1,6,-1
 23.2001953125 335 l 1,7,-1
 23.2001953125 368 l 1,8,-1
 172.799804688 368 l 1,9,-1
 172.799804688 584 l 1,10,-1
 206.799804688 584 l 1,11,-1
 206.799804688 368 l 1,0,-1
EndSplineSet
Substitution2: "'sups' Superscript lookup 19 subtable" uni207A
Substitution2: "'subs' Subscript lookup 18 subtable" uni208A
EndChar

StartChar: comma
Encoding: 44 44 15
Width: 175
Flags: W
LayerCount: 2
Fore
SplineSet
118.400390625 104 m 1,0,-1
 123.400390625 91 l 1,1,2
 113.400390625 42 113.400390625 42 97.900390625 -17 c 128,-1,3
 82.400390625 -76 82.400390625 -76 60.400390625 -130 c 1,4,-1
 30.400390625 -130 l 1,5,6
 50.400390625 -63 50.400390625 -63 62.400390625 -6.5 c 128,-1,7
 74.400390625 50 74.400390625 50 79.400390625 104 c 1,8,-1
 118.400390625 104 l 1,0,-1
EndSplineSet
EndChar

StartChar: hyphen
Encoding: 45 45 16
Width: 259
Flags: W
LayerCount: 2
Fore
SplineSet
20.7998046875 253 m 1,0,-1
 20.7998046875 291 l 1,1,-1
 233.799804688 291 l 1,2,-1
 233.799804688 253 l 1,3,-1
 20.7998046875 253 l 1,0,-1
EndSplineSet
EndChar

StartChar: period
Encoding: 46 46 17
Width: 176
Flags: W
LayerCount: 2
Fore
SplineSet
51.2001953125 35 m 0,0,1
 51.2001953125 53 51.2001953125 53 58.2001953125 64.5 c 128,-1,2
 65.2001953125 76 65.2001953125 76 82.2001953125 76 c 0,3,4
 113.200195312 76 113.200195312 76 113.200195312 35 c 0,5,6
 113.200195312 -7 113.200195312 -7 82.2001953125 -7 c 0,7,8
 65.2001953125 -7 65.2001953125 -7 58.2001953125 4.5 c 128,-1,9
 51.2001953125 16 51.2001953125 16 51.2001953125 35 c 0,0,1
EndSplineSet
EndChar

StartChar: slash
Encoding: 47 47 18
Width: 333
Flags: W
LayerCount: 2
Fore
SplineSet
315.200195312 715 m 1,0,-1
 57.2001953125 -1 l 1,1,-1
 19.2001953125 -1 l 1,2,-1
 279.200195312 715 l 1,3,-1
 315.200195312 715 l 1,0,-1
EndSplineSet
Substitution2: "'frac' Diagonal Fractions lookup 22 subtable" fraction
EndChar

StartChar: zero
Encoding: 48 48 19
Width: 345
Flags: W
LayerCount: 2
Fore
SplineSet
299.400390625 358 m 256,0,1
 299.400390625 248 299.400390625 248 285.400390625 166 c 128,-1,2
 271.400390625 84 271.400390625 84 243.599609375 38.5 c 128,-1,3
 215.799804688 -7 215.799804688 -7 171 -7 c 0,4,5
 104.599609375 -7 104.599609375 -7 70.7001953125 87.5 c 128,-1,6
 36.7998046875 182 36.7998046875 182 36.7998046875 355 c 0,7,8
 36.7998046875 467 36.7998046875 467 52.7998046875 550 c 128,-1,9
 68.7998046875 633 68.7998046875 633 97.5 678.5 c 128,-1,10
 126.200195312 724 126.200195312 724 171 724 c 256,11,12
 215.799804688 724 215.799804688 724 243.099609375 678 c 128,-1,13
 270.400390625 632 270.400390625 632 284.900390625 550 c 128,-1,14
 299.400390625 468 299.400390625 468 299.400390625 358 c 256,0,1
75.7998046875 358 m 256,15,16
 75.7998046875 258 75.7998046875 258 85.400390625 184 c 128,-1,17
 95 110 95 110 116.200195312 69.5 c 128,-1,18
 137.400390625 29 137.400390625 29 171 29 c 256,19,20
 204.599609375 29 204.599609375 29 224.599609375 70 c 128,-1,21
 244.599609375 111 244.599609375 111 253 184.5 c 128,-1,22
 261.400390625 258 261.400390625 258 261.400390625 357 c 0,23,24
 261.400390625 455 261.400390625 455 253 530 c 128,-1,25
 244.599609375 605 244.599609375 605 224.599609375 647 c 128,-1,26
 204.599609375 689 204.599609375 689 171 689 c 0,27,28
 136.599609375 689 136.599609375 689 115.799804688 648 c 128,-1,29
 95 607 95 607 85.400390625 532.5 c 128,-1,30
 75.7998046875 458 75.7998046875 458 75.7998046875 358 c 256,15,16
EndSplineSet
Substitution2: "'zero' Slashed Zero lookup 37 subtable" zero.slash
Substitution2: "'case' Case-Sensitive Forms lookup 35 subtable" zero.lf
Substitution2: "'onum' Oldstyle Figures lookup 32 subtable" zero.tosf
Substitution2: "'pnum' Proportional Numbers lookup 30 subtable" zero.lf
Substitution2: "'frac' Diagonal Fractions lookup 23 subtable" zero.numr
Substitution2: "'dnom' Denominators lookup 21 subtable" zero.dnom
Substitution2: "'numr' Numerators lookup 20 subtable" zero.numr
Substitution2: "'sups' Superscript lookup 19 subtable" uni2070
Substitution2: "'subs' Subscript lookup 18 subtable" uni2080
EndChar

StartChar: one
Encoding: 49 49 20
Width: 337
Flags: W
LayerCount: 2
Fore
SplineSet
136 714 m 1,0,-1
 174 714 l 1,1,-1
 174 0 l 1,2,-1
 136 0 l 1,3,-1
 136 607 l 2,4,5
 136 660 136 660 137 712 c 1025,6,7
EndSplineSet
Substitution2: "'case' Case-Sensitive Forms lookup 35 subtable" one.lf
Substitution2: "'onum' Oldstyle Figures lookup 32 subtable" one.tosf
Substitution2: "'pnum' Proportional Numbers lookup 30 subtable" one.lf
Substitution2: "'frac' Diagonal Fractions lookup 23 subtable" one.numr
Substitution2: "'dnom' Denominators lookup 21 subtable" one.dnom
Substitution2: "'numr' Numerators lookup 20 subtable" one.numr
Substitution2: "'sups' Superscript lookup 19 subtable" uni00B9
Substitution2: "'subs' Subscript lookup 18 subtable" uni2081
EndChar

StartChar: two
Encoding: 50 50 21
Width: 391
Flags: W
LayerCount: 2
Fore
SplineSet
346.200195312 0 m 1,0,-1
 31.2001953125 0 l 1,1,-1
 31.2001953125 28 l 1,2,-1
 176.200195312 241 l 2,3,4
 230.200195312 320 230.200195312 320 260.700195312 389 c 128,-1,5
 291.200195312 458 291.200195312 458 291.200195312 539 c 0,6,7
 291.200195312 617 291.200195312 617 259.700195312 653 c 128,-1,8
 228.200195312 689 228.200195312 689 176.200195312 689 c 0,9,10
 144.200195312 689 144.200195312 689 115.700195312 677.5 c 128,-1,11
 87.2001953125 666 87.2001953125 666 64.2001953125 648 c 1,12,-1
 44.2001953125 676 l 1,13,14
 70.2001953125 698 70.2001953125 698 104.200195312 711 c 128,-1,15
 138.200195312 724 138.200195312 724 178.200195312 724 c 0,16,17
 248.200195312 724 248.200195312 724 289.200195312 676.5 c 128,-1,18
 330.200195312 629 330.200195312 629 330.200195312 540 c 0,19,20
 330.200195312 449 330.200195312 449 295.700195312 375.5 c 128,-1,21
 261.200195312 302 261.200195312 302 207.200195312 225 c 2,22,-1
 78.2001953125 38 l 1,23,-1
 78.2001953125 35 l 1,24,-1
 346.200195312 35 l 1,25,-1
 346.200195312 0 l 1,0,-1
EndSplineSet
Substitution2: "'case' Case-Sensitive Forms lookup 35 subtable" two.lf
Substitution2: "'onum' Oldstyle Figures lookup 32 subtable" two.tosf
Substitution2: "'pnum' Proportional Numbers lookup 30 subtable" two.lf
Substitution2: "'frac' Diagonal Fractions lookup 23 subtable" two.numr
Substitution2: "'dnom' Denominators lookup 21 subtable" two.dnom
Substitution2: "'numr' Numerators lookup 20 subtable" two.numr
Substitution2: "'sups' Superscript lookup 19 subtable" uni00B2
Substitution2: "'subs' Subscript lookup 18 subtable" uni2082
EndChar

StartChar: three
Encoding: 51 51 22
Width: 391
Flags: W
LayerCount: 2
Fore
SplineSet
334.599609375 553 m 0,0,1
 334.599609375 480 334.599609375 480 299.599609375 435 c 128,-1,2
 264.599609375 390 264.599609375 390 218.599609375 373 c 1,3,-1
 218.599609375 370 l 1,4,5
 275.599609375 356 275.599609375 356 310.099609375 311 c 128,-1,6
 344.599609375 266 344.599609375 266 344.599609375 186 c 0,7,8
 344.599609375 99 344.599609375 99 299.599609375 44.5 c 128,-1,9
 254.599609375 -10 254.599609375 -10 164.599609375 -10 c 0,10,11
 128.599609375 -10 128.599609375 -10 95.099609375 -2 c 128,-1,12
 61.599609375 6 61.599609375 6 32.599609375 19 c 1,13,-1
 32.599609375 58 l 1,14,15
 58.599609375 44 58.599609375 44 93.099609375 34.5 c 128,-1,16
 127.599609375 25 127.599609375 25 163.599609375 25 c 0,17,18
 232.599609375 25 232.599609375 25 268.599609375 68 c 128,-1,19
 304.599609375 111 304.599609375 111 304.599609375 187 c 0,20,21
 304.599609375 247 304.599609375 247 283.099609375 283.5 c 128,-1,22
 261.599609375 320 261.599609375 320 226.099609375 336.5 c 128,-1,23
 190.599609375 353 190.599609375 353 146.599609375 353 c 2,24,-1
 105.599609375 353 l 1,25,-1
 105.599609375 387 l 1,26,-1
 148.599609375 387 l 2,27,28
 189.599609375 387 189.599609375 387 223.099609375 407 c 128,-1,29
 256.599609375 427 256.599609375 427 276.599609375 464 c 128,-1,30
 296.599609375 501 296.599609375 501 296.599609375 551 c 0,31,32
 296.599609375 617 296.599609375 617 262.099609375 653 c 128,-1,33
 227.599609375 689 227.599609375 689 171.599609375 689 c 0,34,35
 134.599609375 689 134.599609375 689 104.599609375 674.5 c 128,-1,36
 74.599609375 660 74.599609375 660 49.599609375 637 c 1,37,-1
 29.599609375 664 l 1,38,39
 57.599609375 691 57.599609375 691 92.099609375 707.5 c 128,-1,40
 126.599609375 724 126.599609375 724 173.599609375 724 c 0,41,42
 246.599609375 724 246.599609375 724 290.599609375 678 c 128,-1,43
 334.599609375 632 334.599609375 632 334.599609375 553 c 0,0,1
EndSplineSet
Substitution2: "'case' Case-Sensitive Forms lookup 35 subtable" three.lf
Substitution2: "'onum' Oldstyle Figures lookup 32 subtable" three.tosf
Substitution2: "'pnum' Proportional Numbers lookup 30 subtable" three.lf
Substitution2: "'frac' Diagonal Fractions lookup 23 subtable" three.numr
Substitution2: "'dnom' Denominators lookup 21 subtable" three.dnom
Substitution2: "'numr' Numerators lookup 20 subtable" three.numr
Substitution2: "'sups' Superscript lookup 19 subtable" uni00B3
Substitution2: "'subs' Subscript lookup 18 subtable" uni2083
EndChar

StartChar: four
Encoding: 52 52 23
Width: 372
Flags: W
LayerCount: 2
Fore
SplineSet
360.799804688 172 m 1,0,-1
 274.799804688 172 l 1,1,-1
 274.799804688 0 l 1,2,-1
 236.799804688 0 l 1,3,-1
 236.799804688 172 l 1,4,-1
 12 172 l 1,5,-1
 12 205 l 1,6,-1
 234.400390625 718 l 1,7,-1
 274.799804688 718 l 1,8,-1
 274.799804688 206 l 1,9,-1
 360.799804688 206 l 1,10,-1
 360.799804688 172 l 1,0,-1
236.799804688 206 m 1,11,-1
 236.799804688 593 l 2,12,13
 236.799804688 612 236.799804688 612 237.299804688 629 c 128,-1,14
 237.799804688 646 237.799804688 646 238.799804688 664 c 1,15,-1
 236.799804688 664 l 1,16,17
 229.599609375 638 229.599609375 638 220.799804688 613 c 128,-1,18
 212 588 212 588 203.200195312 566 c 2,19,-1
 49 206 l 1,20,-1
 236.799804688 206 l 1,11,-1
EndSplineSet
Substitution2: "'case' Case-Sensitive Forms lookup 35 subtable" four.lf
Substitution2: "'onum' Oldstyle Figures lookup 32 subtable" four.tosf
Substitution2: "'pnum' Proportional Numbers lookup 30 subtable" four.lf
Substitution2: "'frac' Diagonal Fractions lookup 23 subtable" four.numr
Substitution2: "'dnom' Denominators lookup 21 subtable" four.dnom
Substitution2: "'numr' Numerators lookup 20 subtable" four.numr
Substitution2: "'sups' Superscript lookup 19 subtable" uni2074
Substitution2: "'subs' Subscript lookup 18 subtable" uni2084
EndChar

StartChar: five
Encoding: 53 53 24
Width: 392
Flags: W
LayerCount: 2
Fore
SplineSet
178.400390625 428 m 0,0,1
 266.400390625 428 266.400390625 428 306.900390625 371 c 128,-1,2
 347.400390625 314 347.400390625 314 347.400390625 224 c 0,3,4
 347.400390625 158 347.400390625 158 326.900390625 105 c 128,-1,5
 306.400390625 52 306.400390625 52 263.900390625 21.5 c 128,-1,6
 221.400390625 -9 221.400390625 -9 156.400390625 -9 c 0,7,8
 121.400390625 -9 121.400390625 -9 90.400390625 -1.5 c 128,-1,9
 59.400390625 6 59.400390625 6 38.400390625 19 c 1,10,-1
 38.400390625 60 l 1,11,12
 60.400390625 46 60.400390625 46 90.400390625 36 c 128,-1,13
 120.400390625 26 120.400390625 26 154.400390625 26 c 0,14,15
 208.400390625 26 208.400390625 26 242.400390625 52.5 c 128,-1,16
 276.400390625 79 276.400390625 79 292.400390625 123.5 c 128,-1,17
 308.400390625 168 308.400390625 168 308.400390625 223 c 0,18,19
 308.400390625 302 308.400390625 302 276.900390625 348 c 128,-1,20
 245.400390625 394 245.400390625 394 170.400390625 394 c 0,21,22
 141.400390625 394 141.400390625 394 112.900390625 387.5 c 128,-1,23
 84.400390625 381 84.400390625 381 64.400390625 372 c 1,24,-1
 45.400390625 390 l 1,25,-1
 68.400390625 714 l 1,26,-1
 310.400390625 714 l 1,27,-1
 310.400390625 679 l 1,28,-1
 102.400390625 679 l 1,29,-1
 82.400390625 412 l 1,30,31
 99.400390625 418 99.400390625 418 124.900390625 423 c 128,-1,32
 150.400390625 428 150.400390625 428 178.400390625 428 c 0,0,1
EndSplineSet
Substitution2: "'case' Case-Sensitive Forms lookup 35 subtable" five.lf
Substitution2: "'onum' Oldstyle Figures lookup 32 subtable" five.tosf
Substitution2: "'pnum' Proportional Numbers lookup 30 subtable" five.lf
Substitution2: "'frac' Diagonal Fractions lookup 23 subtable" five.numr
Substitution2: "'dnom' Denominators lookup 21 subtable" five.dnom
Substitution2: "'numr' Numerators lookup 20 subtable" five.numr
Substitution2: "'sups' Superscript lookup 19 subtable" uni2075
Substitution2: "'subs' Subscript lookup 18 subtable" uni2085
EndChar

StartChar: six
Encoding: 54 54 25
Width: 346
Flags: W
LayerCount: 2
Fore
SplineSet
38.400390625 306 m 0,0,1
 38.400390625 460 38.400390625 460 63.2001953125 551 c 128,-1,2
 88 642 88 642 125.200195312 681.5 c 128,-1,3
 162.400390625 721 162.400390625 721 211.200195312 721 c 0,4,5
 245.599609375 721 245.599609375 721 270.200195312 708 c 1,6,-1
 270.200195312 673 l 1,7,8
 257.599609375 678 257.599609375 678 242.400390625 682 c 128,-1,9
 227.200195312 686 227.200195312 686 211.200195312 686 c 0,10,11
 146.400390625 686 146.400390625 686 111.900390625 598 c 128,-1,12
 77.400390625 510 77.400390625 510 76.400390625 342 c 1,13,-1
 77.400390625 342 l 1,14,15
 81.599609375 361 81.599609375 361 93.599609375 383.5 c 128,-1,16
 105.599609375 406 105.599609375 406 126.400390625 422.5 c 128,-1,17
 147.200195312 439 147.200195312 439 179.200195312 439 c 0,18,19
 238.400390625 439 238.400390625 439 270.299804688 377.5 c 128,-1,20
 302.200195312 316 302.200195312 316 302.200195312 219 c 0,21,22
 302.200195312 111 302.200195312 111 266.700195312 49 c 128,-1,23
 231.200195312 -13 231.200195312 -13 173.599609375 -13 c 0,24,25
 106.400390625 -13 106.400390625 -13 72.400390625 66.5 c 128,-1,26
 38.400390625 146 38.400390625 146 38.400390625 306 c 0,0,1
172.799804688 22 m 0,27,28
 263.200195312 22 263.200195312 22 263.200195312 220 c 0,29,30
 263.200195312 303 263.200195312 303 243.599609375 353.5 c 128,-1,31
 224 404 224 404 175.200195312 404 c 0,32,33
 128.799804688 404 128.799804688 404 103.599609375 359.5 c 128,-1,34
 78.400390625 315 78.400390625 315 78.400390625 241 c 0,35,36
 78.400390625 212 78.400390625 212 82 175 c 128,-1,37
 85.599609375 138 85.599609375 138 95.599609375 103 c 128,-1,38
 105.599609375 68 105.599609375 68 124 45 c 128,-1,39
 142.400390625 22 142.400390625 22 172.799804688 22 c 0,27,28
EndSplineSet
Substitution2: "'case' Case-Sensitive Forms lookup 35 subtable" six.lf
Substitution2: "'onum' Oldstyle Figures lookup 32 subtable" six.tosf
Substitution2: "'pnum' Proportional Numbers lookup 30 subtable" six.lf
Substitution2: "'frac' Diagonal Fractions lookup 23 subtable" six.numr
Substitution2: "'dnom' Denominators lookup 21 subtable" six.dnom
Substitution2: "'numr' Numerators lookup 20 subtable" six.numr
Substitution2: "'sups' Superscript lookup 19 subtable" uni2076
Substitution2: "'subs' Subscript lookup 18 subtable" uni2086
EndChar

StartChar: seven
Encoding: 55 55 26
Width: 391
Flags: W
LayerCount: 2
Fore
SplineSet
92.7998046875 0 m 1,0,-1
 305.799804688 678 l 1,1,-1
 32.7998046875 678 l 1,2,-1
 32.7998046875 714 l 1,3,-1
 343.799804688 714 l 1,4,-1
 343.799804688 684 l 1,5,-1
 131.799804688 0 l 1,6,-1
 92.7998046875 0 l 1,0,-1
EndSplineSet
Substitution2: "'case' Case-Sensitive Forms lookup 35 subtable" seven.lf
Substitution2: "'onum' Oldstyle Figures lookup 32 subtable" seven.tosf
Substitution2: "'pnum' Proportional Numbers lookup 30 subtable" seven.lf
Substitution2: "'frac' Diagonal Fractions lookup 23 subtable" seven.numr
Substitution2: "'dnom' Denominators lookup 21 subtable" seven.dnom
Substitution2: "'numr' Numerators lookup 20 subtable" seven.numr
Substitution2: "'sups' Superscript lookup 19 subtable" uni2077
Substitution2: "'subs' Subscript lookup 18 subtable" uni2087
EndChar

StartChar: eight
Encoding: 56 56 27
Width: 343
Flags: W
LayerCount: 2
Fore
SplineSet
169.200195312 723 m 256,0,1
 224.400390625 723 224.400390625 723 258.299804688 678.5 c 128,-1,2
 292.200195312 634 292.200195312 634 292.200195312 563 c 256,3,4
 292.200195312 492 292.200195312 492 261.900390625 450.5 c 128,-1,5
 231.599609375 409 231.599609375 409 190 377 c 1,6,7
 236.400390625 340 236.400390625 340 271.799804688 292 c 128,-1,8
 307.200195312 244 307.200195312 244 307.200195312 174 c 0,9,10
 307.200195312 122 307.200195312 122 287.799804688 80.5 c 128,-1,11
 268.400390625 39 268.400390625 39 238.799804688 14.5 c 128,-1,12
 209.200195312 -10 209.200195312 -10 168.400390625 -10 c 0,13,14
 107.599609375 -10 107.599609375 -10 68.2001953125 40.5 c 128,-1,15
 28.7998046875 91 28.7998046875 91 28.7998046875 171 c 0,16,17
 28.7998046875 247 28.7998046875 247 63 295.5 c 128,-1,18
 97.2001953125 344 97.2001953125 344 142.799804688 378 c 1,19,20
 100.400390625 414 100.400390625 414 73.099609375 459 c 128,-1,21
 45.7998046875 504 45.7998046875 504 45.7998046875 565 c 0,22,23
 45.7998046875 633 45.7998046875 633 79.900390625 678 c 128,-1,24
 114 723 114 723 169.200195312 723 c 256,0,1
169.200195312 689 m 0,25,26
 127.599609375 689 127.599609375 689 104 655 c 128,-1,27
 80.400390625 621 80.400390625 621 80.400390625 563 c 0,28,29
 80.400390625 508 80.400390625 508 103.200195312 469 c 128,-1,30
 126 430 126 430 167.599609375 397 c 1,31,32
 207.599609375 428 207.599609375 428 232.400390625 463.5 c 128,-1,33
 257.200195312 499 257.200195312 499 257.200195312 561 c 0,34,35
 257.200195312 621 257.200195312 621 233.599609375 655 c 128,-1,36
 210 689 210 689 169.200195312 689 c 0,25,26
66.7998046875 170 m 0,37,38
 66.7998046875 103 66.7998046875 103 95.2001953125 63.5 c 128,-1,39
 123.599609375 24 123.599609375 24 168.400390625 24 c 0,40,41
 216.400390625 24 216.400390625 24 242.799804688 67 c 128,-1,42
 269.200195312 110 269.200195312 110 269.200195312 172 c 0,43,44
 269.200195312 220 269.200195312 220 248.799804688 264 c 128,-1,45
 228.400390625 308 228.400390625 308 178 349 c 1,46,-1
 165.200195312 359 l 1,47,48
 122.799804688 327 122.799804688 327 94.7998046875 283.5 c 128,-1,49
 66.7998046875 240 66.7998046875 240 66.7998046875 170 c 0,37,38
EndSplineSet
Substitution2: "'case' Case-Sensitive Forms lookup 35 subtable" eight.lf
Substitution2: "'onum' Oldstyle Figures lookup 32 subtable" eight.tosf
Substitution2: "'pnum' Proportional Numbers lookup 30 subtable" eight.lf
Substitution2: "'frac' Diagonal Fractions lookup 23 subtable" eight.numr
Substitution2: "'dnom' Denominators lookup 21 subtable" eight.dnom
Substitution2: "'numr' Numerators lookup 20 subtable" eight.numr
Substitution2: "'sups' Superscript lookup 19 subtable" uni2078
Substitution2: "'subs' Subscript lookup 18 subtable" uni2088
EndChar

StartChar: nine
Encoding: 57 57 28
Width: 344
Flags: W
LayerCount: 2
Fore
SplineSet
295 406 m 0,0,1
 295 252 295 252 270.200195312 160.5 c 128,-1,2
 245.400390625 69 245.400390625 69 208.200195312 29.5 c 128,-1,3
 171 -10 171 -10 122.200195312 -10 c 0,4,5
 107 -10 107 -10 90.599609375 -6.5 c 128,-1,6
 74.2001953125 -3 74.2001953125 -3 62.2001953125 2 c 1,7,-1
 62.2001953125 38 l 1,8,9
 75 33 75 33 90.2001953125 29 c 128,-1,10
 105.400390625 25 105.400390625 25 121.400390625 25 c 0,11,12
 189.400390625 25 189.400390625 25 222.700195312 116 c 128,-1,13
 256 207 256 207 257 369 c 1,14,-1
 256 369 l 1,15,16
 251 350 251 350 239.400390625 327.5 c 128,-1,17
 227.799804688 305 227.799804688 305 207.400390625 288.5 c 128,-1,18
 187 272 187 272 155 272 c 0,19,20
 95 272 95 272 63.099609375 333.5 c 128,-1,21
 31.2001953125 395 31.2001953125 395 31.2001953125 492 c 0,22,23
 31.2001953125 599 31.2001953125 599 66.7001953125 661.5 c 128,-1,24
 102.200195312 724 102.200195312 724 160.599609375 724 c 0,25,26
 226.200195312 724 226.200195312 724 260.599609375 644.5 c 128,-1,27
 295 565 295 565 295 406 c 0,0,1
161.400390625 689 m 0,28,29
 116.599609375 689 116.599609375 689 93.400390625 638 c 128,-1,30
 70.2001953125 587 70.2001953125 587 70.2001953125 491 c 0,31,32
 70.2001953125 407 70.2001953125 407 89.7998046875 357 c 128,-1,33
 109.400390625 307 109.400390625 307 158.200195312 307 c 0,34,35
 204.599609375 307 204.599609375 307 229.799804688 352 c 128,-1,36
 255 397 255 397 255 472 c 0,37,38
 255 500 255 500 251.400390625 537 c 128,-1,39
 247.799804688 574 247.799804688 574 238.200195312 609 c 128,-1,40
 228.599609375 644 228.599609375 644 210.200195312 666.5 c 128,-1,41
 191.799804688 689 191.799804688 689 161.400390625 689 c 0,28,29
EndSplineSet
Substitution2: "'case' Case-Sensitive Forms lookup 35 subtable" nine.lf
Substitution2: "'onum' Oldstyle Figures lookup 32 subtable" nine.tosf
Substitution2: "'pnum' Proportional Numbers lookup 30 subtable" nine.lf
Substitution2: "'frac' Diagonal Fractions lookup 23 subtable" nine.numr
Substitution2: "'dnom' Denominators lookup 21 subtable" nine.dnom
Substitution2: "'numr' Numerators lookup 20 subtable" nine.numr
Substitution2: "'sups' Superscript lookup 19 subtable" uni2079
Substitution2: "'subs' Subscript lookup 18 subtable" uni2089
EndChar

StartChar: colon
Encoding: 58 58 29
Width: 177
Flags: W
LayerCount: 2
Fore
SplineSet
51.2001953125 492 m 0,0,1
 51.2001953125 510 51.2001953125 510 58.2001953125 522 c 128,-1,2
 65.2001953125 534 65.2001953125 534 83.2001953125 534 c 0,3,4
 114.200195312 534 114.200195312 534 114.200195312 493 c 0,5,6
 114.200195312 451 114.200195312 451 82.2001953125 451 c 0,7,8
 65.2001953125 451 65.2001953125 451 58.2001953125 462 c 128,-1,9
 51.2001953125 473 51.2001953125 473 51.2001953125 492 c 0,0,1
51.2001953125 36 m 256,10,11
 51.2001953125 54 51.2001953125 54 57.7001953125 65.5 c 128,-1,12
 64.2001953125 77 64.2001953125 77 82.2001953125 77 c 256,13,14
 100.200195312 77 100.200195312 77 107.200195312 65.5 c 128,-1,15
 114.200195312 54 114.200195312 54 114.200195312 36 c 0,16,17
 114.200195312 17 114.200195312 17 107.200195312 5.5 c 128,-1,18
 100.200195312 -6 100.200195312 -6 82.2001953125 -6 c 0,19,20
 63.2001953125 -6 63.2001953125 -6 57.2001953125 6 c 128,-1,21
 51.2001953125 18 51.2001953125 18 51.2001953125 36 c 256,10,11
EndSplineSet
EndChar

StartChar: semicolon
Encoding: 59 59 30
Width: 176
Flags: W
LayerCount: 2
Fore
SplineSet
60.400390625 493 m 0,0,1
 60.400390625 510 60.400390625 510 67.400390625 522 c 128,-1,2
 74.400390625 534 74.400390625 534 91.400390625 534 c 0,3,4
 123.400390625 534 123.400390625 534 123.400390625 493 c 0,5,6
 123.400390625 451 123.400390625 451 91.400390625 451 c 0,7,8
 74.400390625 451 74.400390625 451 67.400390625 462.5 c 128,-1,9
 60.400390625 474 60.400390625 474 60.400390625 493 c 0,0,1
119.400390625 104 m 1,10,-1
 124.400390625 91 l 1,11,12
 114.400390625 42 114.400390625 42 98.400390625 -17 c 128,-1,13
 82.400390625 -76 82.400390625 -76 59.400390625 -130 c 1,14,-1
 30.400390625 -130 l 1,15,16
 46.400390625 -76 46.400390625 -76 55.400390625 -38 c 128,-1,17
 64.400390625 0 64.400390625 0 69.900390625 32.5 c 128,-1,18
 75.400390625 65 75.400390625 65 80.400390625 104 c 1,19,-1
 119.400390625 104 l 1,10,-1
EndSplineSet
EndChar

StartChar: less
Encoding: 60 60 31
Width: 377
Flags: W
LayerCount: 2
Fore
SplineSet
348 145 m 1,0,-1
 23.2001953125 350 l 1,1,-1
 23.2001953125 378 l 1,2,-1
 348 562 l 1,3,-1
 348 524 l 1,4,-1
 65.2001953125 364 l 1,5,-1
 348 183 l 1,6,-1
 348 145 l 1,0,-1
EndSplineSet
EndChar

StartChar: equal
Encoding: 61 61 32
Width: 377
Flags: W
LayerCount: 2
Fore
SplineSet
23.2001953125 443 m 1,0,-1
 23.2001953125 477 l 1,1,-1
 348 477 l 1,2,-1
 348 443 l 1,3,-1
 23.2001953125 443 l 1,0,-1
23.2001953125 228 m 1,4,-1
 23.2001953125 262 l 1,5,-1
 348 262 l 1,6,-1
 348 228 l 1,7,-1
 23.2001953125 228 l 1,4,-1
EndSplineSet
Substitution2: "'sups' Superscript lookup 19 subtable" uni207C
Substitution2: "'subs' Subscript lookup 18 subtable" uni208C
EndChar

StartChar: greater
Encoding: 62 62 33
Width: 377
Flags: W
LayerCount: 2
Fore
SplineSet
23.2001953125 183 m 1,0,-1
 307.799804688 363 l 1,1,-1
 23.2001953125 524 l 1,2,-1
 23.2001953125 562 l 1,3,-1
 348.799804688 378 l 1,4,-1
 348.799804688 350 l 1,5,-1
 23.2001953125 145 l 1,6,-1
 23.2001953125 183 l 1,0,-1
EndSplineSet
EndChar

StartChar: question
Encoding: 63 63 34
Width: 269
Flags: W
LayerCount: 2
Fore
SplineSet
84.7998046875 176 m 1,0,-1
 84.7998046875 201 l 2,1,2
 84.7998046875 240 84.7998046875 240 89.2998046875 268.5 c 128,-1,3
 93.7998046875 297 93.7998046875 297 105.299804688 322.5 c 128,-1,4
 116.799804688 348 116.799804688 348 137.799804688 377 c 0,5,6
 159.799804688 409 159.799804688 409 176.299804688 436.5 c 128,-1,7
 192.799804688 464 192.799804688 464 201.799804688 494 c 128,-1,8
 210.799804688 524 210.799804688 524 210.799804688 564 c 0,9,10
 210.799804688 628 210.799804688 628 185.799804688 658.5 c 128,-1,11
 160.799804688 689 160.799804688 689 115.799804688 689 c 0,12,13
 91.7998046875 689 91.7998046875 689 70.2998046875 681.5 c 128,-1,14
 48.7998046875 674 48.7998046875 674 29.7998046875 660 c 1,15,-1
 12.7998046875 690 l 1,16,17
 32.7998046875 705 32.7998046875 705 59.7998046875 714.5 c 128,-1,18
 86.7998046875 724 86.7998046875 724 117.799804688 724 c 0,19,20
 176.799804688 724 176.799804688 724 212.799804688 684.5 c 128,-1,21
 248.799804688 645 248.799804688 645 248.799804688 564 c 0,22,23
 248.799804688 516 248.799804688 516 237.799804688 482.5 c 128,-1,24
 226.799804688 449 226.799804688 449 208.799804688 420.5 c 128,-1,25
 190.799804688 392 190.799804688 392 168.799804688 362 c 0,26,27
 145.799804688 329 145.799804688 329 134.799804688 304 c 128,-1,28
 123.799804688 279 123.799804688 279 120.299804688 254.5 c 128,-1,29
 116.799804688 230 116.799804688 230 116.799804688 198 c 2,30,-1
 116.799804688 176 l 1,31,-1
 84.7998046875 176 l 1,0,-1
69.7998046875 34 m 0,32,33
 69.7998046875 53 69.7998046875 53 76.7998046875 64.5 c 128,-1,34
 83.7998046875 76 83.7998046875 76 101.799804688 76 c 0,35,36
 132.799804688 76 132.799804688 76 132.799804688 36 c 0,37,38
 132.799804688 -7 132.799804688 -7 100.799804688 -7 c 0,39,40
 83.7998046875 -7 83.7998046875 -7 76.7998046875 4.5 c 128,-1,41
 69.7998046875 16 69.7998046875 16 69.7998046875 34 c 0,32,33
EndSplineSet
Substitution2: "'smcp' Lowercase to Small Capitals lookup 34 subtable" question.sc
Substitution2: "'c2sc' Capitals to Small Capitals lookup 33 subtable" question.sc
EndChar

StartChar: at
Encoding: 64 64 35
Width: 529
Flags: W
LayerCount: 2
Fore
SplineSet
479.200195312 345 m 0,0,1
 479.200195312 231 479.200195312 231 462.099609375 171.5 c 128,-1,2
 445 112 445 112 390 112 c 0,3,4
 350 112 350 112 332 140.5 c 128,-1,5
 314 169 314 169 314 216 c 1,6,-1
 311 216 l 1,7,8
 301.799804688 159 301.799804688 159 285 135.5 c 128,-1,9
 268.200195312 112 268.200195312 112 245 112 c 0,10,11
 211.400390625 112 211.400390625 112 188.400390625 156 c 128,-1,12
 165.400390625 200 165.400390625 200 165.400390625 289 c 0,13,14
 165.400390625 400 165.400390625 400 198 457.5 c 128,-1,15
 230.599609375 515 230.599609375 515 278.599609375 515 c 0,16,17
 295.400390625 515 295.400390625 515 314.200195312 510.5 c 128,-1,18
 333 506 333 506 345 501 c 1,19,-1
 337 310 l 2,20,21
 336 295 336 295 335.5 274.5 c 128,-1,22
 335 254 335 254 335 240 c 0,23,24
 334 195 334 195 348 170 c 128,-1,25
 362 145 362 145 389 145 c 0,26,27
 424 145 424 145 434.099609375 192 c 128,-1,28
 444.200195312 239 444.200195312 239 444.200195312 346 c 0,29,30
 444.200195312 452 444.200195312 452 423.799804688 528.5 c 128,-1,31
 403.400390625 605 403.400390625 605 363.700195312 646 c 128,-1,32
 324 687 324 687 269 687 c 0,33,34
 209.799804688 687 209.799804688 687 165.200195312 636 c 128,-1,35
 120.599609375 585 120.599609375 585 99 496 c 128,-1,36
 77.400390625 407 77.400390625 407 77.400390625 292 c 0,37,38
 77.400390625 186 77.400390625 186 96.2001953125 107 c 128,-1,39
 115 28 115 28 155.200195312 -15 c 128,-1,40
 195.400390625 -58 195.400390625 -58 250.599609375 -58 c 0,41,42
 276.200195312 -58 276.200195312 -58 304.599609375 -49 c 128,-1,43
 333 -40 333 -40 353 -26 c 1,44,-1
 353 -61 l 1,45,46
 307.400390625 -90 307.400390625 -90 251.400390625 -90 c 0,47,48
 183.400390625 -90 183.400390625 -90 138 -43 c 128,-1,49
 92.599609375 4 92.599609375 4 67.5 90 c 128,-1,50
 42.400390625 176 42.400390625 176 42.400390625 292 c 0,51,52
 42.400390625 425 42.400390625 425 72.7001953125 520.5 c 128,-1,53
 103 616 103 616 154.400390625 667 c 128,-1,54
 205.799804688 718 205.799804688 718 269.799804688 718 c 0,55,56
 338 718 338 718 382.299804688 671 c 128,-1,57
 426.599609375 624 426.599609375 624 452.900390625 540 c 128,-1,58
 479.200195312 456 479.200195312 456 479.200195312 345 c 0,0,1
199.400390625 289 m 0,59,60
 199.400390625 221 199.400390625 221 212.200195312 183 c 128,-1,61
 225 145 225 145 247.400390625 145 c 0,62,63
 269 145 269 145 284.200195312 187 c 128,-1,64
 299.400390625 229 299.400390625 229 303.400390625 327 c 2,65,-1
 309 478 l 1,66,67
 302.599609375 481 302.599609375 481 294.200195312 483 c 128,-1,68
 285.799804688 485 285.799804688 485 277.799804688 485 c 0,69,70
 244.200195312 485 244.200195312 485 221.799804688 434.5 c 128,-1,71
 199.400390625 384 199.400390625 384 199.400390625 289 c 0,59,60
EndSplineSet
EndChar

StartChar: A
Encoding: 65 65 36
Width: 329
GlyphClass: 2
Flags: W
AnchorPoint: "Anchor-3" 364 714 basechar 0
AnchorPoint: "Anchor-2" 196 714 basechar 0
AnchorPoint: "Anchor-0" 195 0 basechar 0
LayerCount: 2
Fore
SplineSet
290.2 0 m 1,0,-1
 239 269 l 1,1,-1
 91 269 l 1,2,-1
 39 0 l 1,3,-1
 0 0 l 1,4,-1
 144.6 714 l 1,5,-1
 184.6 714 l 1,6,-1
 329.2 0 l 1,7,-1
 290.2 0 l 1,0,-1
232.6 305 m 1,8,-1
 179 596 l 2,9,10
 175 622 175 622 171.4 641.5 c 128,-1,11
 167.8 661 167.8 661 164.6 683 c 1,12,13
 161.4 661 161.4 661 157.8 641.5 c 128,-1,14
 154.2 622 154.2 622 149.4 597 c 2,15,-1
 96.6 305 l 1,16,-1
 232.6 305 l 1,8,-1
EndSplineSet
Substitution2: "'c2sc' Capitals to Small Capitals lookup 33 subtable" a.sc
Substitution2: "Single Substitution lookup 28 subtable" ordfeminine
EndChar

StartChar: B
Encoding: 66 66 37
Width: 383
GlyphClass: 2
Flags: W
AnchorPoint: "Anchor-3" 420 714 basechar 0
AnchorPoint: "Anchor-2" 221 714 basechar 0
AnchorPoint: "Anchor-0" 222 0 basechar 0
LayerCount: 2
Fore
SplineSet
61.599609375 714 m 1,0,-1
 183.599609375 714 l 2,1,2
 324.200195312 714 324.200195312 714 324.200195312 548 c 0,3,4
 324.200195312 479 324.200195312 479 299.099609375 433.5 c 128,-1,5
 274 388 274 388 234.799804688 377 c 1,6,-1
 234.799804688 376 l 1,7,8
 282.799804688 361 282.799804688 361 309.599609375 316 c 128,-1,9
 336.400390625 271 336.400390625 271 336.400390625 199 c 0,10,11
 336.400390625 107 336.400390625 107 296.799804688 53.5 c 128,-1,12
 257.200195312 0 257.200195312 0 191.599609375 0 c 2,13,-1
 61.599609375 0 l 1,14,-1
 61.599609375 714 l 1,0,-1
99.599609375 392 m 1,15,-1
 178.799804688 392 l 2,16,17
 285.200195312 392 285.200195312 392 285.200195312 547 c 0,18,19
 285.200195312 614 285.200195312 614 260.400390625 646.5 c 128,-1,20
 235.599609375 679 235.599609375 679 174 679 c 2,21,-1
 99.599609375 679 l 1,22,-1
 99.599609375 392 l 1,15,-1
99.599609375 358 m 1,23,-1
 99.599609375 35 l 1,24,-1
 186 35 l 2,25,26
 238 35 238 35 267.200195312 76 c 128,-1,27
 296.400390625 117 296.400390625 117 296.400390625 200 c 0,28,29
 296.400390625 287 296.400390625 287 264.799804688 322.5 c 128,-1,30
 233.200195312 358 233.200195312 358 182 358 c 2,31,-1
 99.599609375 358 l 1,23,-1
EndSplineSet
Substitution2: "'c2sc' Capitals to Small Capitals lookup 33 subtable" b.sc
EndChar

StartChar: C
Encoding: 67 67 38
Width: 379
GlyphClass: 2
Flags: W
AnchorPoint: "Anchor-3" 401 714 basechar 0
AnchorPoint: "Anchor-2" 270 714 basechar 0
AnchorPoint: "Anchor-0" 260 0 basechar 0
LayerCount: 2
Fore
SplineSet
238.400390625 689 m 0,0,1
 194.200195312 689 194.200195312 689 164.599609375 661.5 c 128,-1,2
 135 634 135 634 116.599609375 586.5 c 128,-1,3
 98.2001953125 539 98.2001953125 539 89.7998046875 479.5 c 128,-1,4
 81.400390625 420 81.400390625 420 81.400390625 357 c 0,5,6
 81.400390625 258 81.400390625 258 101 183 c 128,-1,7
 120.599609375 108 120.599609375 108 156.200195312 66.5 c 128,-1,8
 191.799804688 25 191.799804688 25 243.400390625 25 c 0,9,10
 276.400390625 25 276.400390625 25 302.400390625 34 c 128,-1,11
 328.400390625 43 328.400390625 43 345.400390625 53 c 1,12,-1
 345.400390625 16 l 1,13,14
 325.400390625 5 325.400390625 5 297.900390625 -2.5 c 128,-1,15
 270.400390625 -10 270.400390625 -10 241.400390625 -10 c 0,16,17
 182.200195312 -10 182.200195312 -10 139.400390625 34.5 c 128,-1,18
 96.599609375 79 96.599609375 79 69.5 161.5 c 128,-1,19
 42.400390625 244 42.400390625 244 42.400390625 358 c 0,20,21
 42.400390625 430 42.400390625 430 55.400390625 496 c 128,-1,22
 68.400390625 562 68.400390625 562 92.099609375 613.5 c 128,-1,23
 115.799804688 665 115.799804688 665 151 694.5 c 128,-1,24
 186.200195312 724 186.200195312 724 238.400390625 724 c 0,25,26
 298.400390625 724 298.400390625 724 349.400390625 695 c 1,27,-1
 333.400390625 662 l 1,28,29
 309.400390625 677 309.400390625 677 284.900390625 683 c 128,-1,30
 260.400390625 689 260.400390625 689 238.400390625 689 c 0,0,1
EndSplineSet
Substitution2: "'c2sc' Capitals to Small Capitals lookup 33 subtable" c.sc
EndChar

StartChar: D
Encoding: 68 68 39
Width: 415
GlyphClass: 2
Flags: W
AnchorPoint: "Anchor-3" 461 714 basechar 0
AnchorPoint: "Anchor-2" 239 714 basechar 0
AnchorPoint: "Anchor-1" 241 358 basechar 0
AnchorPoint: "Anchor-0" 237 0 basechar 0
LayerCount: 2
Fore
SplineSet
357.799804688 364 m 0,0,1
 357.799804688 184 357.799804688 184 309.099609375 92 c 128,-1,2
 260.400390625 0 260.400390625 0 163.599609375 0 c 2,3,-1
 61.599609375 0 l 1,4,-1
 61.599609375 714 l 1,5,-1
 165.200195312 714 l 2,6,7
 260.400390625 714 260.400390625 714 309.099609375 625.5 c 128,-1,8
 357.799804688 537 357.799804688 537 357.799804688 364 c 0,0,1
318.799804688 362 m 0,9,10
 318.799804688 514 318.799804688 514 283.200195312 596.5 c 128,-1,11
 247.599609375 679 247.599609375 679 162.799804688 679 c 2,12,-1
 99.599609375 679 l 1,13,-1
 99.599609375 35 l 1,14,-1
 161.200195312 35 l 2,15,16
 244.400390625 35 244.400390625 35 281.599609375 118 c 128,-1,17
 318.799804688 201 318.799804688 201 318.799804688 362 c 0,9,10
EndSplineSet
Substitution2: "'c2sc' Capitals to Small Capitals lookup 33 subtable" d.sc
EndChar

StartChar: E
Encoding: 69 69 40
Width: 375
GlyphClass: 2
Flags: W
AnchorPoint: "Anchor-3" 365 714 basechar 0
AnchorPoint: "Anchor-2" 216 714 basechar 0
AnchorPoint: "Anchor-0" 205 0 basechar 0
LayerCount: 2
Fore
SplineSet
322.599609375 0 m 1,0,-1
 61.599609375 0 l 1,1,-1
 61.599609375 714 l 1,2,-1
 322.599609375 714 l 1,3,-1
 322.599609375 679 l 1,4,-1
 99.599609375 679 l 1,5,-1
 99.599609375 392 l 1,6,-1
 309.599609375 392 l 1,7,-1
 309.599609375 357 l 1,8,-1
 99.599609375 357 l 1,9,-1
 99.599609375 35 l 1,10,-1
 322.599609375 35 l 1,11,-1
 322.599609375 0 l 1,0,-1
EndSplineSet
Substitution2: "'c2sc' Capitals to Small Capitals lookup 33 subtable" e.sc
EndChar

StartChar: F
Encoding: 70 70 41
Width: 354
GlyphClass: 2
Flags: W
AnchorPoint: "Anchor-3" 338 714 basechar 0
AnchorPoint: "Anchor-2" 209 714 basechar 0
AnchorPoint: "Anchor-0" 179 0 basechar 0
LayerCount: 2
Fore
SplineSet
99.599609375 0 m 1,0,-1
 61.599609375 0 l 1,1,-1
 61.599609375 714 l 1,2,-1
 323.599609375 714 l 1,3,-1
 323.599609375 679 l 1,4,-1
 99.599609375 679 l 1,5,-1
 99.599609375 359 l 1,6,-1
 311.599609375 359 l 1,7,-1
 311.599609375 324 l 1,8,-1
 99.599609375 324 l 1,9,-1
 99.599609375 0 l 1,0,-1
EndSplineSet
Substitution2: "'c2sc' Capitals to Small Capitals lookup 33 subtable" f.sc
EndChar

StartChar: G
Encoding: 71 71 42
Width: 445
GlyphClass: 2
Flags: W
AnchorPoint: "Anchor-3" 505 714 basechar 0
AnchorPoint: "Anchor-2" 294 714 basechar 0
AnchorPoint: "Anchor-0" 294 0 basechar 0
LayerCount: 2
Fore
SplineSet
247.799804688 356 m 1,0,-1
 390.200195312 356 l 1,1,-1
 390.200195312 24 l 1,2,3
 352.599609375 7 352.599609375 7 318.200195312 -1.5 c 128,-1,4
 283.799804688 -10 283.799804688 -10 253.400390625 -10 c 0,5,6
 183 -10 183 -10 138.200195312 37.5 c 128,-1,7
 93.400390625 85 93.400390625 85 67.900390625 167.5 c 128,-1,8
 42.400390625 250 42.400390625 250 42.400390625 355 c 0,9,10
 42.400390625 464 42.400390625 464 69.099609375 547.5 c 128,-1,11
 95.7998046875 631 95.7998046875 631 142.200195312 677.5 c 128,-1,12
 188.599609375 724 188.599609375 724 259.799804688 724 c 0,13,14
 290.200195312 724 290.200195312 724 319 714 c 128,-1,15
 347.799804688 704 347.799804688 704 383.200195312 680 c 1,16,-1
 366.200195312 648 l 1,17,18
 336.599609375 671 336.599609375 671 311 680 c 128,-1,19
 285.400390625 689 285.400390625 689 260.599609375 689 c 0,20,21
 199 689 199 689 159.400390625 647 c 128,-1,22
 119.799804688 605 119.799804688 605 100.599609375 529.5 c 128,-1,23
 81.400390625 454 81.400390625 454 81.400390625 355 c 0,24,25
 81.400390625 260 81.400390625 260 99.400390625 185 c 128,-1,26
 117.400390625 110 117.400390625 110 155.799804688 67.5 c 128,-1,27
 194.200195312 25 194.200195312 25 255 25 c 0,28,29
 281.400390625 25 281.400390625 25 307.400390625 31.5 c 128,-1,30
 333.400390625 38 333.400390625 38 354.200195312 48 c 1,31,-1
 354.200195312 321 l 1,32,-1
 247.799804688 321 l 1,33,-1
 247.799804688 356 l 1,0,-1
EndSplineSet
Substitution2: "'c2sc' Capitals to Small Capitals lookup 33 subtable" g.sc
EndChar

StartChar: H
Encoding: 72 72 43
Width: 427
GlyphClass: 2
Flags: W
AnchorPoint: "Anchor-3" 476 714 basechar 0
AnchorPoint: "Anchor-2" 248 714 basechar 0
AnchorPoint: "Anchor-1" 248 357 basechar 0
AnchorPoint: "Anchor-0" 248 0 basechar 0
LayerCount: 2
Fore
SplineSet
350.400390625 0 m 1,0,-1
 312.400390625 0 l 1,1,-1
 312.400390625 357 l 1,2,-1
 99.599609375 357 l 1,3,-1
 99.599609375 0 l 1,4,-1
 61.599609375 0 l 1,5,-1
 61.599609375 714 l 1,6,-1
 99.599609375 714 l 1,7,-1
 99.599609375 393 l 1,8,-1
 312.400390625 393 l 1,9,-1
 312.400390625 714 l 1,10,-1
 350.400390625 714 l 1,11,-1
 350.400390625 0 l 1,0,-1
EndSplineSet
Substitution2: "'c2sc' Capitals to Small Capitals lookup 33 subtable" h.sc
EndChar

StartChar: I
Encoding: 73 73 44
Width: 224
GlyphClass: 2
Flags: W
AnchorPoint: "Anchor-3" 212 714 basechar 0
AnchorPoint: "Anchor-2" 116 714 basechar 0
AnchorPoint: "Anchor-0" 116 0 basechar 0
LayerCount: 2
Fore
SplineSet
187.599609375 0 m 1,0,-1
 29.599609375 0 l 1,1,-1
 29.599609375 25 l 1,2,-1
 90.599609375 31 l 1,3,-1
 90.599609375 682 l 1,4,-1
 29.599609375 689 l 1,5,-1
 29.599609375 714 l 1,6,-1
 187.599609375 714 l 1,7,-1
 187.599609375 689 l 1,8,-1
 127.599609375 682 l 1,9,-1
 127.599609375 31 l 1,10,-1
 187.599609375 25 l 1,11,-1
 187.599609375 0 l 1,0,-1
EndSplineSet
Substitution2: "'c2sc' Capitals to Small Capitals lookup 33 subtable" i.sc
EndChar

StartChar: J
Encoding: 74 74 45
Width: 179
GlyphClass: 2
Flags: W
AnchorPoint: "Anchor-3" 174 714 basechar 0
AnchorPoint: "Anchor-2" 100 714 basechar 0
AnchorPoint: "Anchor-0" 14 -166 basechar 0
LayerCount: 2
Fore
SplineSet
23.2001953125 -179 m 0,0,1
 -9.7998046875 -179 -9.7998046875 -179 -36.7998046875 -167 c 1,2,-1
 -36.7998046875 -132 l 1,3,4
 -22.7998046875 -136 -22.7998046875 -136 -8.2998046875 -139 c 128,-1,5
 6.2001953125 -142 6.2001953125 -142 21.2001953125 -142 c 0,6,7
 62.2001953125 -142 62.2001953125 -142 76.2001953125 -110 c 128,-1,8
 90.2001953125 -78 90.2001953125 -78 90.2001953125 -17 c 2,9,-1
 90.2001953125 714 l 1,10,-1
 128.200195312 714 l 1,11,-1
 128.200195312 -24 l 2,12,13
 128.200195312 -104 128.200195312 -104 103.700195312 -141.5 c 128,-1,14
 79.2001953125 -179 79.2001953125 -179 23.2001953125 -179 c 0,0,1
EndSplineSet
Substitution2: "'c2sc' Capitals to Small Capitals lookup 33 subtable" j.sc
EndChar

StartChar: K
Encoding: 75 75 46
Width: 345
GlyphClass: 2
Flags: W
AnchorPoint: "Anchor-3" 373 714 basechar 0
AnchorPoint: "Anchor-2" 210 714 basechar 0
AnchorPoint: "Anchor-0" 211 0 basechar 0
LayerCount: 2
Fore
SplineSet
331 0 m 1,0,-1
 290 0 l 1,1,-1
 146.799804688 367 l 1,2,-1
 99.599609375 280 l 1,3,-1
 99.599609375 0 l 1,4,-1
 61.599609375 0 l 1,5,-1
 61.599609375 714 l 1,6,-1
 99.599609375 714 l 1,7,-1
 99.599609375 326 l 1,8,9
 104.400390625 340 104.400390625 340 115.599609375 364 c 128,-1,10
 126.799804688 388 126.799804688 388 143.599609375 423 c 2,11,-1
 281.200195312 714 l 1,12,-1
 321 714 l 1,13,-1
 166.799804688 400 l 1,14,-1
 331 0 l 1,0,-1
EndSplineSet
Substitution2: "'c2sc' Capitals to Small Capitals lookup 33 subtable" k.sc
EndChar

StartChar: L
Encoding: 76 76 47
Width: 343
GlyphClass: 2
Flags: W
AnchorPoint: "Anchor-3" 251 714 basechar 0
AnchorPoint: "Anchor-2" 95 714 basechar 0
AnchorPoint: "Anchor-1" 174 357 basechar 0
AnchorPoint: "Anchor-0" 196 0 basechar 0
LayerCount: 2
Fore
SplineSet
61.599609375 0 m 1,0,-1
 61.599609375 714 l 1,1,-1
 99.599609375 714 l 1,2,-1
 99.599609375 35 l 1,3,-1
 312.599609375 35 l 1,4,-1
 312.599609375 0 l 1,5,-1
 61.599609375 0 l 1,0,-1
EndSplineSet
Substitution2: "'c2sc' Capitals to Small Capitals lookup 33 subtable" l.sc
EndChar

StartChar: M
Encoding: 77 77 48
Width: 571
GlyphClass: 2
Flags: W
AnchorPoint: "Anchor-3" 645 714 basechar 0
AnchorPoint: "Anchor-2" 333 714 basechar 0
AnchorPoint: "Anchor-0" 333 0 basechar 0
LayerCount: 2
Fore
SplineSet
254.599609375 0 m 1,0,-1
 98.599609375 654 l 1,1,-1
 95.599609375 654 l 1,2,3
 97.599609375 608 97.599609375 608 98.099609375 586 c 128,-1,4
 98.599609375 564 98.599609375 564 98.599609375 554 c 2,5,-1
 98.599609375 0 l 1,6,-1
 61.599609375 0 l 1,7,-1
 61.599609375 714 l 1,8,-1
 112.200195312 714 l 1,9,-1
 276.599609375 52 l 1,10,-1
 279.599609375 52 l 1,11,-1
 433.799804688 714 l 1,12,-1
 487 714 l 1,13,-1
 496.200195312 0 l 1,14,-1
 458.200195312 0 l 1,15,-1
 449 551 l 2,16,17
 449 561 449 561 449.5 583.5 c 128,-1,18
 450 606 450 606 450 653 c 1,19,-1
 448.200195312 653 l 1,20,-1
 300.599609375 0 l 1,21,-1
 254.599609375 0 l 1,0,-1
EndSplineSet
Substitution2: "'c2sc' Capitals to Small Capitals lookup 33 subtable" m.sc
EndChar

StartChar: N
Encoding: 78 78 49
Width: 443
GlyphClass: 2
Flags: W
AnchorPoint: "Anchor-3" 497 714 basechar 0
AnchorPoint: "Anchor-2" 258 714 basechar 0
AnchorPoint: "Anchor-0" 258 0 basechar 0
LayerCount: 2
Fore
SplineSet
367.599609375 0 m 1,0,-1
 325 0 l 1,1,-1
 98.599609375 647 l 1,2,-1
 96.599609375 647 l 1,3,4
 98.599609375 622 98.599609375 622 98.599609375 594 c 2,5,-1
 98.599609375 526 l 1,6,-1
 98.599609375 0 l 1,7,-1
 61.599609375 0 l 1,8,-1
 61.599609375 714 l 1,9,-1
 105 714 l 1,10,-1
 330.599609375 72 l 1,11,-1
 332.599609375 72 l 1,12,13
 331.599609375 108 331.599609375 108 331.099609375 143.5 c 128,-1,14
 330.599609375 179 330.599609375 179 330.599609375 202 c 2,15,-1
 330.599609375 714 l 1,16,-1
 367.599609375 714 l 1,17,-1
 367.599609375 0 l 1,0,-1
EndSplineSet
Substitution2: "'c2sc' Capitals to Small Capitals lookup 33 subtable" n.sc
EndChar

StartChar: O
Encoding: 79 79 50
Width: 441
GlyphClass: 2
Flags: W
AnchorPoint: "Anchor-3" 499 714 basechar 0
AnchorPoint: "Anchor-2" 260 714 basechar 0
AnchorPoint: "Anchor-1" 260 357 basechar 0
AnchorPoint: "Anchor-0" 260 0 basechar 0
LayerCount: 2
Fore
SplineSet
388.400390625 358 m 0,0,1
 388.400390625 284 388.400390625 284 378.400390625 218 c 128,-1,2
 368.400390625 152 368.400390625 152 348.099609375 100.5 c 128,-1,3
 327.799804688 49 327.799804688 49 296.200195312 19.5 c 128,-1,4
 264.599609375 -10 264.599609375 -10 216.599609375 -10 c 256,5,6
 168.599609375 -10 168.599609375 -10 136.200195312 20.5 c 128,-1,7
 103.799804688 51 103.799804688 51 83.099609375 103.5 c 128,-1,8
 62.400390625 156 62.400390625 156 52.400390625 222 c 128,-1,9
 42.400390625 288 42.400390625 288 42.400390625 358 c 0,10,11
 42.400390625 541 42.400390625 541 89.099609375 632.5 c 128,-1,12
 135.799804688 724 135.799804688 724 216.599609375 724 c 0,13,14
 276.599609375 724 276.599609375 724 312.599609375 676.5 c 128,-1,15
 348.599609375 629 348.599609375 629 368.5 546.5 c 128,-1,16
 388.400390625 464 388.400390625 464 388.400390625 358 c 0,0,1
81.400390625 358 m 0,17,18
 81.400390625 199 81.400390625 199 116.200195312 112.5 c 128,-1,19
 151 26 151 26 216.599609375 26 c 0,20,21
 283 26 283 26 316.200195312 110.5 c 128,-1,22
 349.400390625 195 349.400390625 195 349.400390625 358 c 0,23,24
 349.400390625 518 349.400390625 518 316.200195312 603.5 c 128,-1,25
 283 689 283 689 216.599609375 689 c 0,26,27
 147.799804688 689 147.799804688 689 114.599609375 602.5 c 128,-1,28
 81.400390625 516 81.400390625 516 81.400390625 358 c 0,17,18
EndSplineSet
Substitution2: "'c2sc' Capitals to Small Capitals lookup 33 subtable" o.sc
Substitution2: "Single Substitution lookup 28 subtable" ordmasculine
EndChar

StartChar: P
Encoding: 80 80 51
Width: 354
GlyphClass: 2
Flags: W
AnchorPoint: "Anchor-3" 385 714 basechar 0
AnchorPoint: "Anchor-2" 204 714 basechar 0
AnchorPoint: "Anchor-0" 203 0 basechar 0
LayerCount: 2
Fore
SplineSet
150.799804688 714 m 2,0,1
 228.400390625 714 228.400390625 714 270.700195312 669 c 128,-1,2
 313 624 313 624 313 516 c 0,3,4
 313 402 313 402 271.5 351 c 128,-1,5
 230 300 230 300 150 300 c 2,6,-1
 99.599609375 300 l 1,7,-1
 99.599609375 0 l 1,8,-1
 61.599609375 0 l 1,9,-1
 61.599609375 714 l 1,10,-1
 150.799804688 714 l 2,0,1
149.200195312 679 m 2,11,-1
 99.599609375 679 l 1,12,-1
 99.599609375 335 l 1,13,-1
 152.400390625 335 l 2,14,15
 215.599609375 335 215.599609375 335 244.799804688 377 c 128,-1,16
 274 419 274 419 274 516 c 0,17,18
 274 606 274 606 243.200195312 642.5 c 128,-1,19
 212.400390625 679 212.400390625 679 149.200195312 679 c 2,11,-1
EndSplineSet
Substitution2: "'c2sc' Capitals to Small Capitals lookup 33 subtable" p.sc
EndChar

StartChar: Q
Encoding: 81 81 52
Width: 441
GlyphClass: 2
Flags: W
AnchorPoint: "Anchor-3" 499 714 basechar 0
AnchorPoint: "Anchor-2" 260 714 basechar 0
AnchorPoint: "Anchor-0" 260 -35 basechar 0
LayerCount: 2
Fore
SplineSet
388.400390625 358 m 0,0,1
 388.400390625 202 388.400390625 202 355.299804688 115 c 128,-1,2
 322.200195312 28 322.200195312 28 267 2 c 1,3,-1
 337.400390625 -170 l 1,4,-1
 303 -170 l 1,5,-1
 238.200195312 -8 l 1,6,7
 231 -10 231 -10 225.400390625 -10 c 128,-1,8
 219.799804688 -10 219.799804688 -10 214.200195312 -10 c 0,9,10
 169.400390625 -10 169.400390625 -10 138.200195312 18.5 c 128,-1,11
 107 47 107 47 85.7001953125 98 c 128,-1,12
 64.400390625 149 64.400390625 149 53.400390625 215.5 c 128,-1,13
 42.400390625 282 42.400390625 282 42.400390625 359 c 0,14,15
 42.400390625 724 42.400390625 724 219 724 c 0,16,17
 293.400390625 724 293.400390625 724 340.900390625 636 c 128,-1,18
 388.400390625 548 388.400390625 548 388.400390625 358 c 0,0,1
81.400390625 359 m 0,19,20
 81.400390625 198 81.400390625 198 115.799804688 112 c 128,-1,21
 150.200195312 26 150.200195312 26 215.799804688 26 c 0,22,23
 283.799804688 26 283.799804688 26 316.599609375 111 c 128,-1,24
 349.400390625 196 349.400390625 196 349.400390625 358 c 256,25,26
 349.400390625 520 349.400390625 520 316.200195312 604.5 c 128,-1,27
 283 689 283 689 219 689 c 0,28,29
 147.799804688 689 147.799804688 689 114.599609375 602.5 c 128,-1,30
 81.400390625 516 81.400390625 516 81.400390625 359 c 0,19,20
EndSplineSet
Substitution2: "'c2sc' Capitals to Small Capitals lookup 33 subtable" q.sc
EndChar

StartChar: R
Encoding: 82 82 53
Width: 364
GlyphClass: 2
Flags: W
AnchorPoint: "Anchor-3" 396 714 basechar 0
AnchorPoint: "Anchor-2" 208 714 basechar 0
AnchorPoint: "Anchor-0" 218 0 basechar 0
LayerCount: 2
Fore
SplineSet
147.599609375 714 m 2,0,1
 224.400390625 714 224.400390625 714 269 671.5 c 128,-1,2
 313.599609375 629 313.599609375 629 313.599609375 523 c 0,3,4
 313.599609375 362 313.599609375 362 206 326 c 1,5,-1
 333.799804688 0 l 1,6,-1
 290.799804688 0 l 1,7,-1
 177.200195312 317 l 1,8,-1
 99.599609375 317 l 1,9,-1
 99.599609375 0 l 1,10,-1
 61.599609375 0 l 1,11,-1
 61.599609375 714 l 1,12,-1
 147.599609375 714 l 2,0,1
146 679 m 2,13,-1
 99.599609375 679 l 1,14,-1
 99.599609375 352 l 1,15,-1
 162.799804688 352 l 2,16,17
 214 352 214 352 244.799804688 392 c 128,-1,18
 275.599609375 432 275.599609375 432 275.599609375 523 c 0,19,20
 275.599609375 606 275.599609375 606 245.599609375 642.5 c 128,-1,21
 215.599609375 679 215.599609375 679 146 679 c 2,13,-1
EndSplineSet
Substitution2: "'c2sc' Capitals to Small Capitals lookup 33 subtable" r.sc
EndChar

StartChar: S
Encoding: 83 83 54
Width: 385
GlyphClass: 2
Flags: W
AnchorPoint: "Anchor-3" 374 714 basechar 0
AnchorPoint: "Anchor-2" 199 714 basechar 0
AnchorPoint: "Anchor-0" 195 0 basechar 0
LayerCount: 2
Fore
SplineSet
343.799804688 187 m 0,0,1
 343.799804688 93 343.799804688 93 297.299804688 41.5 c 128,-1,2
 250.799804688 -10 250.799804688 -10 166.799804688 -10 c 0,3,4
 135.799804688 -10 135.799804688 -10 99.2998046875 -4 c 128,-1,5
 62.7998046875 2 62.7998046875 2 32.7998046875 16 c 1,6,-1
 32.7998046875 57 l 1,7,8
 60.7998046875 44 60.7998046875 44 97.2998046875 35.5 c 128,-1,9
 133.799804688 27 133.799804688 27 165.799804688 27 c 0,10,11
 235.799804688 27 235.799804688 27 270.299804688 70.5 c 128,-1,12
 304.799804688 114 304.799804688 114 304.799804688 186 c 0,13,14
 304.799804688 230 304.799804688 230 291.299804688 258 c 128,-1,15
 277.799804688 286 277.799804688 286 249.799804688 306 c 128,-1,16
 221.799804688 326 221.799804688 326 178.799804688 350 c 0,17,18
 139.799804688 371 139.799804688 371 107.799804688 393.5 c 128,-1,19
 75.7998046875 416 75.7998046875 416 56.7998046875 451 c 128,-1,20
 37.7998046875 486 37.7998046875 486 37.7998046875 543 c 0,21,22
 37.7998046875 631 37.7998046875 631 86.2998046875 677.5 c 128,-1,23
 134.799804688 724 134.799804688 724 211.799804688 724 c 0,24,25
 246.799804688 724 246.799804688 724 280.299804688 715 c 128,-1,26
 313.799804688 706 313.799804688 706 335.799804688 695 c 1,27,-1
 320.799804688 661 l 1,28,29
 291.799804688 677 291.799804688 677 262.799804688 682.5 c 128,-1,30
 233.799804688 688 233.799804688 688 212.799804688 688 c 0,31,32
 146.799804688 688 146.799804688 688 111.799804688 649 c 128,-1,33
 76.7998046875 610 76.7998046875 610 76.7998046875 544 c 0,34,35
 76.7998046875 498 76.7998046875 498 92.7998046875 469 c 128,-1,36
 108.799804688 440 108.799804688 440 136.799804688 420 c 128,-1,37
 164.799804688 400 164.799804688 400 200.799804688 380 c 0,38,39
 245.799804688 356 245.799804688 356 277.799804688 332.5 c 128,-1,40
 309.799804688 309 309.799804688 309 326.799804688 275.5 c 128,-1,41
 343.799804688 242 343.799804688 242 343.799804688 187 c 0,0,1
EndSplineSet
Substitution2: "'c2sc' Capitals to Small Capitals lookup 33 subtable" s.sc
EndChar

StartChar: T
Encoding: 84 84 55
Width: 333
GlyphClass: 2
Flags: W
AnchorPoint: "Anchor-3" 325 714 basechar 0
AnchorPoint: "Anchor-2" 173 714 basechar 0
AnchorPoint: "Anchor-1" 173 357 basechar 0
AnchorPoint: "Anchor-0" 173 0 basechar 0
LayerCount: 2
Fore
SplineSet
184.400390625 0 m 1,0,-1
 146.400390625 0 l 1,1,-1
 146.400390625 679 l 1,2,-1
 6.400390625 679 l 1,3,-1
 6.400390625 714 l 1,4,-1
 325.200195312 714 l 1,5,-1
 325.200195312 679 l 1,6,-1
 184.400390625 679 l 1,7,-1
 184.400390625 0 l 1,0,-1
EndSplineSet
Substitution2: "'c2sc' Capitals to Small Capitals lookup 33 subtable" t.sc
EndChar

StartChar: U
Encoding: 85 85 56
Width: 423
GlyphClass: 2
Flags: W
AnchorPoint: "Anchor-3" 473 714 basechar 0
AnchorPoint: "Anchor-2" 247 714 basechar 0
AnchorPoint: "Anchor-0" 247 0 basechar 0
LayerCount: 2
Fore
SplineSet
352.799804688 714 m 1,0,-1
 352.799804688 218 l 2,1,2
 352.799804688 132 352.799804688 132 331 82 c 128,-1,3
 309.200195312 32 309.200195312 32 277.599609375 11 c 128,-1,4
 246 -10 246 -10 205.200195312 -10 c 0,5,6
 137.200195312 -10 137.200195312 -10 97 45 c 128,-1,7
 56.7998046875 100 56.7998046875 100 56.7998046875 218 c 2,8,-1
 56.7998046875 714 l 1,9,-1
 94.7998046875 714 l 1,10,-1
 94.7998046875 221 l 2,11,12
 94.7998046875 114 94.7998046875 114 124 70 c 128,-1,13
 153.200195312 26 153.200195312 26 205.200195312 26 c 0,14,15
 238 26 238 26 262.799804688 44 c 128,-1,16
 287.599609375 62 287.599609375 62 301.200195312 104.5 c 128,-1,17
 314.799804688 147 314.799804688 147 314.799804688 221 c 2,18,-1
 314.799804688 714 l 1,19,-1
 352.799804688 714 l 1,0,-1
EndSplineSet
Substitution2: "'c2sc' Capitals to Small Capitals lookup 33 subtable" u.sc
EndChar

StartChar: V
Encoding: 86 86 57
Width: 352
GlyphClass: 2
Flags: W
AnchorPoint: "Anchor-3" 361 714 basechar 0
AnchorPoint: "Anchor-2" 191 714 basechar 0
AnchorPoint: "Anchor-0" 190 0 basechar 0
LayerCount: 2
Fore
SplineSet
352.8 714 m 1,0,-1
 202.8 0 l 1,1,-1
 156.8 0 l 1,2,-1
 0 714 l 1,3,-1
 38 714 l 1,4,-1
 157.8 155 l 2,5,6
 164.8 126 164.8 126 170.3 99.5 c 128,-1,7
 175.8 73 175.8 73 180.8 44 c 1,8,9
 190.8 100 190.8 100 203.6 156 c 2,10,-1
 314.8 714 l 1,11,-1
 352.8 714 l 1,0,-1
EndSplineSet
Substitution2: "'c2sc' Capitals to Small Capitals lookup 33 subtable" v.sc
EndChar

StartChar: W
Encoding: 87 87 58
Width: 611
GlyphClass: 2
Flags: W
AnchorPoint: "Anchor-3" 642 714 basechar 0
AnchorPoint: "Anchor-2" 331 714 basechar 0
AnchorPoint: "Anchor-0" 331 0 basechar 0
LayerCount: 2
Fore
SplineSet
606.599609375 714 m 1,0,-1
 451.599609375 0 l 1,1,-1
 402.599609375 0 l 1,2,-1
 317 539 l 2,3,4
 313.799804688 564 313.799804688 564 310.599609375 587 c 128,-1,5
 307.400390625 610 307.400390625 610 304.200195312 648 c 1,6,7
 301 614 301 614 297.799804688 591 c 128,-1,8
 294.599609375 568 294.599609375 568 290.599609375 540 c 2,9,-1
 205 0 l 1,10,-1
 155 0 l 1,11,-1
 4 714 l 1,12,-1
 43 714 l 1,13,-1
 156 176 l 2,14,15
 166 129 166 129 172 95 c 128,-1,16
 178 61 178 61 180 43 c 1,17,18
 186 79 186 79 193 118 c 128,-1,19
 200 157 200 157 204 176 c 2,20,-1
 289 714 l 1,21,-1
 318.599609375 714 l 1,22,-1
 403.599609375 176 l 2,23,24
 411.599609375 139 411.599609375 139 416.099609375 110 c 128,-1,25
 420.599609375 81 420.599609375 81 426.599609375 40 c 1,26,27
 432.599609375 78 432.599609375 78 438.599609375 111 c 128,-1,28
 444.599609375 144 444.599609375 144 451.599609375 176 c 2,29,-1
 566.599609375 714 l 1,30,-1
 606.599609375 714 l 1,0,-1
EndSplineSet
Substitution2: "'c2sc' Capitals to Small Capitals lookup 33 subtable" w.sc
EndChar

StartChar: X
Encoding: 88 88 59
Width: 294
GlyphClass: 2
Flags: W
AnchorPoint: "Anchor-3" 325 714 basechar 0
AnchorPoint: "Anchor-2" 174 714 basechar 0
AnchorPoint: "Anchor-0" 173 0 basechar 0
LayerCount: 2
Fore
SplineSet
285 0 m 1,0,-1
 244 0 l 1,1,-1
 152 334 l 1,2,-1
 47.2001953125 0 l 1,3,-1
 7.2001953125 0 l 1,4,-1
 135.200195312 373 l 1,5,-1
 30.2001953125 714 l 1,6,-1
 65.599609375 714 l 1,7,-1
 152.799804688 410 l 1,8,-1
 243.200195312 714 l 1,9,-1
 283 714 l 1,10,-1
 170.400390625 372 l 1,11,-1
 285 0 l 1,0,-1
EndSplineSet
Substitution2: "'c2sc' Capitals to Small Capitals lookup 33 subtable" x.sc
EndChar

StartChar: Y
Encoding: 89 89 60
Width: 312
GlyphClass: 2
Flags: W
AnchorPoint: "Anchor-3" 311 714 basechar 0
AnchorPoint: "Anchor-2" 166 714 basechar 0
AnchorPoint: "Anchor-0" 166 0 basechar 0
LayerCount: 2
Fore
SplineSet
156.8 328 m 1,0,-1
 272.8 714 l 1,1,-1
 312.8 714 l 1,2,-1
 179.6 278 l 1,3,-1
 179.6 0 l 1,4,-1
 141.6 0 l 1,5,-1
 141.6 278 l 1,6,-1
 0 714 l 1,7,-1
 39 714 l 1,8,-1
 156.8 328 l 1,0,-1
EndSplineSet
Substitution2: "'c2sc' Capitals to Small Capitals lookup 33 subtable" y.sc
EndChar

StartChar: Z
Encoding: 90 90 61
Width: 327
GlyphClass: 2
Flags: W
AnchorPoint: "Anchor-3" 311 714 basechar 0
AnchorPoint: "Anchor-2" 166 714 basechar 0
AnchorPoint: "Anchor-0" 167 0 basechar 0
LayerCount: 2
Fore
SplineSet
305.400390625 0 m 1,0,-1
 22.400390625 0 l 1,1,-1
 22.400390625 32 l 1,2,-1
 258.400390625 679 l 1,3,-1
 32.400390625 679 l 1,4,-1
 32.400390625 714 l 1,5,-1
 298.400390625 714 l 1,6,-1
 298.400390625 681 l 1,7,-1
 63.400390625 35 l 1,8,-1
 305.400390625 35 l 1,9,-1
 305.400390625 0 l 1,0,-1
EndSplineSet
Substitution2: "'c2sc' Capitals to Small Capitals lookup 33 subtable" z.sc
EndChar

StartChar: bracketleft
Encoding: 91 91 62
Width: 300
Flags: W
LayerCount: 2
Fore
SplineSet
255.599609375 -159 m 1,0,-1
 65.599609375 -159 l 1,1,-1
 65.599609375 715 l 1,2,-1
 255.599609375 715 l 1,3,-1
 255.599609375 682 l 1,4,-1
 100.599609375 682 l 1,5,-1
 100.599609375 -126 l 1,6,-1
 255.599609375 -126 l 1,7,-1
 255.599609375 -159 l 1,0,-1
EndSplineSet
Substitution2: "'smcp' Lowercase to Small Capitals lookup 34 subtable" bracketleft.sc
Substitution2: "'c2sc' Capitals to Small Capitals lookup 33 subtable" bracketleft.sc
EndChar

StartChar: backslash
Encoding: 92 92 63
Width: 332
Flags: W
LayerCount: 2
Fore
SplineSet
55.2001953125 715 m 1,0,-1
 314.200195312 -1 l 1,1,-1
 276.200195312 -1 l 1,2,-1
 19.2001953125 715 l 1,3,-1
 55.2001953125 715 l 1,0,-1
EndSplineSet
EndChar

StartChar: bracketright
Encoding: 93 93 64
Width: 290
Flags: W
LayerCount: 2
Fore
SplineSet
28 -126 m 1,0,-1
 183 -126 l 1,1,-1
 183 682 l 1,2,-1
 28 682 l 1,3,-1
 28 715 l 1,4,-1
 219 715 l 1,5,-1
 219 -159 l 1,6,-1
 28 -159 l 1,7,-1
 28 -126 l 1,0,-1
EndSplineSet
Substitution2: "'smcp' Lowercase to Small Capitals lookup 34 subtable" bracketright.sc
Substitution2: "'c2sc' Capitals to Small Capitals lookup 33 subtable" bracketright.sc
EndChar

StartChar: asciicircum
Encoding: 94 94 65
Width: 375
Flags: W
LayerCount: 2
Fore
SplineSet
13.599609375 364 m 1,0,-1
 179.200195312 713 l 1,1,-1
 202.400390625 713 l 1,2,-1
 358.400390625 364 l 1,3,-1
 317.400390625 364 l 1,4,-1
 189.599609375 666 l 1,5,-1
 54.599609375 364 l 1,6,-1
 13.599609375 364 l 1,0,-1
EndSplineSet
EndChar

StartChar: underscore
Encoding: 95 95 66
Width: 368
Flags: W
LayerCount: 2
Fore
SplineSet
370.400390625 -123 m 1,0,-1
 -1.599609375 -123 l 1,1,-1
 -1.599609375 -89 l 1,2,-1
 370.400390625 -89 l 1,3,-1
 370.400390625 -123 l 1,0,-1
EndSplineSet
EndChar

StartChar: grave
Encoding: 96 96 67
Width: 225
Flags: W
LayerCount: 2
Fore
SplineSet
76 764 m 1,0,1
 101 724 101 724 129.5 687 c 128,-1,2
 158 650 158 650 185 617 c 1,3,-1
 185 606 l 1,4,-1
 162 606 l 1,5,6
 143 624 143 624 118.5 650 c 128,-1,7
 94 676 94 676 71 704 c 128,-1,8
 48 732 48 732 32 756 c 1,9,-1
 32 764 l 1,10,-1
 76 764 l 1,0,1
EndSplineSet
EndChar

StartChar: a
Encoding: 97 97 68
Width: 323
GlyphClass: 2
Flags: W
AnchorPoint: "Anchor-3" 352 529 basechar 0
AnchorPoint: "Anchor-2" 189 529 basechar 0
AnchorPoint: "Anchor-0" 180 0 basechar 0
LayerCount: 2
Fore
SplineSet
154.799804688 539 m 0,0,1
 207.599609375 539 207.599609375 539 234.400390625 497 c 128,-1,2
 261.200195312 455 261.200195312 455 261.200195312 359 c 2,3,-1
 261.200195312 0 l 1,4,-1
 232.200195312 0 l 1,5,-1
 229.200195312 89 l 1,6,-1
 227.200195312 89 l 1,7,8
 218 51 218 51 196.799804688 20.5 c 128,-1,9
 175.599609375 -10 175.599609375 -10 132.400390625 -10 c 0,10,11
 99.599609375 -10 99.599609375 -10 77.099609375 10.5 c 128,-1,12
 54.599609375 31 54.599609375 31 42.099609375 63.5 c 128,-1,13
 29.599609375 96 29.599609375 96 29.599609375 133 c 0,14,15
 29.599609375 212 29.599609375 212 69.7998046875 253 c 128,-1,16
 110 294 110 294 175.599609375 302 c 2,17,-1
 224.400390625 308 l 1,18,-1
 224.400390625 356 l 2,19,20
 224.400390625 440 224.400390625 440 207.599609375 473 c 128,-1,21
 190.799804688 506 190.799804688 506 153.200195312 506 c 0,22,23
 137.200195312 506 137.200195312 506 118 499 c 128,-1,24
 98.7998046875 492 98.7998046875 492 76.400390625 476 c 1,25,-1
 64.599609375 506 l 1,26,27
 107.599609375 539 107.599609375 539 154.799804688 539 c 0,0,1
225.200195312 278 m 1,28,-1
 177.200195312 272 l 1,29,30
 67.599609375 257 67.599609375 257 67.599609375 134 c 0,31,32
 67.599609375 78 67.599609375 78 86.400390625 49.5 c 128,-1,33
 105.200195312 21 105.200195312 21 137.200195312 21 c 0,34,35
 183.599609375 21 183.599609375 21 204.400390625 75.5 c 128,-1,36
 225.200195312 130 225.200195312 130 225.200195312 218 c 2,37,-1
 225.200195312 278 l 1,28,-1
EndSplineSet
Substitution2: "'smcp' Lowercase to Small Capitals lookup 34 subtable" a.sc
Substitution2: "Single Substitution lookup 28 subtable" ordfeminine
EndChar

StartChar: b
Encoding: 98 98 69
Width: 374
GlyphClass: 2
Flags: W
AnchorPoint: "Anchor-3" 358 760 basechar 0
AnchorPoint: "Anchor-2" 223 760 basechar 0
AnchorPoint: "Anchor-0" 219 0 basechar 0
LayerCount: 2
Fore
SplineSet
93 760 m 1,0,-1
 93 494 l 1,1,2
 93 460 l 2,3,4
 93 442 93 442 92 428 c 1,5,-1
 93.7998046875 428 l 1,6,7
 102.599609375 478 102.599609375 478 129.400390625 508.5 c 128,-1,8
 156.200195312 539 156.200195312 539 196.200195312 539 c 0,9,10
 257 539 257 539 291.200195312 470.5 c 128,-1,11
 325.400390625 402 325.400390625 402 325.400390625 269 c 0,12,13
 325.400390625 130 325.400390625 130 289.599609375 60 c 128,-1,14
 253.799804688 -10 253.799804688 -10 193.799804688 -10 c 0,15,16
 155.400390625 -10 155.400390625 -10 131.799804688 17.5 c 128,-1,17
 108.200195312 45 108.200195312 45 94.599609375 91 c 1,18,-1
 92 91 l 1,19,-1
 86 0 l 1,20,-1
 56 0 l 1,21,-1
 56 760 l 1,22,-1
 93 760 l 1,0,-1
193 504 m 0,23,24
 140.200195312 504 140.200195312 504 116.599609375 445.5 c 128,-1,25
 93 387 93 387 93 290 c 2,26,-1
 93 243 l 2,27,28
 93 129 93 129 119.799804688 77 c 128,-1,29
 146.599609375 25 146.599609375 25 190.599609375 25 c 0,30,31
 237 25 237 25 262.200195312 84.5 c 128,-1,32
 287.400390625 144 287.400390625 144 287.400390625 269 c 0,33,34
 287.400390625 385 287.400390625 385 265 444.5 c 128,-1,35
 242.599609375 504 242.599609375 504 193 504 c 0,23,24
EndSplineSet
Substitution2: "'smcp' Lowercase to Small Capitals lookup 34 subtable" b.sc
EndChar

StartChar: c
Encoding: 99 99 70
Width: 316
GlyphClass: 2
Flags: W
AnchorPoint: "Anchor-3" 298 529 basechar 0
AnchorPoint: "Anchor-2" 207 529 basechar 0
AnchorPoint: "Anchor-0" 201 0 basechar 0
LayerCount: 2
Fore
SplineSet
204.799804688 -10 m 0,0,1
 118.799804688 -10 118.799804688 -10 77.7998046875 61.5 c 128,-1,2
 36.7998046875 133 36.7998046875 133 36.7998046875 258 c 0,3,4
 36.7998046875 394 36.7998046875 394 82.7998046875 466.5 c 128,-1,5
 128.799804688 539 128.799804688 539 211.799804688 539 c 0,6,7
 234.799804688 539 234.799804688 539 254.299804688 534 c 128,-1,8
 273.799804688 529 273.799804688 529 290.799804688 520 c 1,9,-1
 277.799804688 488 l 1,10,11
 248.799804688 504 248.799804688 504 213.799804688 504 c 0,12,13
 148.799804688 504 148.799804688 504 111.799804688 442.5 c 128,-1,14
 74.7998046875 381 74.7998046875 381 74.7998046875 259 c 0,15,16
 74.7998046875 152 74.7998046875 152 106.799804688 88 c 128,-1,17
 138.799804688 24 138.799804688 24 208.799804688 24 c 0,18,19
 228.799804688 24 228.799804688 24 248.799804688 29 c 128,-1,20
 268.799804688 34 268.799804688 34 288.799804688 43 c 1,21,-1
 288.799804688 8 l 1,22,23
 249.799804688 -10 249.799804688 -10 204.799804688 -10 c 0,0,1
EndSplineSet
Substitution2: "'smcp' Lowercase to Small Capitals lookup 34 subtable" c.sc
EndChar

StartChar: d
Encoding: 100 100 71
Width: 369
GlyphClass: 2
Flags: W
AnchorPoint: "Anchor-3" 408 760 basechar 0
AnchorPoint: "Anchor-2" 192 760 basechar 0
AnchorPoint: "Anchor-1" 216 265 basechar 0
AnchorPoint: "Anchor-0" 207 0 basechar 0
LayerCount: 2
Fore
SplineSet
164.599609375 -10 m 0,0,1
 104.599609375 -10 104.599609375 -10 70.2998046875 58.5 c 128,-1,2
 36 127 36 127 36 258 c 0,3,4
 36 395 36 395 71.900390625 467 c 128,-1,5
 107.799804688 539 107.799804688 539 166.200195312 539 c 0,6,7
 194.200195312 539 194.200195312 539 215 524 c 128,-1,8
 235.799804688 509 235.799804688 509 249 485.5 c 128,-1,9
 262.200195312 462 262.200195312 462 268.599609375 437 c 1,10,-1
 270.599609375 437 l 1,11,12
 269.599609375 456 269.599609375 456 269.099609375 473 c 128,-1,13
 268.599609375 490 268.599609375 490 268.599609375 506 c 2,14,-1
 268.599609375 760 l 1,15,-1
 305.599609375 760 l 1,16,-1
 305.599609375 0 l 1,17,-1
 276.599609375 0 l 1,18,-1
 270.599609375 98 l 1,19,-1
 268.599609375 98 l 1,20,21
 262.200195312 72 262.200195312 72 249.400390625 47 c 128,-1,22
 236.599609375 22 236.599609375 22 215.799804688 6 c 128,-1,23
 195 -10 195 -10 164.599609375 -10 c 0,0,1
168.599609375 24 m 0,24,25
 216.599609375 24 216.599609375 24 242.599609375 78.5 c 128,-1,26
 268.599609375 133 268.599609375 133 268.599609375 226 c 2,27,-1
 268.599609375 307 l 2,28,29
 268.599609375 398 268.599609375 398 243 451 c 128,-1,30
 217.400390625 504 217.400390625 504 170.200195312 504 c 0,31,32
 75 504 75 504 75 258 c 0,33,34
 75 146 75 146 97 85 c 128,-1,35
 119 24 119 24 168.599609375 24 c 0,24,25
EndSplineSet
Substitution2: "'smcp' Lowercase to Small Capitals lookup 34 subtable" d.sc
EndChar

StartChar: e
Encoding: 101 101 72
Width: 334
GlyphClass: 2
Flags: W
AnchorPoint: "Anchor-3" 368 529 basechar 0
AnchorPoint: "Anchor-2" 194 529 basechar 0
AnchorPoint: "Anchor-0" 206 0 basechar 0
LayerCount: 2
Fore
SplineSet
166.599609375 539 m 0,0,1
 209 539 209 539 234.900390625 505.5 c 128,-1,2
 260.799804688 472 260.799804688 472 274.799804688 418 c 128,-1,3
 288.799804688 364 288.799804688 364 288.799804688 303 c 2,4,-1
 288.799804688 269 l 1,5,-1
 73.7998046875 269 l 1,6,7
 73.7998046875 149 73.7998046875 149 101 86.5 c 128,-1,8
 128.200195312 24 128.200195312 24 183.400390625 24 c 0,9,10
 225.799804688 24 225.799804688 24 271.799804688 61 c 1,11,-1
 271.799804688 22 l 1,12,13
 250.599609375 8 250.599609375 8 229 -1 c 128,-1,14
 207.400390625 -10 207.400390625 -10 181.799804688 -10 c 0,15,16
 109.799804688 -10 109.799804688 -10 73.2998046875 64.5 c 128,-1,17
 36.7998046875 139 36.7998046875 139 36.7998046875 264 c 0,18,19
 36.7998046875 391 36.7998046875 391 70.900390625 465 c 128,-1,20
 105 539 105 539 166.599609375 539 c 0,0,1
166.599609375 506 m 0,21,22
 126.599609375 506 126.599609375 506 102.200195312 455 c 128,-1,23
 77.7998046875 404 77.7998046875 404 74.599609375 301 c 1,24,-1
 253.799804688 301 l 1,25,26
 253.799804688 356 253.799804688 356 245 403 c 128,-1,27
 236.200195312 450 236.200195312 450 217 478 c 128,-1,28
 197.799804688 506 197.799804688 506 166.599609375 506 c 0,21,22
EndSplineSet
Substitution2: "'smcp' Lowercase to Small Capitals lookup 34 subtable" e.sc
EndChar

StartChar: f
Encoding: 102 102 73
Width: 224
GlyphClass: 2
Flags: W
AnchorPoint: "Anchor-3" 206 575 basechar 0
AnchorPoint: "Anchor-2" 162 765 basechar 0
AnchorPoint: "Anchor-0" 97 0 basechar 0
LayerCount: 2
Fore
SplineSet
193 495 m 1,0,-1
 114 495 l 1,1,-1
 114 0 l 1,2,-1
 77 0 l 1,3,-1
 77 495 l 1,4,-1
 8 495 l 1,5,-1
 8 521 l 1,6,-1
 77 530 l 1,7,-1
 77 598 l 2,8,9
 77 683 77 683 99.5 724 c 128,-1,10
 122 765 122 765 180 765 c 0,11,12
 199 765 199 765 214 761 c 128,-1,13
 229 757 229 757 242 751 c 1,14,-1
 230 721 l 1,15,16
 207 731 207 731 181 731 c 0,17,18
 143 731 143 731 128.5 700 c 128,-1,19
 114 669 114 669 114 593 c 2,20,-1
 114 529 l 1,21,-1
 193 529 l 1,22,-1
 193 495 l 1,0,-1
EndSplineSet
Substitution2: "'smcp' Lowercase to Small Capitals lookup 34 subtable" f.sc
EndChar

StartChar: g
Encoding: 103 103 74
Width: 368
GlyphClass: 2
Flags: W
AnchorPoint: "Anchor-3" 406 529 basechar 0
AnchorPoint: "Anchor-2" 209 529 basechar 0
AnchorPoint: "Anchor-0" 194 -242 basechar 0
LayerCount: 2
Fore
SplineSet
168.400390625 539 m 0,0,1
 210.799804688 539 210.799804688 539 233.200195312 511 c 128,-1,2
 255.599609375 483 255.599609375 483 266.799804688 445 c 1,3,-1
 269.799804688 445 l 1,4,-1
 274.799804688 529 l 1,5,-1
 303.799804688 529 l 1,6,-1
 303.799804688 -29 l 2,7,8
 303.799804688 -134 303.799804688 -134 265.299804688 -188 c 128,-1,9
 226.799804688 -242 226.799804688 -242 150.799804688 -242 c 0,10,11
 98 -242 98 -242 54 -211 c 1,12,-1
 54 -173 l 1,13,14
 81.2001953125 -190 81.2001953125 -190 102.799804688 -198.5 c 128,-1,15
 124.400390625 -207 124.400390625 -207 150.799804688 -207 c 0,16,17
 208.400390625 -207 208.400390625 -207 237.599609375 -166 c 128,-1,18
 266.799804688 -125 266.799804688 -125 266.799804688 -33 c 2,19,-1
 266.799804688 8 l 2,20,21
 266.799804688 30 266.799804688 30 267.299804688 52.5 c 128,-1,22
 267.799804688 75 267.799804688 75 269.799804688 104 c 1,23,-1
 266.799804688 104 l 1,24,25
 255.599609375 54 255.599609375 54 230 22 c 128,-1,26
 204.400390625 -10 204.400390625 -10 163.599609375 -10 c 0,27,28
 106.799804688 -10 106.799804688 -10 71.400390625 57 c 128,-1,29
 36 124 36 124 36 263 c 0,30,31
 36 394 36 394 70.2001953125 466.5 c 128,-1,32
 104.400390625 539 104.400390625 539 168.400390625 539 c 0,0,1
171.599609375 504 m 0,33,34
 118 504 118 504 96 438 c 128,-1,35
 74 372 74 372 74 263 c 0,36,37
 74 140 74 140 97.599609375 82 c 128,-1,38
 121.200195312 24 121.200195312 24 167.599609375 24 c 0,39,40
 202.799804688 24 202.799804688 24 224.799804688 53.5 c 128,-1,41
 246.799804688 83 246.799804688 83 256.799804688 129.5 c 128,-1,42
 266.799804688 176 266.799804688 176 266.799804688 226 c 2,43,-1
 266.799804688 317 l 2,44,45
 266.799804688 370 266.799804688 370 257.200195312 412.5 c 128,-1,46
 247.599609375 455 247.599609375 455 226.799804688 479.5 c 128,-1,47
 206 504 206 504 171.599609375 504 c 0,33,34
EndSplineSet
Substitution2: "'smcp' Lowercase to Small Capitals lookup 34 subtable" g.sc
EndChar

StartChar: h
Encoding: 104 104 75
Width: 363
GlyphClass: 2
Flags: W
AnchorPoint: "Anchor-3" 344 759 basechar 0
AnchorPoint: "Anchor-2" 88 760 basechar 0
AnchorPoint: "Anchor-1" 209 265 basechar 0
AnchorPoint: "Anchor-0" 210 0 basechar 0
LayerCount: 2
Fore
SplineSet
93 760 m 1,0,-1
 93 503 l 2,1,2
 93 480 93 480 92.5 464.5 c 128,-1,3
 92 449 92 449 90 432 c 1,4,-1
 93 432 l 1,5,6
 100.200195312 458 100.200195312 458 112.599609375 482.5 c 128,-1,7
 125 507 125 507 144.599609375 523 c 128,-1,8
 164.200195312 539 164.200195312 539 193 539 c 0,9,10
 294.799804688 539 294.799804688 539 294.799804688 366 c 2,11,-1
 294.799804688 0 l 1,12,-1
 257.799804688 0 l 1,13,-1
 257.799804688 358 l 2,14,15
 257.799804688 438 257.799804688 438 239 471 c 128,-1,16
 220.200195312 504 220.200195312 504 189 504 c 0,17,18
 149.799804688 504 149.799804688 504 121.400390625 454 c 128,-1,19
 93 404 93 404 93 294 c 2,20,-1
 93 0 l 1,21,-1
 56 0 l 1,22,-1
 56 760 l 1,23,-1
 93 760 l 1,0,-1
EndSplineSet
Substitution2: "'smcp' Lowercase to Small Capitals lookup 34 subtable" h.sc
Substitution2: "'subs' Subscript lookup 18 subtable" uni2095
EndChar

StartChar: i
Encoding: 105 105 76
Width: 172
GlyphClass: 2
Flags: W
AnchorPoint: "Anchor-3" 164 727 basechar 0
AnchorPoint: "Anchor-2" 92 727 basechar 0
AnchorPoint: "Anchor-0" 93 0 basechar 0
LayerCount: 2
Fore
SplineSet
81.2001953125 727 m 256,0,1
 97.2001953125 727 97.2001953125 727 104.200195312 715.5 c 128,-1,2
 111.200195312 704 111.200195312 704 111.200195312 689 c 0,3,4
 111.200195312 650 111.200195312 650 80.2001953125 650 c 0,5,6
 66.2001953125 650 66.2001953125 650 58.7001953125 661 c 128,-1,7
 51.2001953125 672 51.2001953125 672 51.2001953125 688 c 256,8,9
 51.2001953125 704 51.2001953125 704 58.2001953125 715.5 c 128,-1,10
 65.2001953125 727 65.2001953125 727 81.2001953125 727 c 256,0,1
99.2001953125 529 m 1,11,-1
 99.2001953125 0 l 1,12,-1
 62.2001953125 0 l 1,13,-1
 62.2001953125 529 l 1,14,-1
 99.2001953125 529 l 1,11,-1
EndSplineSet
Substitution2: "'smcp' Lowercase to Small Capitals lookup 34 subtable" i.sc
Substitution2: "Single Substitution lookup 5 subtable" dotlessi
Substitution2: "Single Substitution lookup 4 subtable" dotlessi
EndChar

StartChar: j
Encoding: 106 106 77
Width: 171
GlyphClass: 2
Flags: W
AnchorPoint: "Anchor-3" 164 727 basechar 0
AnchorPoint: "Anchor-2" 92 727 basechar 0
AnchorPoint: "Anchor-0" 30 -242 basechar 0
LayerCount: 2
Fore
SplineSet
63.7998046875 688 m 256,0,1
 63.7998046875 704 63.7998046875 704 70.2998046875 715.5 c 128,-1,2
 76.7998046875 727 76.7998046875 727 93.7998046875 727 c 256,3,4
 110.799804688 727 110.799804688 727 117.299804688 715.5 c 128,-1,5
 123.799804688 704 123.799804688 704 123.799804688 689 c 0,6,7
 123.799804688 650 123.799804688 650 93.7998046875 650 c 0,8,9
 78.7998046875 650 78.7998046875 650 71.2998046875 661 c 128,-1,10
 63.7998046875 672 63.7998046875 672 63.7998046875 688 c 256,0,1
29.7998046875 -242 m 0,11,12
 8.7998046875 -242 8.7998046875 -242 -3.2001953125 -235 c 1,13,-1
 -3.2001953125 -199 l 1,14,15
 10.7998046875 -206 10.7998046875 -206 25.7998046875 -206 c 0,16,17
 51.7998046875 -206 51.7998046875 -206 62.2998046875 -182.5 c 128,-1,18
 72.7998046875 -159 72.7998046875 -159 72.7998046875 -110 c 2,19,-1
 72.7998046875 529 l 1,20,-1
 109.799804688 529 l 1,21,-1
 109.799804688 -116 l 2,22,23
 109.799804688 -187 109.799804688 -187 87.7998046875 -214 c 128,-1,24
 65.7998046875 -241 65.7998046875 -241 29.7998046875 -242 c 0,11,12
EndSplineSet
Substitution2: "'smcp' Lowercase to Small Capitals lookup 34 subtable" j.sc
Substitution2: "Single Substitution lookup 5 subtable" uni0237
Substitution2: "Single Substitution lookup 4 subtable" uni0237
EndChar

StartChar: k
Encoding: 107 107 78
Width: 300
GlyphClass: 2
Flags: W
AnchorPoint: "Anchor-3" 322 760 basechar 0
AnchorPoint: "Anchor-2" 88 760 basechar 0
AnchorPoint: "Anchor-0" 173 0 basechar 0
LayerCount: 2
Fore
SplineSet
93 760 m 1,0,-1
 93 365 l 2,1,2
 93 331 93 331 92.5 302.5 c 128,-1,3
 92 274 92 274 91 242 c 1,4,-1
 93 242 l 1,5,6
 100.200195312 258 100.200195312 258 105.400390625 270 c 128,-1,7
 110.599609375 282 110.599609375 282 117.799804688 296 c 2,8,-1
 232.200195312 529 l 1,9,-1
 269.599609375 529 l 1,10,-1
 166.599609375 329 l 1,11,-1
 281.599609375 0 l 1,12,-1
 242.599609375 0 l 1,13,-1
 146.599609375 296 l 1,14,-1
 93 197 l 1,15,-1
 93 0 l 1,16,-1
 56 0 l 1,17,-1
 56 760 l 1,18,-1
 93 760 l 1,0,-1
EndSplineSet
Substitution2: "'smcp' Lowercase to Small Capitals lookup 34 subtable" k.sc
Substitution2: "'subs' Subscript lookup 18 subtable" uni2096
EndChar

StartChar: l
Encoding: 108 108 79
Width: 162
GlyphClass: 2
Flags: W
AnchorPoint: "Anchor-3" 128 760 basechar 0
AnchorPoint: "Anchor-2" 88 760 basechar 0
AnchorPoint: "Anchor-1" 88 265 basechar 0
AnchorPoint: "Anchor-0" 88 0 basechar 0
LayerCount: 2
Fore
SplineSet
93 0 m 1,0,-1
 56 0 l 1,1,-1
 56 760 l 1,2,-1
 93 760 l 1,3,-1
 93 0 l 1,0,-1
EndSplineSet
Substitution2: "'smcp' Lowercase to Small Capitals lookup 34 subtable" l.sc
Substitution2: "'subs' Subscript lookup 18 subtable" uni2097
EndChar

StartChar: m
Encoding: 109 109 80
Width: 534
GlyphClass: 2
Flags: W
AnchorPoint: "Anchor-3" 599 529 basechar 0
AnchorPoint: "Anchor-2" 314 529 basechar 0
AnchorPoint: "Anchor-0" 313 0 basechar 0
LayerCount: 2
Fore
SplineSet
368.400390625 539 m 0,0,1
 411.599609375 539 411.599609375 539 438.900390625 498.5 c 128,-1,2
 466.200195312 458 466.200195312 458 466.200195312 371 c 2,3,-1
 466.200195312 0 l 1,4,-1
 429.200195312 0 l 1,5,-1
 429.200195312 367 l 2,6,7
 429.200195312 442 429.200195312 442 410.799804688 473.5 c 128,-1,8
 392.400390625 505 392.400390625 505 364.400390625 505 c 0,9,10
 325.200195312 505 325.200195312 505 302.799804688 458.5 c 128,-1,11
 280.400390625 412 280.400390625 412 280.400390625 332 c 2,12,-1
 280.400390625 0 l 1,13,-1
 243.400390625 0 l 1,14,-1
 243.400390625 354 l 2,15,16
 243.400390625 442 243.400390625 442 225 473.5 c 128,-1,17
 206.599609375 505 206.599609375 505 178.599609375 505 c 0,18,19
 148.200195312 505 148.200195312 505 129.400390625 479 c 128,-1,20
 110.599609375 453 110.599609375 453 101.799804688 412.5 c 128,-1,21
 93 372 93 372 93 326 c 2,22,-1
 93 0 l 1,23,-1
 56 0 l 1,24,-1
 56 529 l 1,25,-1
 84 529 l 1,26,-1
 88 435 l 1,27,-1
 91 435 l 1,28,29
 97.7998046875 459 97.7998046875 459 108.200195312 483 c 128,-1,30
 118.599609375 507 118.599609375 507 136.599609375 523 c 128,-1,31
 154.599609375 539 154.599609375 539 182.599609375 539 c 0,32,33
 222.599609375 539 222.599609375 539 243.5 508.5 c 128,-1,34
 264.400390625 478 264.400390625 478 270.400390625 437 c 1,35,-1
 273.400390625 437 l 1,36,37
 287.599609375 482 287.599609375 482 308.400390625 510.5 c 128,-1,38
 329.200195312 539 329.200195312 539 368.400390625 539 c 0,0,1
EndSplineSet
Substitution2: "'smcp' Lowercase to Small Capitals lookup 34 subtable" m.sc
Substitution2: "'subs' Subscript lookup 18 subtable" uni2098
EndChar

StartChar: n
Encoding: 110 110 81
Width: 363
GlyphClass: 2
Flags: W
AnchorPoint: "Anchor-3" 394 529 basechar 0
AnchorPoint: "Anchor-2" 210 529 basechar 0
AnchorPoint: "Anchor-0" 209 0 basechar 0
LayerCount: 2
Fore
SplineSet
193.799804688 539 m 0,0,1
 238.599609375 539 238.599609375 539 266.700195312 499 c 128,-1,2
 294.799804688 459 294.799804688 459 294.799804688 373 c 2,3,-1
 294.799804688 0 l 1,4,-1
 257.799804688 0 l 1,5,-1
 257.799804688 362 l 2,6,7
 257.799804688 438 257.799804688 438 240.200195312 471.5 c 128,-1,8
 222.599609375 505 222.599609375 505 190.599609375 505 c 0,9,10
 149 505 149 505 121 455 c 128,-1,11
 93 405 93 405 93 304 c 2,12,-1
 93 0 l 1,13,-1
 56 0 l 1,14,-1
 56 529 l 1,15,-1
 85 529 l 1,16,-1
 88 425 l 1,17,-1
 90 425 l 1,18,19
 97 454 97 454 109.799804688 480 c 128,-1,20
 122.599609375 506 122.599609375 506 143.400390625 522.5 c 128,-1,21
 164.200195312 539 164.200195312 539 193.799804688 539 c 0,0,1
EndSplineSet
Substitution2: "'smcp' Lowercase to Small Capitals lookup 34 subtable" n.sc
Substitution2: "'sups' Superscript lookup 19 subtable" nsuperior
Substitution2: "'subs' Subscript lookup 18 subtable" uni2099
EndChar

StartChar: o
Encoding: 111 111 82
Width: 353
GlyphClass: 2
Flags: W
AnchorPoint: "Anchor-3" 392 529 basechar 0
AnchorPoint: "Anchor-2" 206 529 basechar 0
AnchorPoint: "Anchor-1" 206 265 basechar 0
AnchorPoint: "Anchor-0" 206 0 basechar 0
LayerCount: 2
Fore
SplineSet
307.799804688 265 m 0,0,1
 307.799804688 -10 307.799804688 -10 173.200195312 -10 c 0,2,3
 36 -10 36 -10 36 267 c 0,4,5
 36 400 36 400 71.400390625 469.5 c 128,-1,6
 106.799804688 539 106.799804688 539 172.400390625 539 c 0,7,8
 240.400390625 539 240.400390625 539 274.099609375 466.5 c 128,-1,9
 307.799804688 394 307.799804688 394 307.799804688 265 c 0,0,1
74 267 m 0,10,11
 74 148 74 148 98 86 c 128,-1,12
 122 24 122 24 173.200195312 24 c 0,13,14
 223.599609375 24 223.599609375 24 247.200195312 83 c 128,-1,15
 270.799804688 142 270.799804688 142 270.799804688 266 c 0,16,17
 270.799804688 378 270.799804688 378 248.799804688 441.5 c 128,-1,18
 226.799804688 505 226.799804688 505 172.400390625 505 c 0,19,20
 120.400390625 505 120.400390625 505 97.2001953125 443.5 c 128,-1,21
 74 382 74 382 74 267 c 0,10,11
EndSplineSet
Substitution2: "'smcp' Lowercase to Small Capitals lookup 34 subtable" o.sc
Substitution2: "Single Substitution lookup 28 subtable" ordmasculine
EndChar

StartChar: p
Encoding: 112 112 83
Width: 422
GlyphClass: 2
Flags: W
AnchorPoint: "Anchor-3" 411 529 basechar 0
AnchorPoint: "Anchor-2" 220 529 basechar 0
AnchorPoint: "Anchor-0" 88 -234 basechar 0
LayerCount: 2
Fore
SplineSet
221 539 m 0,0,1
 295 539 295 539 334 472.5 c 128,-1,2
 373 406 373 406 373 270 c 0,3,4
 373 126 373 126 331.5 58 c 128,-1,5
 290 -10 290 -10 220 -10 c 0,6,7
 183 -10 183 -10 157.5 6 c 128,-1,8
 132 22 132 22 117 47.5 c 128,-1,9
 102 73 102 73 94 100 c 1,10,-1
 91 100 l 1,11,12
 92 89 92 89 92.5 70.5 c 128,-1,13
 93 52 93 52 93 29 c 2,14,-1
 93 -234 l 1,15,-1
 56 -234 l 1,16,-1
 56 529 l 1,17,-1
 84 529 l 1,18,-1
 87 416 l 1,19,-1
 90 416 l 1,20,21
 100 449 100 449 115.5 477 c 128,-1,22
 131 505 131 505 156.5 522 c 128,-1,23
 182 539 182 539 221 539 c 0,0,1
217 505 m 0,24,25
 178 505 178 505 150 477.5 c 128,-1,26
 122 450 122 450 107.5 402 c 128,-1,27
 93 354 93 354 93 291 c 2,28,-1
 93 228 l 2,29,30
 93 134 93 134 127 79 c 128,-1,31
 161 24 161 24 216 24 c 0,32,33
 250 24 250 24 277 48 c 128,-1,34
 304 72 304 72 320 126 c 128,-1,35
 336 180 336 180 336 270 c 0,36,37
 336 383 336 383 307 444 c 128,-1,38
 278 505 278 505 217 505 c 0,24,25
EndSplineSet
Substitution2: "'smcp' Lowercase to Small Capitals lookup 34 subtable" p.sc
Substitution2: "'subs' Subscript lookup 18 subtable" uni209A
EndChar

StartChar: q
Encoding: 113 113 84
Width: 368
GlyphClass: 2
Flags: W
AnchorPoint: "Anchor-3" 406 529 basechar 0
AnchorPoint: "Anchor-2" 215 529 basechar 0
AnchorPoint: "Anchor-0" 343 -234 basechar 0
LayerCount: 2
Fore
SplineSet
266.799804688 -234 m 1,0,-1
 266.799804688 20 l 2,1,2
 266.799804688 33 266.799804688 33 267.799804688 56.5 c 128,-1,3
 268.799804688 80 268.799804688 80 269.799804688 103 c 1,4,-1
 266.799804688 103 l 1,5,6
 254 53 254 53 230 21.5 c 128,-1,7
 206 -10 206 -10 166 -10 c 0,8,9
 106.799804688 -10 106.799804688 -10 71.400390625 58.5 c 128,-1,10
 36 127 36 127 36 260 c 0,11,12
 36 394 36 394 72.2001953125 466.5 c 128,-1,13
 108.400390625 539 108.400390625 539 169.200195312 539 c 0,14,15
 209.200195312 539 209.200195312 539 233.599609375 509.5 c 128,-1,16
 258 480 258 480 267.799804688 435 c 1,17,-1
 269.799804688 435 l 1,18,-1
 274.799804688 529 l 1,19,-1
 303.799804688 529 l 1,20,-1
 303.799804688 -234 l 1,21,-1
 266.799804688 -234 l 1,0,-1
169.200195312 24 m 0,22,23
 214 24 214 24 240.400390625 78.5 c 128,-1,24
 266.799804688 133 266.799804688 133 266.799804688 220 c 2,25,-1
 266.799804688 312 l 2,26,27
 266.799804688 402 266.799804688 402 242 453 c 128,-1,28
 217.200195312 504 217.200195312 504 172.400390625 504 c 0,29,30
 122.799804688 504 122.799804688 504 98.400390625 440 c 128,-1,31
 74 376 74 376 74 260 c 0,32,33
 74 138 74 138 100.799804688 81 c 128,-1,34
 127.599609375 24 127.599609375 24 169.200195312 24 c 0,22,23
EndSplineSet
Substitution2: "'smcp' Lowercase to Small Capitals lookup 34 subtable" q.sc
EndChar

StartChar: r
Encoding: 114 114 85
Width: 269
GlyphClass: 2
Flags: W
AnchorPoint: "Anchor-3" 251 529 basechar 0
AnchorPoint: "Anchor-2" 140 529 basechar 0
AnchorPoint: "Anchor-0" 89 0 basechar 0
LayerCount: 2
Fore
SplineSet
202 537 m 0,0,1
 212 537 212 537 224.5 535 c 128,-1,2
 237 533 237 533 248 527 c 1,3,-1
 239 491 l 1,4,5
 232 494 232 494 222 497 c 128,-1,6
 212 500 212 500 201 500 c 0,7,8
 175 500 175 500 154.5 480 c 128,-1,9
 134 460 134 460 120.5 427.5 c 128,-1,10
 107 395 107 395 100 356 c 128,-1,11
 93 317 93 317 93 278 c 2,12,-1
 93 0 l 1,13,-1
 56 0 l 1,14,-1
 56 529 l 1,15,-1
 85 529 l 1,16,-1
 91 416 l 1,17,-1
 93 416 l 1,18,19
 102 444 102 444 115 471.5 c 128,-1,20
 128 499 128 499 149 518 c 128,-1,21
 170 537 170 537 202 537 c 0,0,1
EndSplineSet
Substitution2: "'smcp' Lowercase to Small Capitals lookup 34 subtable" r.sc
EndChar

StartChar: s
Encoding: 115 115 86
Width: 310
GlyphClass: 2
Flags: W
AnchorPoint: "Anchor-3" 295 529 basechar 0
AnchorPoint: "Anchor-2" 161 529 basechar 0
AnchorPoint: "Anchor-0" 156 0 basechar 0
LayerCount: 2
Fore
SplineSet
277 127 m 0,0,1
 277 64 277 64 243 27 c 128,-1,2
 209 -10 209 -10 142 -10 c 0,3,4
 105 -10 105 -10 76 -0.5 c 128,-1,5
 47 9 47 9 28 21 c 1,6,-1
 28 63 l 1,7,8
 50 46 50 46 79.5 36 c 128,-1,9
 109 26 109 26 141 26 c 0,10,11
 190 26 190 26 214.5 52.5 c 128,-1,12
 239 79 239 79 239 128 c 0,13,14
 239 160 239 160 228.5 181 c 128,-1,15
 218 202 218 202 197.5 218 c 128,-1,16
 177 234 177 234 148 252 c 0,17,18
 114 272 114 272 88 293 c 128,-1,19
 62 314 62 314 46.5 341 c 128,-1,20
 31 368 31 368 31 408 c 0,21,22
 31 463 31 463 65.5 501 c 128,-1,23
 100 539 100 539 170 539 c 0,24,25
 231 539 231 539 274 510 c 1,26,-1
 258 479 l 1,27,28
 221 505 221 505 169 505 c 0,29,30
 123 505 123 505 95 479.5 c 128,-1,31
 67 454 67 454 67 407 c 0,32,33
 67 366 67 366 90.5 340.5 c 128,-1,34
 114 315 114 315 162 285 c 0,35,36
 195 264 195 264 221 244.5 c 128,-1,37
 247 225 247 225 262 197.5 c 128,-1,38
 277 170 277 170 277 127 c 0,0,1
EndSplineSet
Substitution2: "'smcp' Lowercase to Small Capitals lookup 34 subtable" s.sc
Substitution2: "'subs' Subscript lookup 18 subtable" uni209B
EndChar

StartChar: t
Encoding: 116 116 87
Width: 216
GlyphClass: 2
Flags: W
AnchorPoint: "Anchor-3" 199 656 basechar 0
AnchorPoint: "Anchor-2" 92 656 basechar 0
AnchorPoint: "Anchor-1" 110 265 basechar 0
AnchorPoint: "Anchor-0" 139 0 basechar 0
LayerCount: 2
Fore
SplineSet
153 24 m 0,0,1
 166 24 166 24 178.5 27 c 128,-1,2
 191 30 191 30 199 35 c 1,3,-1
 199 1 l 1,4,5
 188 -4 188 -4 175.5 -7 c 128,-1,6
 163 -10 163 -10 147 -10 c 0,7,8
 100 -10 100 -10 83 22 c 128,-1,9
 66 54 66 54 66 116 c 2,10,-1
 66 496 l 1,11,-1
 16 496 l 1,12,-1
 16 519 l 1,13,-1
 65 529 l 1,14,-1
 75 656 l 1,15,-1
 103 656 l 1,16,-1
 103 529 l 1,17,-1
 201 529 l 1,18,-1
 201 496 l 1,19,-1
 103 496 l 1,20,-1
 103 115 l 2,21,22
 103 68 103 68 113 46 c 128,-1,23
 123 24 123 24 153 24 c 0,0,1
EndSplineSet
Substitution2: "'smcp' Lowercase to Small Capitals lookup 34 subtable" t.sc
Substitution2: "'subs' Subscript lookup 18 subtable" uni209C
EndChar

StartChar: u
Encoding: 117 117 88
Width: 362
GlyphClass: 2
Flags: W
AnchorPoint: "Anchor-3" 393 529 basechar 0
AnchorPoint: "Anchor-2" 209 529 basechar 0
AnchorPoint: "Anchor-0" 207 0 basechar 0
LayerCount: 2
Fore
SplineSet
293.200195312 529 m 1,0,-1
 293.200195312 0 l 1,1,-1
 264.200195312 0 l 1,2,-1
 261.200195312 104 l 1,3,-1
 258.200195312 104 l 1,4,5
 252.200195312 76 252.200195312 76 240.200195312 49.5 c 128,-1,6
 228.200195312 23 228.200195312 23 207.400390625 6.5 c 128,-1,7
 186.599609375 -10 186.599609375 -10 155.400390625 -10 c 0,8,9
 106.599609375 -10 106.599609375 -10 80.5 34 c 128,-1,10
 54.400390625 78 54.400390625 78 54.400390625 165 c 2,11,-1
 54.400390625 529 l 1,12,-1
 91.400390625 529 l 1,13,-1
 91.400390625 174 l 2,14,15
 91.400390625 96 91.400390625 96 109 60.5 c 128,-1,16
 126.599609375 25 126.599609375 25 159.400390625 25 c 0,17,18
 205 25 205 25 230.599609375 75.5 c 128,-1,19
 256.200195312 126 256.200195312 126 256.200195312 233 c 2,20,-1
 256.200195312 529 l 1,21,-1
 293.200195312 529 l 1,0,-1
EndSplineSet
Substitution2: "'smcp' Lowercase to Small Capitals lookup 34 subtable" u.sc
EndChar

StartChar: v
Encoding: 118 118 89
Width: 308
GlyphClass: 2
Flags: W
AnchorPoint: "Anchor-3" 289 529 basechar 0
AnchorPoint: "Anchor-2" 155 529 basechar 0
AnchorPoint: "Anchor-0" 155 0 basechar 0
LayerCount: 2
Fore
SplineSet
131 0 m 1,0,-1
 4 529 l 1,1,-1
 42 529 l 1,2,-1
 126 165 l 2,3,4
 133 137 133 137 139.5 107.5 c 128,-1,5
 146 78 146 78 151 47 c 1,6,-1
 154 47 l 1,7,8
 165 102 165 102 178 161 c 2,9,-1
 264 529 l 1,10,-1
 303 529 l 1,11,-1
 174 0 l 1,12,-1
 131 0 l 1,0,-1
EndSplineSet
Substitution2: "'smcp' Lowercase to Small Capitals lookup 34 subtable" v.sc
EndChar

StartChar: w
Encoding: 119 119 90
Width: 489
GlyphClass: 2
Flags: W
AnchorPoint: "Anchor-3" 511 529 basechar 0
AnchorPoint: "Anchor-2" 265 529 basechar 0
AnchorPoint: "Anchor-0" 265 0 basechar 0
LayerCount: 2
Fore
SplineSet
323.799804688 0 m 1,0,-1
 261.400390625 377 l 2,1,2
 257.400390625 402 257.400390625 402 253.799804688 426.5 c 128,-1,3
 250.200195312 451 250.200195312 451 247 474 c 1,4,-1
 246.200195312 474 l 1,5,6
 243 451 243 451 239.400390625 426 c 128,-1,7
 235.799804688 401 235.799804688 401 231.799804688 377 c 2,8,-1
 167 0 l 1,9,-1
 125 0 l 1,10,-1
 8 529 l 1,11,-1
 44 529 l 1,12,-1
 121 180 l 1,13,14
 134 116 134 116 146 58 c 1,15,-1
 148 58 l 1,16,17
 151 80 151 80 157.5 116 c 128,-1,18
 164 152 164 152 170.200195312 184 c 2,19,-1
 230.200195312 529 l 1,20,-1
 263 529 l 1,21,-1
 322.200195312 178 l 2,22,23
 327.799804688 151 327.799804688 151 333.299804688 120 c 128,-1,24
 338.799804688 89 338.799804688 89 343.799804688 57 c 1,25,-1
 345.799804688 57 l 1,26,27
 349.799804688 83 349.799804688 83 352.299804688 99.5 c 128,-1,28
 354.799804688 116 354.799804688 116 357.799804688 130 c 128,-1,29
 360.799804688 144 360.799804688 144 364.799804688 163 c 2,30,-1
 443.799804688 529 l 1,31,-1
 479.799804688 529 l 1,32,-1
 363.799804688 0 l 1,33,-1
 323.799804688 0 l 1,0,-1
EndSplineSet
Substitution2: "'smcp' Lowercase to Small Capitals lookup 34 subtable" w.sc
EndChar

StartChar: x
Encoding: 120 120 91
Width: 280
GlyphClass: 2
Flags: W
AnchorPoint: "Anchor-3" 306 529 basechar 0
AnchorPoint: "Anchor-2" 164 529 basechar 0
AnchorPoint: "Anchor-0" 163 0 basechar 0
LayerCount: 2
Fore
SplineSet
122.599609375 273 m 1,0,-1
 22.7998046875 529 l 1,1,-1
 61.7998046875 529 l 1,2,-1
 140.200195312 304 l 1,3,-1
 220.200195312 529 l 1,4,-1
 260.400390625 529 l 1,5,-1
 157.799804688 271 l 1,6,-1
 264.400390625 0 l 1,7,-1
 223.400390625 0 l 1,8,-1
 139.400390625 239 l 1,9,-1
 53.7998046875 0 l 1,10,-1
 12.7998046875 0 l 1,11,-1
 122.599609375 273 l 1,0,-1
EndSplineSet
Substitution2: "'smcp' Lowercase to Small Capitals lookup 34 subtable" x.sc
EndChar

StartChar: y
Encoding: 121 121 92
Width: 325
GlyphClass: 2
Flags: W
AnchorPoint: "Anchor-3" 307 529 basechar 0
AnchorPoint: "Anchor-2" 163 529 basechar 0
AnchorPoint: "Anchor-0" 50 -242 basechar 0
LayerCount: 2
Fore
SplineSet
16.7998046875 529 m 1,0,-1
 54.7998046875 529 l 1,1,-1
 145.799804688 159 l 2,2,3
 153.799804688 130 153.799804688 130 156.799804688 114 c 128,-1,4
 159.799804688 98 159.799804688 98 160.799804688 89 c 128,-1,5
 161.799804688 80 161.799804688 80 163.799804688 70 c 1,6,-1
 166.799804688 70 l 1,7,8
 171.799804688 99 171.799804688 99 176.799804688 119.5 c 128,-1,9
 181.799804688 140 181.799804688 140 186.799804688 160 c 2,10,-1
 278.799804688 529 l 1,11,-1
 315.799804688 529 l 1,12,-1
 152.799804688 -116 l 2,13,14
 135.799804688 -186 135.799804688 -186 109.299804688 -214 c 128,-1,15
 82.7998046875 -242 82.7998046875 -242 46.7998046875 -242 c 0,16,17
 35.7998046875 -242 35.7998046875 -242 27.2998046875 -240 c 128,-1,18
 18.7998046875 -238 18.7998046875 -238 8.7998046875 -234 c 1,19,-1
 8.7998046875 -197 l 1,20,21
 26.7998046875 -206 26.7998046875 -206 44.7998046875 -206 c 0,22,23
 64.7998046875 -206 64.7998046875 -206 83.2998046875 -186.5 c 128,-1,24
 101.799804688 -167 101.799804688 -167 116.799804688 -110 c 2,25,-1
 146.799804688 11 l 1,26,-1
 16.7998046875 529 l 1,0,-1
EndSplineSet
Substitution2: "'smcp' Lowercase to Small Capitals lookup 34 subtable" y.sc
EndChar

StartChar: z
Encoding: 122 122 93
Width: 262
GlyphClass: 2
Flags: W
AnchorPoint: "Anchor-3" 247 529 basechar 0
AnchorPoint: "Anchor-2" 135 529 basechar 0
AnchorPoint: "Anchor-0" 135 0 basechar 0
LayerCount: 2
Fore
SplineSet
239.400390625 0 m 1,0,-1
 22.400390625 0 l 1,1,-1
 22.400390625 30 l 1,2,-1
 195.400390625 495 l 1,3,-1
 35.400390625 495 l 1,4,-1
 35.400390625 529 l 1,5,-1
 235.400390625 529 l 1,6,-1
 235.400390625 499 l 1,7,-1
 62.400390625 34 l 1,8,-1
 239.400390625 34 l 1,9,-1
 239.400390625 0 l 1,0,-1
EndSplineSet
Substitution2: "'smcp' Lowercase to Small Capitals lookup 34 subtable" z.sc
EndChar

StartChar: braceleft
Encoding: 123 123 94
Width: 339
Flags: W
LayerCount: 2
Fore
SplineSet
290 -159 m 1,0,1
 213 -158 213 -158 176 -126.5 c 128,-1,2
 139 -95 139 -95 139 -15 c 2,3,-1
 139 148 l 2,4,5
 139 217 139 217 116 239 c 128,-1,6
 93 261 93 261 40 262 c 1,7,-1
 40 294 l 1,8,9
 75 294 75 294 97 303 c 128,-1,10
 119 312 119 312 129 336 c 128,-1,11
 139 360 139 360 139 405 c 2,12,-1
 139 573 l 2,13,14
 139 651 139 651 175.5 682.5 c 128,-1,15
 212 714 212 714 290 715 c 1,16,-1
 290 681 l 1,17,18
 228 681 228 681 202.5 656 c 128,-1,19
 177 631 177 631 177 565 c 2,20,-1
 177 395 l 2,21,22
 177 340 177 340 159.5 313.5 c 128,-1,23
 142 287 142 287 104 278 c 1,24,-1
 104 277 l 1,25,26
 143 269 143 269 160 241.5 c 128,-1,27
 177 214 177 214 177 158 c 2,28,-1
 177 -9 l 2,29,30
 177 -75 177 -75 202.5 -100 c 128,-1,31
 228 -125 228 -125 290 -125 c 1,32,-1
 290 -159 l 1,0,1
EndSplineSet
Substitution2: "'smcp' Lowercase to Small Capitals lookup 34 subtable" braceleft.sc
Substitution2: "'c2sc' Capitals to Small Capitals lookup 33 subtable" braceleft.sc
EndChar

StartChar: bar
Encoding: 124 124 95
Width: 348
Flags: W
LayerCount: 2
Fore
SplineSet
139.200195312 761 m 1,0,-1
 175.200195312 761 l 1,1,-1
 175.200195312 -241 l 1,2,-1
 139.200195312 -241 l 1,3,-1
 139.200195312 761 l 1,0,-1
EndSplineSet
EndChar

StartChar: braceright
Encoding: 125 125 96
Width: 338
Flags: W
LayerCount: 2
Fore
SplineSet
38.400390625 -159 m 1,0,-1
 38.400390625 -125 l 1,1,2
 101.400390625 -125 101.400390625 -125 126.900390625 -100 c 128,-1,3
 152.400390625 -75 152.400390625 -75 152.400390625 -9 c 2,4,-1
 152.400390625 158 l 2,5,6
 152.400390625 215 152.400390625 215 169.400390625 242 c 128,-1,7
 186.400390625 269 186.400390625 269 224.400390625 277 c 1,8,-1
 224.400390625 278 l 1,9,10
 186.400390625 287 186.400390625 287 169.400390625 313.5 c 128,-1,11
 152.400390625 340 152.400390625 340 152.400390625 395 c 2,12,-1
 152.400390625 565 l 2,13,14
 152.400390625 631 152.400390625 631 126.400390625 656 c 128,-1,15
 100.400390625 681 100.400390625 681 38.400390625 681 c 1,16,-1
 38.400390625 715 l 1,17,18
 115.400390625 714 115.400390625 714 152.400390625 683 c 128,-1,19
 189.400390625 652 189.400390625 652 189.400390625 573 c 2,20,-1
 189.400390625 405 l 2,21,22
 189.400390625 338 189.400390625 338 211.900390625 316.5 c 128,-1,23
 234.400390625 295 234.400390625 295 288.400390625 294 c 1,24,-1
 288.400390625 262 l 1,25,26
 253.400390625 262 253.400390625 262 231.400390625 252.5 c 128,-1,27
 209.400390625 243 209.400390625 243 199.400390625 218.5 c 128,-1,28
 189.400390625 194 189.400390625 194 189.400390625 148 c 2,29,-1
 189.400390625 -15 l 2,30,31
 189.400390625 -94 189.400390625 -94 153.400390625 -126 c 128,-1,32
 117.400390625 -158 117.400390625 -158 38.400390625 -159 c 1,0,-1
EndSplineSet
Substitution2: "'smcp' Lowercase to Small Capitals lookup 34 subtable" braceright.sc
Substitution2: "'c2sc' Capitals to Small Capitals lookup 33 subtable" braceright.sc
EndChar

StartChar: asciitilde
Encoding: 126 126 97
Width: 378
Flags: W
LayerCount: 2
Fore
SplineSet
186.400390625 336 m 0,0,1
 171.200195312 348 171.200195312 348 155.099609375 356.5 c 128,-1,2
 139 365 139 365 117 365 c 0,3,4
 66 365 66 365 24 311 c 1,5,-1
 24 353 l 1,6,7
 41 373 41 373 64.5 386 c 128,-1,8
 88 399 88 399 118 399 c 0,9,10
 144 399 144 399 160 390.5 c 128,-1,11
 176 382 176 382 192.799804688 369 c 0,12,13
 209.599609375 357 209.599609375 357 223.200195312 349.5 c 128,-1,14
 236.799804688 342 236.799804688 342 256.799804688 342 c 0,15,16
 280.799804688 342 280.799804688 342 305.299804688 355 c 128,-1,17
 329.799804688 368 329.799804688 368 348.799804688 393 c 1,18,-1
 348.799804688 351 l 1,19,20
 332.799804688 333 332.799804688 333 308.799804688 321 c 128,-1,21
 284.799804688 309 284.799804688 309 256.799804688 309 c 0,22,23
 231.799804688 309 231.799804688 309 216.700195312 317 c 128,-1,24
 201.599609375 325 201.599609375 325 186.400390625 336 c 0,0,1
EndSplineSet
EndChar

StartChar: exclamdown
Encoding: 161 161 99
Width: 188
Flags: W
LayerCount: 2
Fore
SplineSet
118.799804688 490 m 0,0,1
 118.799804688 446 118.799804688 446 86.7998046875 446 c 0,2,3
 56.7998046875 446 56.7998046875 446 56.7998046875 490 c 0,4,5
 56.7998046875 506 56.7998046875 506 62.7998046875 518 c 128,-1,6
 68.7998046875 530 68.7998046875 530 87.7998046875 530 c 0,7,8
 118.799804688 530 118.799804688 530 118.799804688 490 c 0,0,1
70.7998046875 346 m 1,9,-1
 100.799804688 346 l 1,10,-1
 108.799804688 -193 l 1,11,-1
 63.7998046875 -193 l 1,12,-1
 70.7998046875 346 l 1,9,-1
EndSplineSet
Substitution2: "'smcp' Lowercase to Small Capitals lookup 34 subtable" exclamdown.sc
Substitution2: "'c2sc' Capitals to Small Capitals lookup 33 subtable" exclamdown.sc
EndChar

StartChar: cent
Encoding: 162 162 100
Width: 399
Flags: W
LayerCount: 2
Fore
SplineSet
255 724 m 1,0,-1
 255 638 l 1,1,2
 274 637 274 637 291.5 632.5 c 128,-1,3
 309 628 309 628 323 620 c 1,4,-1
 310 588 l 1,5,6
 276 604 276 604 246 604 c 0,7,8
 170 604 170 604 136 537.5 c 128,-1,9
 102 471 102 471 102 359 c 0,10,11
 102 244 102 244 138.5 185 c 128,-1,12
 175 126 175 126 247 126 c 0,13,14
 268 126 268 126 286.5 131 c 128,-1,15
 305 136 305 136 323 144 c 1,16,-1
 323 108 l 1,17,18
 300 97 300 97 260 91 c 1,19,-1
 260 -10 l 1,20,-1
 229 -10 l 1,21,-1
 229 91 l 1,22,23
 146 99 146 99 105 167.5 c 128,-1,24
 64 236 64 236 64 359 c 0,25,26
 64 486 64 486 104.5 557.5 c 128,-1,27
 145 629 145 629 224 638 c 1,28,-1
 224 724 l 1,29,-1
 255 724 l 1,0,-1
EndSplineSet
EndChar

StartChar: sterling
Encoding: 163 163 101
Width: 387
Flags: W
LayerCount: 2
Fore
SplineSet
242.200195312 724 m 0,0,1
 299.200195312 724 299.200195312 724 339.200195312 687 c 1,2,-1
 320.200195312 658 l 1,3,4
 298.200195312 677 298.200195312 677 279.200195312 683 c 128,-1,5
 260.200195312 689 260.200195312 689 243.200195312 689 c 0,6,7
 194.200195312 689 194.200195312 689 171.200195312 653.5 c 128,-1,8
 148.200195312 618 148.200195312 618 148.200195312 540 c 2,9,-1
 148.200195312 371 l 1,10,-1
 270.200195312 371 l 1,11,-1
 270.200195312 338 l 1,12,-1
 148.200195312 338 l 1,13,-1
 148.200195312 184 l 2,14,15
 148.200195312 126 148.200195312 126 130.700195312 89 c 128,-1,16
 113.200195312 52 113.200195312 52 83.2001953125 35 c 1,17,-1
 348.200195312 35 l 1,18,-1
 348.200195312 0 l 1,19,-1
 33.2001953125 0 l 1,20,-1
 33.2001953125 33 l 1,21,22
 71.2001953125 47 71.2001953125 47 91.2001953125 83.5 c 128,-1,23
 111.200195312 120 111.200195312 120 111.200195312 188 c 2,24,-1
 111.200195312 338 l 1,25,-1
 31.2001953125 338 l 1,26,-1
 31.2001953125 371 l 1,27,-1
 111.200195312 371 l 1,28,-1
 111.200195312 546 l 2,29,30
 111.200195312 598 111.200195312 598 123.200195312 638 c 128,-1,31
 135.200195312 678 135.200195312 678 163.700195312 701 c 128,-1,32
 192.200195312 724 192.200195312 724 242.200195312 724 c 0,0,1
EndSplineSet
EndChar

StartChar: currency
Encoding: 164 164 102
Width: 483
Flags: W
LayerCount: 2
Fore
SplineSet
76 353 m 0,0,1
 76 388 76 388 87.5 421 c 128,-1,2
 99 454 99 454 118 479 c 1,3,-1
 48 553 l 1,4,-1
 68 573 l 1,5,-1
 134 500 l 1,6,7
 180.400390625 547 180.400390625 547 234.799804688 547 c 0,8,9
 261.200195312 547 261.200195312 547 286.799804688 536 c 128,-1,10
 312.400390625 525 312.400390625 525 335.599609375 502 c 1,11,-1
 400.799804688 572 l 1,12,-1
 422.799804688 552 l 1,13,-1
 353.200195312 480 l 1,14,15
 396.799804688 425 396.799804688 425 396.799804688 354 c 0,16,17
 396.799804688 322 396.799804688 322 386.299804688 288 c 128,-1,18
 375.799804688 254 375.799804688 254 354 225 c 1,19,-1
 423.799804688 153 l 1,20,-1
 402.799804688 133 l 1,21,-1
 336.400390625 204 l 1,22,23
 314.799804688 182 314.799804688 182 288 171.5 c 128,-1,24
 261.200195312 161 261.200195312 161 235.599609375 161 c 0,25,26
 208.400390625 161 208.400390625 161 182.400390625 172 c 128,-1,27
 156.400390625 183 156.400390625 183 134.799804688 206 c 1,28,-1
 69 134 l 1,29,-1
 49 155 l 1,30,-1
 118 227 l 1,31,32
 98 256 98 256 87 288 c 128,-1,33
 76 320 76 320 76 353 c 0,0,1
106 353 m 0,34,35
 106 303 106 303 123.599609375 266 c 128,-1,36
 141.200195312 229 141.200195312 229 170.799804688 209 c 128,-1,37
 200.400390625 189 200.400390625 189 236.400390625 189 c 0,38,39
 273.200195312 189 273.200195312 189 302.799804688 209.5 c 128,-1,40
 332.400390625 230 332.400390625 230 349.599609375 267 c 128,-1,41
 366.799804688 304 366.799804688 304 366.799804688 351 c 0,42,43
 366.799804688 400 366.799804688 400 348.799804688 438 c 128,-1,44
 330.799804688 476 330.799804688 476 300.799804688 497.5 c 128,-1,45
 270.799804688 519 270.799804688 519 235.599609375 519 c 0,46,47
 202 519 202 519 172.400390625 498.5 c 128,-1,48
 142.799804688 478 142.799804688 478 124.400390625 441 c 128,-1,49
 106 404 106 404 106 353 c 0,34,35
EndSplineSet
EndChar

StartChar: yen
Encoding: 165 165 103
Width: 391
Flags: W
LayerCount: 2
Fore
SplineSet
190.400390625 348 m 1,0,-1
 304.400390625 714 l 1,1,-1
 341.400390625 714 l 1,2,-1
 213.400390625 319 l 1,3,-1
 325.400390625 319 l 1,4,-1
 325.400390625 288 l 1,5,-1
 208.400390625 288 l 1,6,-1
 208.400390625 181 l 1,7,-1
 325.400390625 181 l 1,8,-1
 325.400390625 150 l 1,9,-1
 208.400390625 150 l 1,10,-1
 208.400390625 0 l 1,11,-1
 171.400390625 0 l 1,12,-1
 171.400390625 150 l 1,13,-1
 55.400390625 150 l 1,14,-1
 55.400390625 181 l 1,15,-1
 171.400390625 181 l 1,16,-1
 171.400390625 288 l 1,17,-1
 55.400390625 288 l 1,18,-1
 55.400390625 319 l 1,19,-1
 166.400390625 319 l 1,20,-1
 38.400390625 714 l 1,21,-1
 76.400390625 714 l 1,22,-1
 190.400390625 348 l 1,0,-1
EndSplineSet
EndChar

StartChar: brokenbar
Encoding: 166 166 104
Width: 348
Flags: W
LayerCount: 2
Fore
SplineSet
139.200195312 761 m 1,0,-1
 175.200195312 761 l 1,1,-1
 175.200195312 374 l 1,2,-1
 139.200195312 374 l 1,3,-1
 139.200195312 761 l 1,0,-1
139.200195312 145 m 1,4,-1
 175.200195312 145 l 1,5,-1
 175.200195312 -243 l 1,6,-1
 139.200195312 -243 l 1,7,-1
 139.200195312 145 l 1,4,-1
EndSplineSet
EndChar

StartChar: section
Encoding: 167 167 105
Width: 363
Flags: W
LayerCount: 2
Fore
SplineSet
39 414 m 256,0,1
 39 458 39 458 67.5 486 c 128,-1,2
 96 514 96 514 136.799804688 527 c 1,3,4
 96 552 96 552 70 580.5 c 128,-1,5
 44 609 44 609 44 651 c 0,6,7
 44 698 44 698 79.599609375 729 c 128,-1,8
 115.200195312 760 115.200195312 760 188.400390625 760 c 0,9,10
 223.200195312 760 223.200195312 760 254.5 752.5 c 128,-1,11
 285.799804688 745 285.799804688 745 305.799804688 733 c 1,12,-1
 289.799804688 705 l 1,13,14
 273.599609375 715 273.599609375 715 247.200195312 722.5 c 128,-1,15
 220.799804688 730 220.799804688 730 188.400390625 730 c 0,16,17
 140.400390625 730 140.400390625 730 110.400390625 710 c 128,-1,18
 80.400390625 690 80.400390625 690 80.400390625 652 c 0,19,20
 80.400390625 612 80.400390625 612 111.599609375 586 c 128,-1,21
 142.799804688 560 142.799804688 560 193.200195312 534 c 0,22,23
 232.799804688 514 232.799804688 514 261.299804688 495 c 128,-1,24
 289.799804688 476 289.799804688 476 302.799804688 452.5 c 128,-1,25
 315.799804688 429 315.799804688 429 315.799804688 394 c 0,26,27
 315.799804688 353 315.799804688 353 298.799804688 326 c 128,-1,28
 281.799804688 299 281.799804688 299 252 281 c 1,29,30
 285.799804688 258 285.799804688 258 301.299804688 233 c 128,-1,31
 316.799804688 208 316.799804688 208 316.799804688 172 c 0,32,33
 316.799804688 115 316.799804688 115 276 79.5 c 128,-1,34
 235.200195312 44 235.200195312 44 154.799804688 44 c 0,35,36
 117.599609375 44 117.599609375 44 84.2998046875 51.5 c 128,-1,37
 51 59 51 59 32 70 c 1,38,-1
 32 107 l 1,39,40
 51 94 51 94 84.900390625 84.5 c 128,-1,41
 118.799804688 75 118.799804688 75 154.799804688 75 c 0,42,43
 214.799804688 75 214.799804688 75 247.799804688 101.5 c 128,-1,44
 280.799804688 128 280.799804688 128 280.799804688 171 c 0,45,46
 280.799804688 206 280.799804688 206 261 227.5 c 128,-1,47
 241.200195312 249 241.200195312 249 208.799804688 264.5 c 128,-1,48
 176.400390625 280 176.400390625 280 136.799804688 298 c 0,49,50
 90 320 90 320 64.5 345 c 128,-1,51
 39 370 39 370 39 414 c 256,0,1
72 416 m 0,52,53
 72 383 72 383 94.7998046875 363.5 c 128,-1,54
 117.599609375 344 117.599609375 344 159.599609375 325 c 2,55,-1
 222 297 l 1,56,57
 243.599609375 308 243.599609375 308 263.200195312 330 c 128,-1,58
 282.799804688 352 282.799804688 352 282.799804688 389 c 256,59,60
 282.799804688 426 282.799804688 426 256.599609375 452 c 128,-1,61
 230.400390625 478 230.400390625 478 166.799804688 510 c 1,62,63
 132 500 132 500 102 478 c 128,-1,64
 72 456 72 456 72 416 c 0,52,53
EndSplineSet
EndChar

StartChar: dieresis
Encoding: 168 168 106
Width: 494
Flags: W
LayerCount: 2
Fore
SplineSet
129.599609375 664 m 0,0,1
 129.599609375 679 129.599609375 679 137.099609375 689.5 c 128,-1,2
 144.599609375 700 144.599609375 700 157.599609375 700 c 0,3,4
 169.599609375 700 169.599609375 700 177.599609375 690 c 128,-1,5
 185.599609375 680 185.599609375 680 185.599609375 664 c 256,6,7
 185.599609375 648 185.599609375 648 177.599609375 638 c 128,-1,8
 169.599609375 628 169.599609375 628 157.599609375 628 c 0,9,10
 144.599609375 628 144.599609375 628 137.099609375 638 c 128,-1,11
 129.599609375 648 129.599609375 648 129.599609375 664 c 0,0,1
274.599609375 665 m 0,12,13
 274.599609375 680 274.599609375 680 282.599609375 690 c 128,-1,14
 290.599609375 700 290.599609375 700 303.599609375 700 c 0,15,16
 315.599609375 700 315.599609375 700 323.599609375 691 c 128,-1,17
 331.599609375 682 331.599609375 682 331.599609375 665 c 256,18,19
 331.599609375 648 331.599609375 648 324.099609375 638 c 128,-1,20
 316.599609375 628 316.599609375 628 303.599609375 628 c 256,21,22
 290.599609375 628 290.599609375 628 282.599609375 638 c 128,-1,23
 274.599609375 648 274.599609375 648 274.599609375 665 c 0,12,13
EndSplineSet
EndChar

StartChar: copyright
Encoding: 169 169 107
Width: 694
Flags: W
LayerCount: 2
Fore
SplineSet
344.200195312 -8 m 0,0,1
 255.400390625 -8 255.400390625 -8 186.099609375 40 c 128,-1,2
 116.799804688 88 116.799804688 88 78 170.5 c 128,-1,3
 39.2001953125 253 39.2001953125 253 39.2001953125 357 c 0,4,5
 39.2001953125 467 39.2001953125 467 80.7998046875 549 c 128,-1,6
 122.400390625 631 122.400390625 631 192.900390625 676.5 c 128,-1,7
 263.400390625 722 263.400390625 722 346.599609375 722 c 0,8,9
 412.200195312 722 412.200195312 722 466.200195312 694 c 128,-1,10
 520.200195312 666 520.200195312 666 558.599609375 616 c 128,-1,11
 597 566 597 566 621 499.5 c 128,-1,12
 645 433 645 433 645 355 c 0,13,14
 645 250 645 250 604.599609375 168 c 128,-1,15
 564.200195312 86 564.200195312 86 497.799804688 39 c 128,-1,16
 431.400390625 -8 431.400390625 -8 344.200195312 -8 c 0,0,1
344.200195312 22 m 0,17,18
 425 22 425 22 485.400390625 66.5 c 128,-1,19
 545.799804688 111 545.799804688 111 579.400390625 187 c 128,-1,20
 613 263 613 263 613 357 c 256,21,22
 613 451 613 451 579.400390625 527 c 128,-1,23
 545.799804688 603 545.799804688 603 485.400390625 647.5 c 128,-1,24
 425 692 425 692 345 692 c 0,25,26
 266.599609375 692 266.599609375 692 202.5 648.5 c 128,-1,27
 138.400390625 605 138.400390625 605 104.799804688 529.5 c 128,-1,28
 71.2001953125 454 71.2001953125 454 71.2001953125 357 c 0,29,30
 71.2001953125 261 71.2001953125 261 104.400390625 185.5 c 128,-1,31
 137.599609375 110 137.599609375 110 200.900390625 66 c 128,-1,32
 264.200195312 22 264.200195312 22 344.200195312 22 c 0,17,18
362.599609375 141 m 0,33,34
 286.599609375 141 286.599609375 141 238.099609375 195.5 c 128,-1,35
 189.599609375 250 189.599609375 250 189.599609375 357 c 0,36,37
 189.599609375 457 189.599609375 457 235.299804688 515 c 128,-1,38
 281 573 281 573 359.400390625 573 c 0,39,40
 414.599609375 573 414.599609375 573 457.799804688 547 c 1,41,-1
 446.599609375 518 l 1,42,43
 407.400390625 541 407.400390625 541 359.400390625 541 c 0,44,45
 294.599609375 541 294.599609375 541 260.599609375 492.5 c 128,-1,46
 226.599609375 444 226.599609375 444 226.599609375 357 c 0,47,48
 226.599609375 264 226.599609375 264 263 218.5 c 128,-1,49
 299.400390625 173 299.400390625 173 366.599609375 173 c 0,50,51
 386.599609375 173 386.599609375 173 407.799804688 177.5 c 128,-1,52
 429 182 429 182 452.200195312 194 c 1,53,-1
 452.200195312 163 l 1,54,55
 412.200195312 141 412.200195312 141 362.599609375 141 c 0,33,34
EndSplineSet
EndChar

StartChar: ordfeminine
Encoding: 170 170 108
Width: 260
Flags: W
LayerCount: 2
Fore
SplineSet
131.400390625 722 m 0,0,1
 175.400390625 722 175.400390625 722 193.400390625 697 c 128,-1,2
 211.400390625 672 211.400390625 672 211.400390625 627 c 2,3,-1
 211.400390625 400 l 1,4,-1
 189.400390625 400 l 1,5,-1
 184.400390625 455 l 1,6,7
 172.400390625 425 172.400390625 425 150.400390625 410.5 c 128,-1,8
 128.400390625 396 128.400390625 396 102.400390625 396 c 0,9,10
 65.400390625 396 65.400390625 396 43.900390625 419 c 128,-1,11
 22.400390625 442 22.400390625 442 22.400390625 484 c 0,12,13
 22.400390625 533 22.400390625 533 52.400390625 554 c 128,-1,14
 82.400390625 575 82.400390625 575 137.400390625 580 c 2,15,-1
 180.400390625 584 l 1,16,-1
 180.400390625 622 l 2,17,18
 180.400390625 662 180.400390625 662 168.400390625 678 c 128,-1,19
 156.400390625 694 156.400390625 694 127.400390625 694 c 0,20,21
 109.400390625 694 109.400390625 694 92.400390625 688 c 128,-1,22
 75.400390625 682 75.400390625 682 61.400390625 673 c 1,23,-1
 51.400390625 699 l 1,24,25
 68.400390625 709 68.400390625 709 88.400390625 715.5 c 128,-1,26
 108.400390625 722 108.400390625 722 131.400390625 722 c 0,0,1
180.400390625 558 m 1,27,-1
 147.400390625 555 l 2,28,29
 99.400390625 551 99.400390625 551 75.900390625 536.5 c 128,-1,30
 52.400390625 522 52.400390625 522 52.400390625 484 c 0,31,32
 52.400390625 422 52.400390625 422 106.400390625 422 c 0,33,34
 141.400390625 422 141.400390625 422 160.900390625 450 c 128,-1,35
 180.400390625 478 180.400390625 478 180.400390625 525 c 2,36,-1
 180.400390625 558 l 1,27,-1
EndSplineSet
EndChar

StartChar: guillemotleft
Encoding: 171 171 109
Width: 391
Flags: W
LayerCount: 2
Fore
SplineSet
31.2001953125 281 m 1,0,-1
 168.799804688 460 l 1,1,-1
 188.799804688 446 l 1,2,-1
 78.2001953125 275 l 1,3,-1
 189.599609375 105 l 1,4,-1
 168.799804688 91 l 1,5,-1
 31.2001953125 268 l 1,6,-1
 31.2001953125 281 l 1,0,-1
194.400390625 281 m 1,7,-1
 327 460 l 1,8,-1
 352 446 l 1,9,-1
 232 275 l 1,10,-1
 352 105 l 1,11,-1
 327 91 l 1,12,-1
 194.400390625 268 l 1,13,-1
 194.400390625 281 l 1,7,-1
EndSplineSet
EndChar

StartChar: logicalnot
Encoding: 172 172 110
Width: 361
Flags: W
LayerCount: 2
Fore
SplineSet
323 368 m 1,0,-1
 323 120 l 1,1,-1
 288 120 l 1,2,-1
 288 334 l 1,3,-1
 26.400390625 334 l 1,4,-1
 26.400390625 368 l 1,5,-1
 323 368 l 1,0,-1
EndSplineSet
EndChar

StartChar: registered
Encoding: 174 174 112
Width: 693
Flags: W
LayerCount: 2
Fore
SplineSet
445.318359375 -8 m 0,0,1
 377 -8 377 -8 264 40 c 128,-1,2
 151 88 151 88 95.099609375 170.5 c 128,-1,3
 39.2001953125 253 39.2001953125 253 39.2001953125 357 c 0,4,5
 39.2001953125 467 39.2001953125 467 100 549 c 128,-1,6
 160.799804688 631 160.799804688 631 273.900390625 676.5 c 128,-1,7
 387 722 387 722 446.811523438 722 c 0,8,9
 487.63671875 722 487.63671875 722 521.2421875 694 c 128,-1,10
 554.84765625 666 554.84765625 666 578.745117188 616 c 128,-1,11
 602.642578125 566 602.642578125 566 623.62109375 499.5 c 128,-1,12
 644.599609375 433 644.599609375 433 644.599609375 355 c 0,13,14
 644.599609375 250 644.599609375 250 613.415039062 168 c 128,-1,15
 582.23046875 86 582.23046875 86 540.908203125 39 c 128,-1,16
 499.584960938 -8 499.584960938 -8 445.318359375 -8 c 0,0,1
445.318359375 22 m 0,17,18
 495.602539062 22 495.602539062 22 533.19140625 66.5 c 128,-1,19
 570.779296875 111 570.779296875 111 591.689453125 187 c 128,-1,20
 612.599609375 263 612.599609375 263 612.599609375 357 c 256,21,22
 612.599609375 451 612.599609375 451 591.689453125 527 c 128,-1,23
 570.779296875 603 570.779296875 603 533.19140625 647.5 c 128,-1,24
 495.602539062 692 495.602539062 692 445.81640625 692 c 0,25,26
 391 692 391 692 289.900390625 648.5 c 128,-1,27
 188.799804688 605 188.799804688 605 130 529.5 c 128,-1,28
 71.2001953125 454 71.2001953125 454 71.2001953125 357 c 0,29,30
 71.2001953125 261 71.2001953125 261 129.299804688 185.5 c 128,-1,31
 187.400390625 110 187.400390625 110 287.700195312 66 c 128,-1,32
 388 22 388 22 445.318359375 22 c 0,17,18
368 143 m 1,33,-1
 368 570 l 1,34,-1
 444.8203125 570 l 2,35,36
 476.68359375 570 476.68359375 570 496.349609375 541 c 128,-1,37
 516.014648438 512 516.014648438 512 516.014648438 448 c 0,38,39
 516.014648438 396 516.014648438 396 503.319335938 369 c 128,-1,40
 490.624023438 342 490.624023438 342 472.203125 330 c 1,41,-1
 519.998046875 143 l 1,42,-1
 500.083007812 143 l 1,43,-1
 455.275390625 322 l 1,44,-1
 403 322 l 1,45,-1
 403 143 l 1,46,-1
 368 143 l 1,33,-1
403 352 m 1,47,-1
 442.331054688 352 l 2,48,49
 466.228515625 352 466.228515625 352 482.16015625 374.5 c 128,-1,50
 498.091796875 397 498.091796875 397 498.091796875 448 c 0,51,52
 498.091796875 496 498.091796875 496 483.15625 517.5 c 128,-1,53
 468.219726562 539 468.219726562 539 443.327148438 539 c 2,54,-1
 403 539 l 1,55,-1
 403 352 l 1,47,-1
EndSplineSet
EndChar

StartChar: overscore
Encoding: 175 175 113
Width: 365
Flags: W
LayerCount: 2
Fore
SplineSet
369.599609375 760 m 1,0,-1
 -3.2001953125 760 l 1,1,-1
 -3.2001953125 794 l 1,2,-1
 369.599609375 794 l 1,3,-1
 369.599609375 760 l 1,0,-1
EndSplineSet
Substitution2: "'smcp' Lowercase to Small Capitals lookup 34 subtable" overscore.sc
Substitution2: "'c2sc' Capitals to Small Capitals lookup 33 subtable" overscore.sc
EndChar

StartChar: degree
Encoding: 176 176 114
Width: 348
Flags: W
LayerCount: 2
Fore
SplineSet
169 474 m 0,0,1
 116 474 116 474 80 507.5 c 128,-1,2
 44 541 44 541 44 599 c 0,3,4
 44 658 44 658 80 690.5 c 128,-1,5
 116 723 116 723 168 723 c 0,6,7
 219 723 219 723 256 690.5 c 128,-1,8
 293 658 293 658 293 599 c 0,9,10
 293 542 293 542 257 508 c 128,-1,11
 221 474 221 474 169 474 c 0,0,1
168 502 m 0,12,13
 209 502 209 502 235.5 529 c 128,-1,14
 262 556 262 556 262 599 c 256,15,16
 262 642 262 642 235.5 668.5 c 128,-1,17
 209 695 209 695 167 695 c 0,18,19
 124 695 124 695 99 667.5 c 128,-1,20
 74 640 74 640 74 599 c 0,21,22
 74 555 74 555 101 528.5 c 128,-1,23
 128 502 128 502 168 502 c 0,12,13
EndSplineSet
EndChar

StartChar: plusminus
Encoding: 177 177 115
Width: 384
Flags: W
LayerCount: 2
Fore
SplineSet
206.799804688 372 m 1,0,-1
 354.799804688 372 l 1,1,-1
 354.799804688 339 l 1,2,-1
 206.799804688 339 l 1,3,-1
 206.799804688 126 l 1,4,-1
 172.799804688 126 l 1,5,-1
 172.799804688 339 l 1,6,-1
 23.2001953125 339 l 1,7,-1
 23.2001953125 372 l 1,8,-1
 172.799804688 372 l 1,9,-1
 172.799804688 588 l 1,10,-1
 206.799804688 588 l 1,11,-1
 206.799804688 372 l 1,0,-1
29.2001953125 1 m 1,12,-1
 29.2001953125 35 l 1,13,-1
 349.799804688 35 l 1,14,-1
 349.799804688 1 l 1,15,-1
 29.2001953125 1 l 1,12,-1
EndSplineSet
EndChar

StartChar: uni00B2
Encoding: 178 178 116
Width: 285
Flags: W
LayerCount: 2
Fore
SplineSet
251.799804688 414 m 1,0,-1
 20.7998046875 414 l 1,1,-1
 20.7998046875 443 l 1,2,-1
 109.799804688 558 l 2,3,4
 150.799804688 610 150.799804688 610 179.299804688 652.5 c 128,-1,5
 207.799804688 695 207.799804688 695 207.799804688 741 c 0,6,7
 207.799804688 776 207.799804688 776 187.799804688 799.5 c 128,-1,8
 167.799804688 823 167.799804688 823 127.799804688 823 c 0,9,10
 102.799804688 823 102.799804688 823 81.7998046875 812.5 c 128,-1,11
 60.7998046875 802 60.7998046875 802 41.7998046875 783 c 1,12,-1
 22.7998046875 806 l 1,13,14
 43.7998046875 827 43.7998046875 827 70.2998046875 840 c 128,-1,15
 96.7998046875 853 96.7998046875 853 128.799804688 853 c 0,16,17
 182.799804688 853 182.799804688 853 211.799804688 821.5 c 128,-1,18
 240.799804688 790 240.799804688 790 240.799804688 742 c 0,19,20
 240.799804688 710 240.799804688 710 228.799804688 680.5 c 128,-1,21
 216.799804688 651 216.799804688 651 192.799804688 617.5 c 128,-1,22
 168.799804688 584 168.799804688 584 133.799804688 540 c 2,23,-1
 58.7998046875 444 l 1,24,-1
 251.799804688 444 l 1,25,-1
 251.799804688 414 l 1,0,-1
EndSplineSet
EndChar

StartChar: uni00B3
Encoding: 179 179 117
Width: 284
Flags: W
LayerCount: 2
Fore
SplineSet
129.599609375 851 m 0,0,1
 178.599609375 851 178.599609375 851 208.099609375 824 c 128,-1,2
 237.599609375 797 237.599609375 797 237.599609375 747 c 0,3,4
 237.599609375 706 237.599609375 706 217.099609375 679.5 c 128,-1,5
 196.599609375 653 196.599609375 653 165.599609375 642 c 1,6,-1
 165.599609375 640 l 1,7,8
 205.599609375 629 205.599609375 629 227.099609375 601.5 c 128,-1,9
 248.599609375 574 248.599609375 574 248.599609375 530 c 0,10,11
 248.599609375 472 248.599609375 472 212.099609375 440.5 c 128,-1,12
 175.599609375 409 175.599609375 409 113.599609375 409 c 0,13,14
 65.599609375 409 65.599609375 409 25.599609375 428 c 1,15,-1
 25.599609375 463 l 1,16,17
 65.599609375 440 65.599609375 440 113.599609375 440 c 0,18,19
 164.599609375 440 164.599609375 440 190.099609375 465 c 128,-1,20
 215.599609375 490 215.599609375 490 215.599609375 531 c 256,21,22
 215.599609375 572 215.599609375 572 190.099609375 597.5 c 128,-1,23
 164.599609375 623 164.599609375 623 113.599609375 623 c 2,24,-1
 80.599609375 623 l 1,25,-1
 80.599609375 653 l 1,26,-1
 113.599609375 653 l 2,27,28
 155.599609375 653 155.599609375 653 180.099609375 678.5 c 128,-1,29
 204.599609375 704 204.599609375 704 204.599609375 745 c 0,30,31
 204.599609375 820 204.599609375 820 128.599609375 820 c 0,32,33
 102.599609375 820 102.599609375 820 82.099609375 811 c 128,-1,34
 61.599609375 802 61.599609375 802 43.599609375 785 c 1,35,-1
 25.599609375 810 l 1,36,37
 47.599609375 829 47.599609375 829 72.599609375 840 c 128,-1,38
 97.599609375 851 97.599609375 851 129.599609375 851 c 0,0,1
EndSplineSet
EndChar

StartChar: acute
Encoding: 180 180 118
Width: 222
Flags: W
LayerCount: 2
Fore
SplineSet
182 764 m 1,0,-1
 182 756 l 1,1,2
 166 732 166 732 143.5 704.5 c 128,-1,3
 121 677 121 677 97.5 650.5 c 128,-1,4
 74 624 74 624 54 606 c 1,5,-1
 32 606 l 1,6,-1
 32 618 l 1,7,8
 65 658 65 658 90 692 c 128,-1,9
 115 726 115 726 139 764 c 1,10,-1
 182 764 l 1,0,-1
EndSplineSet
EndChar

StartChar: uni00B5
Encoding: 181 181 119
Width: 364
Flags: W
LayerCount: 2
Fore
SplineSet
294.799804688 529 m 1,0,-1
 294.799804688 0 l 1,1,-1
 266.799804688 0 l 1,2,-1
 261.799804688 104 l 1,3,-1
 259.799804688 104 l 1,4,5
 253.799804688 77 253.799804688 77 241.799804688 50.5 c 128,-1,6
 229.799804688 24 229.799804688 24 210.200195312 7 c 128,-1,7
 190.599609375 -10 190.599609375 -10 160.200195312 -10 c 0,8,9
 111.400390625 -10 111.400390625 -10 90 44 c 1,10,-1
 88 44 l 1,11,12
 91 14 91 14 91.5 -10 c 128,-1,13
 92 -34 92 -34 92 -55 c 2,14,-1
 92 -234 l 1,15,-1
 56 -234 l 1,16,-1
 56 529 l 1,17,-1
 93 529 l 1,18,-1
 93 172 l 2,19,20
 93 96 93 96 110.599609375 60.5 c 128,-1,21
 128.200195312 25 128.200195312 25 161 25 c 0,22,23
 206.599609375 25 206.599609375 25 232.200195312 76.5 c 128,-1,24
 257.799804688 128 257.799804688 128 257.799804688 234 c 2,25,-1
 257.799804688 529 l 1,26,-1
 294.799804688 529 l 1,0,-1
EndSplineSet
EndChar

StartChar: paragraph
Encoding: 182 182 120
Width: 396
Flags: W
LayerCount: 2
Fore
SplineSet
307.400390625 -127 m 1,0,-1
 276.400390625 -127 l 1,1,-1
 276.400390625 727 l 1,2,-1
 206 727 l 1,3,-1
 206 -127 l 1,4,-1
 176 -127 l 1,5,-1
 176 338 l 1,6,7
 160 329 160 329 143 329 c 0,8,9
 98 329 98 329 77 389 c 128,-1,10
 56 449 56 449 56 545 c 0,11,12
 56 647 56 647 82 703.5 c 128,-1,13
 108 760 108 760 168 760 c 2,14,-1
 307.400390625 760 l 1,15,-1
 307.400390625 -127 l 1,0,-1
EndSplineSet
EndChar

StartChar: cedilla
Encoding: 184 184 122
Width: 212
Flags: W
LayerCount: 2
Fore
SplineSet
179.200195312 -143 m 0,0,1
 179.200195312 -188 179.200195312 -188 149.200195312 -214 c 128,-1,2
 119.200195312 -240 119.200195312 -240 67.2001953125 -240 c 0,3,4
 57.2001953125 -240 57.2001953125 -240 43.7001953125 -238.5 c 128,-1,5
 30.2001953125 -237 30.2001953125 -237 19.2001953125 -234 c 1,6,-1
 19.2001953125 -204 l 1,7,8
 29.2001953125 -207 29.2001953125 -207 42.2001953125 -209 c 128,-1,9
 55.2001953125 -211 55.2001953125 -211 65.2001953125 -211 c 0,10,11
 99.2001953125 -211 99.2001953125 -211 122.200195312 -193.5 c 128,-1,12
 145.200195312 -176 145.200195312 -176 145.200195312 -143 c 256,13,14
 145.200195312 -110 145.200195312 -110 120.700195312 -96.5 c 128,-1,15
 96.2001953125 -83 96.2001953125 -83 56.2001953125 -81 c 1,16,-1
 90.2001953125 0 l 1,17,-1
 120.200195312 0 l 1,18,-1
 95.2001953125 -60 l 1,19,20
 136.200195312 -65 136.200195312 -65 157.700195312 -87 c 128,-1,21
 179.200195312 -109 179.200195312 -109 179.200195312 -143 c 0,0,1
EndSplineSet
EndChar

StartChar: uni00B9
Encoding: 185 185 123
Width: 270
Flags: W
LayerCount: 2
Fore
SplineSet
175 842 m 1,0,-1
 175 414 l 1,1,-1
 142 414 l 1,2,-1
 142 711 l 2,3,4
 142 733 142 733 143 758.5 c 128,-1,5
 144 784 144 784 145 804 c 1,6,7
 136 796 136 796 128.5 791 c 128,-1,8
 121 786 121 786 116 782 c 2,9,-1
 48 737 l 1,10,-1
 32 760 l 1,11,-1
 149 842 l 1,12,-1
 175 842 l 1,0,-1
EndSplineSet
EndChar

StartChar: ordmasculine
Encoding: 186 186 124
Width: 289
Flags: W
LayerCount: 2
Fore
SplineSet
255.400390625 559 m 0,0,1
 255.400390625 486 255.400390625 486 227.400390625 439.5 c 128,-1,2
 199.400390625 393 199.400390625 393 141.400390625 393 c 0,3,4
 84.400390625 393 84.400390625 393 55.400390625 438 c 128,-1,5
 26.400390625 483 26.400390625 483 26.400390625 559 c 256,6,7
 26.400390625 635 26.400390625 635 57.400390625 679.5 c 128,-1,8
 88.400390625 724 88.400390625 724 144.400390625 724 c 256,9,10
 200.400390625 724 200.400390625 724 227.900390625 678.5 c 128,-1,11
 255.400390625 633 255.400390625 633 255.400390625 559 c 0,0,1
59.400390625 557 m 0,12,13
 59.400390625 492 59.400390625 492 78.900390625 456.5 c 128,-1,14
 98.400390625 421 98.400390625 421 140.400390625 421 c 0,15,16
 183.400390625 421 183.400390625 421 203.400390625 457.5 c 128,-1,17
 223.400390625 494 223.400390625 494 223.400390625 557 c 0,18,19
 223.400390625 621 223.400390625 621 204.900390625 658 c 128,-1,20
 186.400390625 695 186.400390625 695 143.400390625 695 c 0,21,22
 104.400390625 695 104.400390625 695 81.900390625 660.5 c 128,-1,23
 59.400390625 626 59.400390625 626 59.400390625 557 c 0,12,13
EndSplineSet
EndChar

StartChar: guillemotright
Encoding: 187 187 125
Width: 383
Flags: W
LayerCount: 2
Fore
SplineSet
345.599609375 268 m 1,0,-1
 208 91 l 1,1,-1
 187.200195312 105 l 1,2,-1
 297.599609375 275 l 1,3,-1
 187.200195312 446 l 1,4,-1
 208 460 l 1,5,-1
 345.599609375 281 l 1,6,-1
 345.599609375 268 l 1,0,-1
189.599609375 268 m 1,7,-1
 57.2001953125 91 l 1,8,-1
 31.2001953125 105 l 1,9,-1
 151.200195312 275 l 1,10,-1
 31.2001953125 446 l 1,11,-1
 57.2001953125 460 l 1,12,-1
 189.599609375 281 l 1,13,-1
 189.599609375 268 l 1,7,-1
EndSplineSet
EndChar

StartChar: onequarter
Encoding: 188 188 126
Width: 568
Flags: W
LayerCount: 2
Fore
SplineSet
130 0 m 1,0,-1
 420 714 l 1,1,-1
 448.799804688 714 l 1,2,-1
 165.599609375 0 l 1,3,-1
 130 0 l 1,0,-1
130 286 m 1,4,-1
 130 583 l 2,5,6
 130 605 130 605 131 630.5 c 128,-1,7
 132 656 132 656 134 676 c 1,8,9
 125 668 125 668 117.5 663 c 128,-1,10
 110 658 110 658 105 654 c 2,11,-1
 37 609 l 1,12,-1
 20 632 l 1,13,-1
 138 714 l 1,14,-1
 164 714 l 1,15,-1
 164 286 l 1,16,-1
 130 286 l 1,4,-1
462.400390625 0 m 1,17,-1
 462.400390625 113 l 1,18,-1
 332.799804688 113 l 1,19,-1
 332.799804688 137 l 1,20,-1
 466.400390625 431 l 1,21,-1
 494.400390625 431 l 1,22,-1
 494.400390625 142 l 1,23,-1
 552.400390625 142 l 1,24,-1
 552.400390625 113 l 1,25,-1
 494.400390625 113 l 1,26,-1
 494.400390625 0 l 1,27,-1
 462.400390625 0 l 1,17,-1
360 142 m 1,28,-1
 462.400390625 142 l 1,29,-1
 462.400390625 321 l 1,30,31
 462.400390625 354 l 2,32,33
 462.400390625 366 462.400390625 366 463.400390625 376 c 1,34,35
 460 367 460 367 456.400390625 358 c 128,-1,36
 452.799804688 349 452.799804688 349 447.200195312 336 c 2,37,-1
 360 142 l 1,28,-1
EndSplineSet
EndChar

StartChar: onehalf
Encoding: 189 189 127
Width: 651
Flags: W
LayerCount: 2
Fore
SplineSet
122 0 m 1,0,-1
 414.400390625 714 l 1,1,-1
 443.200195312 714 l 1,2,-1
 159 0 l 1,3,-1
 122 0 l 1,0,-1
130 286 m 1,4,-1
 130 583 l 2,5,6
 130 605 130 605 131 630.5 c 128,-1,7
 132 656 132 656 134 676 c 1,8,9
 125 668 125 668 117.5 663 c 128,-1,10
 110 658 110 658 105 654 c 2,11,-1
 37 609 l 1,12,-1
 20 632 l 1,13,-1
 138 714 l 1,14,-1
 164 714 l 1,15,-1
 164 286 l 1,16,-1
 130 286 l 1,4,-1
387 0 m 1,17,-1
 387 29 l 1,18,-1
 476 144 l 2,19,20
 517 196 517 196 527.299804688 238 c 128,-1,21
 537.599609375 280 537.599609375 280 537.599609375 326 c 0,22,23
 537.599609375 361 537.599609375 361 521.599609375 384.5 c 128,-1,24
 505.599609375 408 505.599609375 408 473.599609375 408 c 0,25,26
 454.400390625 408 454.400390625 408 437.599609375 398 c 128,-1,27
 420.799804688 388 420.799804688 388 404.799804688 369 c 1,28,-1
 390.400390625 392 l 1,29,30
 407.200195312 413 407.200195312 413 428 426 c 128,-1,31
 448.799804688 439 448.799804688 439 474.400390625 439 c 0,32,33
 518.400390625 439 518.400390625 439 545 407.5 c 128,-1,34
 571.599609375 376 571.599609375 376 571.599609375 328 c 0,35,36
 571.599609375 296 571.599609375 296 559.599609375 266.5 c 128,-1,37
 547.599609375 237 547.599609375 237 542.299804688 204.5 c 128,-1,38
 537 172 537 172 504 130 c 2,39,-1
 425 30 l 1,40,-1
 619 30 l 1,41,-1
 619 0 l 1,42,-1
 387 0 l 1,17,-1
EndSplineSet
EndChar

StartChar: threequarters
Encoding: 190 190 128
Width: 591
Flags: W
LayerCount: 2
Fore
SplineSet
107.200195312 282 m 0,0,1
 83.2001953125 282 83.2001953125 282 60.7001953125 286.5 c 128,-1,2
 38.2001953125 291 38.2001953125 291 19.2001953125 301 c 1,3,-1
 19.2001953125 335 l 1,4,5
 40.2001953125 324 40.2001953125 324 61.7001953125 318 c 128,-1,6
 83.2001953125 312 83.2001953125 312 107.200195312 312 c 0,7,8
 158.200195312 312 158.200195312 312 183.700195312 337 c 128,-1,9
 209.200195312 362 209.200195312 362 209.200195312 403 c 0,10,11
 209.200195312 445 209.200195312 445 183.700195312 470.5 c 128,-1,12
 158.200195312 496 158.200195312 496 107.200195312 496 c 2,13,-1
 74.2001953125 496 l 1,14,-1
 74.2001953125 525 l 1,15,-1
 107.200195312 525 l 2,16,17
 149.200195312 525 149.200195312 525 173.700195312 551 c 128,-1,18
 198.200195312 577 198.200195312 577 198.200195312 618 c 0,19,20
 198.200195312 693 198.200195312 693 122.200195312 693 c 0,21,22
 96.2001953125 693 96.2001953125 693 75.7001953125 683.5 c 128,-1,23
 55.2001953125 674 55.2001953125 674 37.2001953125 658 c 1,24,-1
 19.2001953125 682 l 1,25,26
 41.2001953125 701 41.2001953125 701 66.2001953125 712 c 128,-1,27
 91.2001953125 723 91.2001953125 723 123.200195312 723 c 0,28,29
 172.200195312 723 172.200195312 723 201.700195312 696.5 c 128,-1,30
 231.200195312 670 231.200195312 670 231.200195312 620 c 0,31,32
 231.200195312 578 231.200195312 578 210.700195312 552 c 128,-1,33
 190.200195312 526 190.200195312 526 159.200195312 515 c 1,34,-1
 159.200195312 513 l 1,35,36
 199.200195312 502 199.200195312 502 221.200195312 474.5 c 128,-1,37
 243.200195312 447 243.200195312 447 243.200195312 403 c 0,38,39
 243.200195312 344 243.200195312 344 206.200195312 313 c 128,-1,40
 169.200195312 282 169.200195312 282 107.200195312 282 c 0,0,1
150.200195312 0 m 1,41,-1
 452 714 l 1,42,-1
 481.599609375 714 l 1,43,-1
 186.200195312 0 l 1,44,-1
 150.200195312 0 l 1,41,-1
486.400390625 0 m 1,45,-1
 486.400390625 113 l 1,46,-1
 350.852539062 113 l 1,47,-1
 350.852539062 137 l 1,48,-1
 489.400390625 431 l 1,49,-1
 518.400390625 431 l 1,50,-1
 518.400390625 142 l 1,51,-1
 576.400390625 142 l 1,52,-1
 576.400390625 113 l 1,53,-1
 518.400390625 113 l 1,54,-1
 518.400390625 0 l 1,55,-1
 486.400390625 0 l 1,45,-1
379.958007812 142 m 1,56,-1
 486.400390625 142 l 1,57,-1
 486.400390625 376 l 1,58,59
 483.200195312 367 483.200195312 367 480 358 c 128,-1,60
 476.799804688 349 476.799804688 349 470.400390625 336 c 2,61,-1
 379.958007812 142 l 1,56,-1
EndSplineSet
EndChar

StartChar: AE
Encoding: 198 198 136
Width: 569
GlyphClass: 2
Flags: W
AnchorPoint: "Anchor-2" 292 714 basechar 0
AnchorPoint: "Anchor-0" 290 0 basechar 0
LayerCount: 2
Fore
SplineSet
532 0 m 1,0,-1
 239 0 l 1,1,-1
 239 268 l 1,2,-1
 116 268 l 1,3,-1
 41 0 l 1,4,-1
 0 0 l 1,5,-1
 204 714 l 1,6,-1
 532 714 l 1,7,-1
 532 679 l 1,8,-1
 277 679 l 1,9,-1
 277 392 l 1,10,-1
 519 392 l 1,11,-1
 519 357 l 1,12,-1
 277 357 l 1,13,-1
 277 35 l 1,14,-1
 532 35 l 1,15,-1
 532 0 l 1,0,-1
125 304 m 1,16,-1
 239 304 l 1,17,-1
 239 678 l 1,18,-1
 230 678 l 1,19,-1
 125 304 l 1,16,-1
EndSplineSet
Substitution2: "'c2sc' Capitals to Small Capitals lookup 33 subtable" ae.sc
EndChar

StartChar: Eth
Encoding: 208 208 146
Width: 421
GlyphClass: 2
Flags: W
AnchorPoint: "Anchor-2" 244 714 basechar 0
AnchorPoint: "Anchor-0" 244 0 basechar 0
LayerCount: 2
Fore
SplineSet
180 714 m 2,0,1
 275.200195312 714 275.200195312 714 323.900390625 625.5 c 128,-1,2
 372.599609375 537 372.599609375 537 372.599609375 364 c 0,3,4
 372.599609375 184 372.599609375 184 323.900390625 92 c 128,-1,5
 275.200195312 0 275.200195312 0 178.400390625 0 c 2,6,-1
 76.400390625 0 l 1,7,-1
 76.400390625 357 l 1,8,-1
 22.400390625 357 l 1,9,-1
 22.400390625 390 l 1,10,-1
 76.400390625 390 l 1,11,-1
 76.400390625 714 l 1,12,-1
 180 714 l 2,0,1
178.400390625 679 m 2,13,-1
 114.400390625 679 l 1,14,-1
 114.400390625 390 l 1,15,-1
 218.400390625 390 l 1,16,-1
 218.400390625 357 l 1,17,-1
 114.400390625 357 l 1,18,-1
 114.400390625 35 l 1,19,-1
 176.799804688 35 l 2,20,21
 260 35 260 35 296.799804688 118 c 128,-1,22
 333.599609375 201 333.599609375 201 333.599609375 362 c 0,23,24
 333.599609375 514 333.599609375 514 298.400390625 596.5 c 128,-1,25
 263.200195312 679 263.200195312 679 178.400390625 679 c 2,13,-1
EndSplineSet
Substitution2: "'c2sc' Capitals to Small Capitals lookup 33 subtable" eth.sc
EndChar

StartChar: multiply
Encoding: 215 215 153
Width: 379
Flags: W
LayerCount: 2
Fore
SplineSet
319.599609375 519 m 1,0,-1
 341.599609375 497 l 1,1,-1
 204 354 l 1,2,-1
 339.599609375 211 l 1,3,-1
 317.599609375 189 l 1,4,-1
 185.599609375 332 l 1,5,-1
 52.400390625 188 l 1,6,-1
 30.400390625 211 l 1,7,-1
 168.799804688 354 l 1,8,-1
 32.400390625 496 l 1,9,-1
 54.400390625 518 l 1,10,-1
 186.400390625 376 l 1,11,-1
 319.599609375 519 l 1,0,-1
EndSplineSet
EndChar

StartChar: Oslash
Encoding: 216 216 154
Width: 464
GlyphClass: 2
Flags: W
AnchorPoint: "Anchor-2" 271 714 basechar 0
AnchorPoint: "Anchor-0" 270 0 basechar 0
LayerCount: 2
Fore
SplineSet
406.799804688 358 m 0,0,1
 406.799804688 282 406.799804688 282 396.799804688 215.5 c 128,-1,2
 386.799804688 149 386.799804688 149 366.200195312 98.5 c 128,-1,3
 345.599609375 48 345.599609375 48 314 19 c 128,-1,4
 282.400390625 -10 282.400390625 -10 235.200195312 -10 c 0,5,6
 198.400390625 -10 198.400390625 -10 171.200195312 9 c 128,-1,7
 144 28 144 28 124.799804688 61 c 1,8,-1
 68 -59 l 1,9,-1
 40 -45 l 1,10,-1
 108.799804688 91 l 1,11,12
 84 143 84 143 73 212.5 c 128,-1,13
 62 282 62 282 62 358 c 0,14,15
 62 541 62 541 108.200195312 632.5 c 128,-1,16
 154.400390625 724 154.400390625 724 235.200195312 724 c 0,17,18
 271.200195312 724 271.200195312 724 298.400390625 705.5 c 128,-1,19
 325.599609375 687 325.599609375 687 344.799804688 654 c 1,20,-1
 391.799804688 752 l 1,21,-1
 419.799804688 739 l 1,22,-1
 360.799804688 623 l 1,23,24
 383.799804688 575 383.799804688 575 395.299804688 507.5 c 128,-1,25
 406.799804688 440 406.799804688 440 406.799804688 358 c 0,0,1
100 358 m 0,26,27
 100 288 100 288 107.200195312 232 c 128,-1,28
 114.400390625 176 114.400390625 176 127.200195312 135 c 1,29,-1
 330.400390625 617 l 1,30,31
 296 689 296 689 235.200195312 689 c 0,32,33
 167.200195312 689 167.200195312 689 133.599609375 602.5 c 128,-1,34
 100 516 100 516 100 358 c 0,26,27
368.799804688 358 m 0,35,36
 368.799804688 498 368.799804688 498 343.200195312 580 c 1,37,-1
 140.799804688 99 l 1,38,39
 175.200195312 25 175.200195312 25 235.200195312 25 c 0,40,41
 302.400390625 25 302.400390625 25 335.599609375 110 c 128,-1,42
 368.799804688 195 368.799804688 195 368.799804688 358 c 0,35,36
EndSplineSet
Substitution2: "'c2sc' Capitals to Small Capitals lookup 33 subtable" oslash.sc
EndChar

StartChar: Thorn
Encoding: 222 222 160
Width: 354
GlyphClass: 2
Flags: W
AnchorPoint: "Anchor-2" 203 714 basechar 0
AnchorPoint: "Anchor-0" 203 0 basechar 0
LayerCount: 2
Fore
SplineSet
314.599609375 385 m 0,0,1
 314.599609375 277 314.599609375 277 274.299804688 222 c 128,-1,2
 234 167 234 167 154 167 c 2,3,-1
 99.599609375 167 l 1,4,-1
 99.599609375 0 l 1,5,-1
 61.599609375 0 l 1,6,-1
 61.599609375 714 l 1,7,-1
 99.599609375 714 l 1,8,-1
 99.599609375 581 l 1,9,-1
 159.599609375 581 l 2,10,11
 234.799804688 581 234.799804688 581 274.700195312 536 c 128,-1,12
 314.599609375 491 314.599609375 491 314.599609375 385 c 0,0,1
99.599609375 202 m 1,13,-1
 150 202 l 2,14,15
 218.799804688 202 218.799804688 202 247.200195312 247.5 c 128,-1,16
 275.599609375 293 275.599609375 293 275.599609375 384 c 0,17,18
 275.599609375 471 275.599609375 471 248 508.5 c 128,-1,19
 220.400390625 546 220.400390625 546 156.400390625 546 c 2,20,-1
 99.599609375 546 l 1,21,-1
 99.599609375 202 l 1,13,-1
EndSplineSet
Substitution2: "'c2sc' Capitals to Small Capitals lookup 33 subtable" thorn.sc
EndChar

StartChar: germandbls
Encoding: 223 223 161
Width: 350
GlyphClass: 2
Flags: W
AnchorPoint: "Anchor-2" 196 765 basechar 0
AnchorPoint: "Anchor-0" 196 0 basechar 0
LayerCount: 2
Fore
SplineSet
265.200195312 642 m 0,0,1
 265.200195312 600 265.200195312 600 254.400390625 572 c 128,-1,2
 243.599609375 544 243.599609375 544 228.799804688 522 c 128,-1,3
 214 500 214 500 203.200195312 477.5 c 128,-1,4
 192.400390625 455 192.400390625 455 192.400390625 424 c 0,5,6
 192.400390625 384 192.400390625 384 207.599609375 357.5 c 128,-1,7
 222.799804688 331 222.799804688 331 243.599609375 298 c 0,8,9
 270.799804688 254 270.799804688 254 289.799804688 220 c 128,-1,10
 308.799804688 186 308.799804688 186 308.799804688 138 c 0,11,12
 308.799804688 77 308.799804688 77 279.366210938 33.5 c 128,-1,13
 249.931640625 -10 249.931640625 -10 194.838867188 -10 c 0,14,15
 176.474609375 -10 176.474609375 -10 158.52734375 -4.5 c 128,-1,16
 140.580078125 1 140.580078125 1 126.389648438 14 c 1,17,-1
 126.389648438 51 l 1,18,19
 159.779296875 25 159.779296875 25 194.00390625 25 c 0,20,21
 231.567382812 25 231.567382812 25 251.18359375 56.5 c 128,-1,22
 270.799804688 88 270.799804688 88 270.799804688 137 c 0,23,24
 270.799804688 180 270.799804688 180 256 211 c 128,-1,25
 241.200195312 242 241.200195312 242 218 277 c 0,26,27
 193.200195312 314 193.200195312 314 174.299804688 347.5 c 128,-1,28
 155.400390625 381 155.400390625 381 155.400390625 423 c 0,29,30
 155.400390625 459 155.400390625 459 168.900390625 484 c 128,-1,31
 182.400390625 509 182.400390625 509 197.799804688 530.5 c 128,-1,32
 213.200195312 552 213.200195312 552 224 578 c 128,-1,33
 234.799804688 604 234.799804688 604 234.799804688 642 c 256,34,35
 234.799804688 680 234.799804688 680 219.599609375 705.5 c 128,-1,36
 204.400390625 731 204.400390625 731 169.400390625 731 c 0,37,38
 127.400390625 731 127.400390625 731 110.200195312 689.5 c 128,-1,39
 93 648 93 648 93 577 c 2,40,-1
 93 0 l 1,41,-1
 56 0 l 1,42,-1
 56 579 l 2,43,44
 56 668 56 668 85.7001953125 716.5 c 128,-1,45
 115.400390625 765 115.400390625 765 170.400390625 765 c 0,46,47
 219.599609375 765 219.599609375 765 242.400390625 730 c 128,-1,48
 265.200195312 695 265.200195312 695 265.200195312 642 c 0,0,1
EndSplineSet
Substitution2: "'smcp' Lowercase to Small Capitals lookup 34 subtable" germandbls.sc
EndChar

StartChar: ae
Encoding: 230 230 168
Width: 550
GlyphClass: 2
Flags: W
AnchorPoint: "Anchor-2" 309 529 basechar 0
AnchorPoint: "Anchor-0" 308 0 basechar 0
LayerCount: 2
Fore
SplineSet
357.599609375 539 m 0,0,1
 398.400390625 539 398.400390625 539 424.299804688 506.5 c 128,-1,2
 450.200195312 474 450.200195312 474 464.200195312 420 c 128,-1,3
 478.200195312 366 478.200195312 366 478.200195312 304 c 2,4,-1
 478.200195312 270 l 1,5,-1
 262.400390625 270 l 1,6,7
 263.400390625 148 263.400390625 148 298.400390625 86 c 128,-1,8
 333.400390625 24 333.400390625 24 398.400390625 24 c 0,9,10
 422.400390625 24 422.400390625 24 451.900390625 32 c 128,-1,11
 481.400390625 40 481.400390625 40 506.400390625 58 c 1,12,-1
 506.400390625 22 l 1,13,14
 460.400390625 -10 460.400390625 -10 396.400390625 -10 c 0,15,16
 353.400390625 -10 353.400390625 -10 323.400390625 9 c 128,-1,17
 293.400390625 28 293.400390625 28 274.400390625 59.5 c 128,-1,18
 255.400390625 91 255.400390625 91 246.400390625 128 c 1,19,20
 235.400390625 63 235.400390625 63 206.400390625 26.5 c 128,-1,21
 177.400390625 -10 177.400390625 -10 133.400390625 -10 c 0,22,23
 84.599609375 -10 84.599609375 -10 57.099609375 31.5 c 128,-1,24
 29.599609375 73 29.599609375 73 29.599609375 134 c 0,25,26
 29.599609375 214 29.599609375 214 71.099609375 255 c 128,-1,27
 112.599609375 296 112.599609375 296 178.200195312 300 c 1,28,-1
 225.400390625 304 l 1,29,-1
 225.400390625 376 l 2,30,31
 225.400390625 440 225.400390625 440 207.400390625 473 c 128,-1,32
 189.400390625 506 189.400390625 506 156.599609375 506 c 0,33,34
 143 506 143 506 122.200195312 499 c 128,-1,35
 101.400390625 492 101.400390625 492 79 476 c 1,36,-1
 67.599609375 506 l 1,37,38
 85.400390625 520 85.400390625 520 109 529.5 c 128,-1,39
 132.599609375 539 132.599609375 539 157.400390625 539 c 0,40,41
 240.400390625 539 240.400390625 539 252.400390625 419 c 1,42,43
 264.799804688 469 264.799804688 469 290.400390625 504 c 128,-1,44
 316 539 316 539 357.599609375 539 c 0,0,1
356.799804688 505 m 0,45,46
 317.599609375 505 317.599609375 505 291.200195312 454 c 128,-1,47
 264.799804688 403 264.799804688 403 262.400390625 303 c 1,48,-1
 443.200195312 303 l 1,49,50
 444.200195312 360 444.200195312 360 434.900390625 406 c 128,-1,51
 425.599609375 452 425.599609375 452 406 478.5 c 128,-1,52
 386.400390625 505 386.400390625 505 356.799804688 505 c 0,45,46
225.400390625 273 m 1,53,-1
 180.599609375 269 l 2,54,55
 121.400390625 264 121.400390625 264 95 229.5 c 128,-1,56
 68.599609375 195 68.599609375 195 68.599609375 134 c 0,57,58
 68.599609375 84 68.599609375 84 85.400390625 53.5 c 128,-1,59
 102.200195312 23 102.200195312 23 136.599609375 23 c 0,60,61
 166.200195312 23 166.200195312 23 186.200195312 45 c 128,-1,62
 206.200195312 67 206.200195312 67 215.799804688 104 c 128,-1,63
 225.400390625 141 225.400390625 141 225.400390625 186 c 2,64,-1
 225.400390625 273 l 1,53,-1
EndSplineSet
Substitution2: "'smcp' Lowercase to Small Capitals lookup 34 subtable" ae.sc
EndChar

StartChar: eth
Encoding: 240 240 178
Width: 351
GlyphClass: 2
Flags: W
AnchorPoint: "Anchor-2" 205 759 basechar 0
AnchorPoint: "Anchor-0" 205 0 basechar 0
LayerCount: 2
Fore
SplineSet
119.599609375 758 m 1,0,1
 134.799804688 747 134.799804688 747 148 733.5 c 128,-1,2
 161.200195312 720 161.200195312 720 174 705 c 1,3,-1
 242.799804688 759 l 1,4,-1
 256.400390625 733 l 1,5,-1
 190 683 l 1,6,7
 245.200195312 603 245.200195312 603 275.900390625 493.5 c 128,-1,8
 306.599609375 384 306.599609375 384 306.599609375 259 c 0,9,10
 306.599609375 119 306.599609375 119 269.099609375 54.5 c 128,-1,11
 231.599609375 -10 231.599609375 -10 172.400390625 -10 c 0,12,13
 126.799804688 -10 126.799804688 -10 97.900390625 24 c 128,-1,14
 69 58 69 58 52.5 112 c 128,-1,15
 36 166 36 166 36 227 c 0,16,17
 36 302 36 302 56.599609375 355 c 128,-1,18
 77.2001953125 408 77.2001953125 408 106 436.5 c 128,-1,19
 134.799804688 465 134.799804688 465 170.799804688 465 c 0,20,21
 206 465 206 465 227.599609375 442.5 c 128,-1,22
 249.200195312 420 249.200195312 420 258 397 c 1,23,-1
 260.400390625 397 l 1,24,25
 251.599609375 470 251.599609375 470 228.400390625 540.5 c 128,-1,26
 205.200195312 611 205.200195312 611 166.799804688 665 c 1,27,-1
 102.799804688 615 l 1,28,-1
 90 640 l 1,29,-1
 150.799804688 687 l 1,30,31
 139.599609375 703 139.599609375 703 126.400390625 715.5 c 128,-1,32
 113.200195312 728 113.200195312 728 101.200195312 737 c 1,33,-1
 119.599609375 758 l 1,0,1
175.599609375 431 m 0,34,35
 128.400390625 431 128.400390625 431 101.200195312 375.5 c 128,-1,36
 74 320 74 320 74 226 c 0,37,38
 74 168 74 168 85.2001953125 122.5 c 128,-1,39
 96.400390625 77 96.400390625 77 118.400390625 50.5 c 128,-1,40
 140.400390625 24 140.400390625 24 173.200195312 24 c 0,41,42
 221.200195312 24 221.200195312 24 244.400390625 80.5 c 128,-1,43
 267.599609375 137 267.599609375 137 267.599609375 233 c 256,44,45
 267.599609375 329 267.599609375 329 242.799804688 380 c 128,-1,46
 218 431 218 431 175.599609375 431 c 0,34,35
EndSplineSet
Substitution2: "'smcp' Lowercase to Small Capitals lookup 34 subtable" eth.sc
EndChar

StartChar: divide
Encoding: 247 247 185
Width: 389
Flags: W
LayerCount: 2
Fore
SplineSet
191.599609375 489 m 256,0,1
 175.599609375 489 175.599609375 489 168.599609375 500.5 c 128,-1,2
 161.599609375 512 161.599609375 512 161.599609375 530 c 256,3,4
 161.599609375 548 161.599609375 548 168.599609375 559.5 c 128,-1,5
 175.599609375 571 175.599609375 571 191.599609375 571 c 0,6,7
 208.599609375 571 208.599609375 571 215.099609375 559.5 c 128,-1,8
 221.599609375 548 221.599609375 548 221.599609375 529 c 0,9,10
 221.599609375 511 221.599609375 511 214.599609375 500 c 128,-1,11
 207.599609375 489 207.599609375 489 191.599609375 489 c 256,0,1
23.2001953125 336 m 1,12,-1
 23.2001953125 369 l 1,13,-1
 360 369 l 1,14,-1
 360 336 l 1,15,-1
 23.2001953125 336 l 1,12,-1
191.599609375 134 m 0,16,17
 174.599609375 134 174.599609375 134 168.099609375 146 c 128,-1,18
 161.599609375 158 161.599609375 158 161.599609375 174 c 0,19,20
 161.599609375 216 161.599609375 216 191.599609375 216 c 0,21,22
 208.599609375 216 208.599609375 216 215.099609375 204.5 c 128,-1,23
 221.599609375 193 221.599609375 193 221.599609375 176 c 0,24,25
 221.599609375 157 221.599609375 157 214.599609375 145.5 c 128,-1,26
 207.599609375 134 207.599609375 134 191.599609375 134 c 0,16,17
EndSplineSet
EndChar

StartChar: oslash
Encoding: 248 248 186
Width: 382
GlyphClass: 2
Flags: W
AnchorPoint: "Anchor-2" 220 529 basechar 0
AnchorPoint: "Anchor-0" 220 0 basechar 0
LayerCount: 2
Fore
SplineSet
331.599609375 265 m 0,0,1
 331.599609375 -10 331.599609375 -10 197 -10 c 0,2,3
 143.400390625 -10 143.400390625 -10 112.200195312 41 c 1,4,-1
 54 -77 l 1,5,-1
 28 -63 l 1,6,-1
 97 68 l 1,7,8
 59 138 59 138 59 267 c 0,9,10
 59 401 59 401 94.7998046875 470 c 128,-1,11
 130.599609375 539 130.599609375 539 196.200195312 539 c 0,12,13
 247.400390625 539 247.400390625 539 277 494 c 1,14,-1
 320.599609375 585 l 1,15,-1
 346.599609375 572 l 1,16,-1
 293 468 l 1,17,18
 312.599609375 432 312.599609375 432 322.099609375 381 c 128,-1,19
 331.599609375 330 331.599609375 330 331.599609375 265 c 0,0,1
97 267 m 0,20,21
 97 167 97 167 113.799804688 107 c 1,22,-1
 263.400390625 461 l 1,23,24
 239.400390625 505 239.400390625 505 196.200195312 505 c 0,25,26
 143.400390625 505 143.400390625 505 120.200195312 443.5 c 128,-1,27
 97 382 97 382 97 267 c 0,20,21
294.599609375 266 m 0,28,29
 294.599609375 317 294.599609375 317 290.200195312 358 c 128,-1,30
 285.799804688 399 285.799804688 399 276.200195312 429 c 1,31,-1
 126.599609375 75 l 1,32,33
 149.799804688 24 149.799804688 24 196.200195312 24 c 0,34,35
 247.400390625 24 247.400390625 24 271 83 c 128,-1,36
 294.599609375 142 294.599609375 142 294.599609375 266 c 0,28,29
EndSplineSet
Substitution2: "'smcp' Lowercase to Small Capitals lookup 34 subtable" oslash.sc
EndChar

StartChar: thorn
Encoding: 254 254 192
Width: 373
GlyphClass: 2
Flags: W
AnchorPoint: "Anchor-2" 216 760 basechar 0
AnchorPoint: "Anchor-0" 216 -234 basechar 0
LayerCount: 2
Fore
SplineSet
324.400390625 270 m 0,0,1
 324.400390625 126 324.400390625 126 287.5 58 c 128,-1,2
 250.599609375 -10 250.599609375 -10 194.599609375 -10 c 0,3,4
 165 -10 165 -10 144.599609375 6 c 128,-1,5
 124.200195312 22 124.200195312 22 112.200195312 47.5 c 128,-1,6
 100.200195312 73 100.200195312 73 93.7998046875 100 c 1,7,-1
 91 100 l 1,8,9
 92 89 92 89 92.5 70.5 c 128,-1,10
 93 52 93 52 93 29 c 2,11,-1
 93 -234 l 1,12,-1
 56 -234 l 1,13,-1
 56 760 l 1,14,-1
 93 760 l 1,15,-1
 93 525 l 2,16,17
 93 502 93 502 91.5 473 c 128,-1,18
 90 444 90 444 88 416 c 1,19,-1
 90 416 l 1,20,21
 98.599609375 449 98.599609375 449 111 477 c 128,-1,22
 123.400390625 505 123.400390625 505 143.799804688 522 c 128,-1,23
 164.200195312 539 164.200195312 539 195.400390625 539 c 0,24,25
 254.599609375 539 254.599609375 539 289.5 472 c 128,-1,26
 324.400390625 405 324.400390625 405 324.400390625 270 c 0,0,1
287.400390625 270 m 0,27,28
 287.400390625 384 287.400390625 384 264.200195312 444.5 c 128,-1,29
 241 505 241 505 192.200195312 505 c 0,30,31
 145 505 145 505 119 448.5 c 128,-1,32
 93 392 93 392 93 291 c 2,33,-1
 93 228 l 2,34,35
 93 128 93 128 120.200195312 76 c 128,-1,36
 147.400390625 24 147.400390625 24 191.400390625 24 c 0,37,38
 233 24 233 24 260.200195312 81.5 c 128,-1,39
 287.400390625 139 287.400390625 139 287.400390625 270 c 0,27,28
EndSplineSet
Substitution2: "'smcp' Lowercase to Small Capitals lookup 34 subtable" thorn.sc
EndChar

StartChar: dcroat
Encoding: 273 273 211
Width: 389
GlyphClass: 2
Flags: W
AnchorPoint: "Anchor-2" 220 760 basechar 0
AnchorPoint: "Anchor-0" 220 0 basechar 0
LayerCount: 2
Fore
SplineSet
164.599609375 -10 m 0,0,1
 104.599609375 -10 104.599609375 -10 70.2998046875 58.5 c 128,-1,2
 36 127 36 127 36 258 c 0,3,4
 36 394 36 394 71.900390625 466 c 128,-1,5
 107.799804688 538 107.799804688 538 166.200195312 538 c 0,6,7
 194.200195312 538 194.200195312 538 215 523 c 128,-1,8
 235.799804688 508 235.799804688 508 249 484.5 c 128,-1,9
 262.200195312 461 262.200195312 461 268.599609375 436 c 1,10,-1
 270.599609375 436 l 1,11,12
 269.599609375 455 269.599609375 455 269.099609375 471.5 c 128,-1,13
 268.599609375 488 268.599609375 488 268.599609375 505 c 2,14,-1
 268.599609375 628 l 1,15,-1
 170.200195312 628 l 1,16,-1
 170.200195312 661 l 1,17,-1
 268.599609375 661 l 1,18,-1
 268.599609375 760 l 1,19,-1
 305.599609375 760 l 1,20,-1
 305.599609375 661 l 1,21,-1
 371.599609375 661 l 1,22,-1
 371.599609375 628 l 1,23,-1
 305.599609375 628 l 1,24,-1
 305.599609375 0 l 1,25,-1
 275.599609375 0 l 1,26,-1
 270.599609375 98 l 1,27,-1
 268.599609375 98 l 1,28,29
 262.200195312 72 262.200195312 72 249.400390625 47 c 128,-1,30
 236.599609375 22 236.599609375 22 215.799804688 6 c 128,-1,31
 195 -10 195 -10 164.599609375 -10 c 0,0,1
168.599609375 24 m 0,32,33
 216.599609375 24 216.599609375 24 242.599609375 78 c 128,-1,34
 268.599609375 132 268.599609375 132 268.599609375 227 c 2,35,-1
 268.599609375 306 l 2,36,37
 268.599609375 397 268.599609375 397 243 450 c 128,-1,38
 217.400390625 503 217.400390625 503 170.200195312 503 c 256,39,40
 123 503 123 503 99 441 c 128,-1,41
 75 379 75 379 75 258 c 0,42,43
 75 146 75 146 97 85 c 128,-1,44
 119 24 119 24 168.599609375 24 c 0,32,33
EndSplineSet
Substitution2: "'smcp' Lowercase to Small Capitals lookup 34 subtable" dcroat.sc
EndChar

StartChar: eogonek
Encoding: 281 281 219
Width: 334
GlyphClass: 2
Flags: W
AnchorPoint: "Anchor-3" 368 529 basechar 0
AnchorPoint: "Anchor-2" 194 529 basechar 0
AnchorPoint: "Anchor-0" 206 -218 basechar 0
LayerCount: 2
Fore
SplineSet
189.799804688 -135 m 0,0,1
 189.799804688 -187 189.799804688 -187 231.400390625 -187 c 0,2,3
 239.400390625 -187 239.400390625 -187 247.599609375 -185.5 c 128,-1,4
 255.799804688 -184 255.799804688 -184 260.799804688 -182 c 1,5,-1
 260.799804688 -212 l 1,6,7
 253.799804688 -214 253.799804688 -214 245.799804688 -216 c 128,-1,8
 237.799804688 -218 237.799804688 -218 228.200195312 -218 c 0,9,10
 197.799804688 -218 197.799804688 -218 180.200195312 -198 c 128,-1,11
 162.599609375 -178 162.599609375 -178 162.599609375 -138 c 0,12,13
 162.599609375 -103 162.599609375 -103 179.400390625 -68 c 128,-1,14
 196.200195312 -33 196.200195312 -33 224.200195312 -3 c 1,15,16
 203.400390625 -10 203.400390625 -10 181.799804688 -10 c 0,17,18
 109.799804688 -10 109.799804688 -10 73.2998046875 64.5 c 128,-1,19
 36.7998046875 139 36.7998046875 139 36.7998046875 264 c 0,20,21
 36.7998046875 391 36.7998046875 391 70.900390625 465 c 128,-1,22
 105 539 105 539 166.599609375 539 c 0,23,24
 209 539 209 539 234.900390625 505.5 c 128,-1,25
 260.799804688 472 260.799804688 472 274.799804688 418 c 128,-1,26
 288.799804688 364 288.799804688 364 288.799804688 303 c 2,27,-1
 288.799804688 269 l 1,28,-1
 73.7998046875 269 l 1,29,30
 73.7998046875 149 73.7998046875 149 101 86.5 c 128,-1,31
 128.200195312 24 128.200195312 24 183.400390625 24 c 0,32,33
 225.799804688 24 225.799804688 24 271.799804688 61 c 1,34,-1
 271.799804688 22 l 1,35,36
 248.200195312 -1 248.200195312 -1 230.200195312 -28.5 c 128,-1,37
 212.200195312 -56 212.200195312 -56 201 -84 c 128,-1,38
 189.799804688 -112 189.799804688 -112 189.799804688 -135 c 0,0,1
166.599609375 506 m 0,39,40
 126.599609375 506 126.599609375 506 102.200195312 455 c 128,-1,41
 77.7998046875 404 77.7998046875 404 74.599609375 301 c 1,42,-1
 253.799804688 301 l 1,43,44
 253.799804688 356 253.799804688 356 245 403 c 128,-1,45
 236.200195312 450 236.200195312 450 217 478 c 128,-1,46
 197.799804688 506 197.799804688 506 166.599609375 506 c 0,39,40
EndSplineSet
Substitution2: "'smcp' Lowercase to Small Capitals lookup 34 subtable" eogonek.sc
Substitution2: "'locl' Localized Forms in Latin lookup 9 subtable" eogonek.loclNAV
Ligature2: "'ccmp' Glyph Composition/Decomposition lookup 6 subtable" e uni0328
EndChar

StartChar: Hbar
Encoding: 294 294 232
Width: 445
GlyphClass: 2
Flags: W
AnchorPoint: "Anchor-2" 249 714 basechar 0
AnchorPoint: "Anchor-0" 249 0 basechar 0
LayerCount: 2
Fore
SplineSet
77 0 m 1,0,-1
 77 543 l 1,1,-1
 0 543 l 1,2,-1
 0 576 l 1,3,-1
 77 576 l 1,4,-1
 77 714 l 1,5,-1
 115 714 l 1,6,-1
 115 576 l 1,7,-1
 327.8 576 l 1,8,-1
 327.8 714 l 1,9,-1
 365.8 714 l 1,10,-1
 365.8 576 l 1,11,-1
 445.8 576 l 1,12,-1
 445.8 543 l 1,13,-1
 365.8 543 l 1,14,-1
 365.8 0 l 1,15,-1
 327.8 0 l 1,16,-1
 327.8 357 l 1,17,-1
 115 357 l 1,18,-1
 115 0 l 1,19,-1
 77 0 l 1,0,-1
115 393 m 1,20,-1
 327.8 393 l 1,21,-1
 327.8 543 l 1,22,-1
 115 543 l 1,23,-1
 115 393 l 1,20,-1
EndSplineSet
Substitution2: "'c2sc' Capitals to Small Capitals lookup 33 subtable" hbar.sc
EndChar

StartChar: hbar
Encoding: 295 295 233
Width: 369
GlyphClass: 2
Flags: W
AnchorPoint: "Anchor-2" 187 760 basechar 0
AnchorPoint: "Anchor-0" 212 0 basechar 0
LayerCount: 2
Fore
SplineSet
110.599609375 760 m 1,0,-1
 110.599609375 660 l 1,1,-1
 210.599609375 660 l 1,2,-1
 210.599609375 628 l 1,3,-1
 110.599609375 628 l 1,4,-1
 110.599609375 500 l 2,5,6
 110.599609375 478 110.599609375 478 110.099609375 463 c 128,-1,7
 109.599609375 448 109.599609375 448 108.599609375 431 c 1,8,-1
 110.599609375 431 l 1,9,10
 117.799804688 456 117.799804688 456 130.200195312 481 c 128,-1,11
 142.599609375 506 142.599609375 506 162.200195312 522 c 128,-1,12
 181.799804688 538 181.799804688 538 210.599609375 538 c 0,13,14
 312.400390625 538 312.400390625 538 312.400390625 364 c 2,15,-1
 312.400390625 0 l 1,16,-1
 275.400390625 0 l 1,17,-1
 275.400390625 356 l 2,18,19
 275.400390625 436 275.400390625 436 256.599609375 469.5 c 128,-1,20
 237.799804688 503 237.799804688 503 206.599609375 503 c 0,21,22
 167.400390625 503 167.400390625 503 139 453 c 128,-1,23
 110.599609375 403 110.599609375 403 110.599609375 293 c 2,24,-1
 110.599609375 0 l 1,25,-1
 73.599609375 0 l 1,26,-1
 73.599609375 628 l 1,27,-1
 9.599609375 628 l 1,28,-1
 9.599609375 660 l 1,29,-1
 73.599609375 660 l 1,30,-1
 73.599609375 760 l 1,31,-1
 110.599609375 760 l 1,0,-1
EndSplineSet
Substitution2: "'smcp' Lowercase to Small Capitals lookup 34 subtable" hbar.sc
EndChar

StartChar: kgreenlandic
Encoding: 312 312 249
Width: 300
GlyphClass: 2
Flags: W
AnchorPoint: "Anchor-2" 170 529 basechar 0
AnchorPoint: "Anchor-0" 170 0 basechar 0
LayerCount: 2
Fore
SplineSet
270.599609375 529 m 1,0,-1
 165.799804688 328 l 1,1,-1
 281.599609375 0 l 1,2,-1
 242.599609375 0 l 1,3,-1
 145.799804688 296 l 1,4,-1
 93 198 l 1,5,-1
 93 0 l 1,6,-1
 56 0 l 1,7,-1
 56 529 l 1,8,-1
 93 529 l 1,9,-1
 93 360 l 2,10,11
 93 302 93 302 90 243 c 1,12,-1
 92 243 l 1,13,14
 98.599609375 257 98.599609375 257 104.599609375 270.5 c 128,-1,15
 110.599609375 284 110.599609375 284 117.799804688 298 c 2,16,-1
 232.200195312 529 l 1,17,-1
 270.599609375 529 l 1,0,-1
EndSplineSet
EndChar

StartChar: Lslash
Encoding: 321 321 258
Width: 327
GlyphClass: 2
Flags: W
AnchorPoint: "Anchor-2" 160 714 basechar 0
AnchorPoint: "Anchor-0" 196 0 basechar 0
LayerCount: 2
Fore
SplineSet
79 0 m 1,0,-1
 79 261 l 1,1,-1
 17 222 l 1,2,-1
 0 249 l 1,3,-1
 79 299 l 1,4,-1
 79 714 l 1,5,-1
 117 714 l 1,6,-1
 117 323 l 1,7,-1
 232.4 407 l 1,8,-1
 250.4 380 l 1,9,-1
 117 285 l 1,10,-1
 117 35 l 1,11,-1
 311.4 35 l 1,12,-1
 311.4 0 l 1,13,-1
 79 0 l 1,0,-1
EndSplineSet
Substitution2: "'c2sc' Capitals to Small Capitals lookup 33 subtable" lslash.sc
EndChar

StartChar: lslash
Encoding: 322 322 259
Width: 193
GlyphClass: 2
Flags: W
AnchorPoint: "Anchor-2" 95 760 basechar 0
AnchorPoint: "Anchor-0" 95 0 basechar 0
LayerCount: 2
Fore
SplineSet
78.599609375 0 m 1,0,-1
 78.599609375 356 l 1,1,-1
 2.599609375 305 l 1,2,-1
 -14.400390625 332 l 1,3,-1
 78.599609375 395 l 1,4,-1
 78.599609375 760 l 1,5,-1
 115.599609375 760 l 1,6,-1
 115.599609375 421 l 1,7,-1
 194.599609375 475 l 1,8,-1
 212.599609375 448 l 1,9,-1
 115.599609375 382 l 1,10,-1
 115.599609375 0 l 1,11,-1
 78.599609375 0 l 1,0,-1
EndSplineSet
Substitution2: "'smcp' Lowercase to Small Capitals lookup 34 subtable" lslash.sc
EndChar

StartChar: Eng
Encoding: 330 330 267
Width: 445
GlyphClass: 2
Flags: W
AnchorPoint: "Anchor-2" 260 714 basechar 0
AnchorPoint: "Anchor-0" 260 -179 basechar 0
LayerCount: 2
Fore
SplineSet
277.799804688 -179 m 0,0,1
 249.799804688 -179 249.799804688 -179 230.599609375 -167 c 1,2,-1
 230.599609375 -131 l 1,3,4
 249.799804688 -143 249.799804688 -143 276.200195312 -143 c 0,5,6
 305 -143 305 -143 319.099609375 -110.5 c 128,-1,7
 333.200195312 -78 333.200195312 -78 333.200195312 8 c 1,8,-1
 97.599609375 650 l 1,9,-1
 95.599609375 650 l 1,10,11
 96.599609375 626 96.599609375 626 97.599609375 599 c 128,-1,12
 98.599609375 572 98.599609375 572 98.599609375 532 c 2,13,-1
 98.599609375 0 l 1,14,-1
 61.599609375 0 l 1,15,-1
 61.599609375 714 l 1,16,-1
 104.200195312 714 l 1,17,-1
 331.400390625 93 l 1,18,-1
 334.200195312 93 l 1,19,20
 333.200195312 125 333.200195312 125 332.700195312 154.5 c 128,-1,21
 332.200195312 184 332.200195312 184 332.200195312 208 c 2,22,-1
 332.200195312 714 l 1,23,-1
 369.200195312 714 l 1,24,-1
 369.200195312 -5 l 2,25,26
 369.200195312 -95 369.200195312 -95 344.299804688 -137 c 128,-1,27
 319.400390625 -179 319.400390625 -179 277.799804688 -179 c 0,0,1
EndSplineSet
Substitution2: "'c2sc' Capitals to Small Capitals lookup 33 subtable" eng.sc
AlternateSubs2: "'aalt' Access All Alternates lookup 1 subtable" Eng.alt1 Eng.alt2 Eng.alt3
EndChar

StartChar: eng
Encoding: 331 331 268
Width: 363
GlyphClass: 2
Flags: W
AnchorPoint: "Anchor-2" 209 529 basechar 0
AnchorPoint: "Anchor-0" 209 -242 basechar 0
LayerCount: 2
Fore
SplineSet
222.599609375 -242 m 0,0,1
 214.599609375 -242 214.599609375 -242 208.599609375 -240 c 128,-1,2
 202.599609375 -238 202.599609375 -238 197 -235 c 1,3,-1
 197 -200 l 1,4,5
 208.200195312 -207 208.200195312 -207 220.200195312 -207 c 0,6,7
 239.400390625 -207 239.400390625 -207 248.599609375 -180.5 c 128,-1,8
 257.799804688 -154 257.799804688 -154 257.799804688 -106 c 2,9,-1
 257.799804688 362 l 2,10,11
 257.799804688 438 257.799804688 438 239.799804688 471.5 c 128,-1,12
 221.799804688 505 221.799804688 505 189 505 c 0,13,14
 149.799804688 505 149.799804688 505 121.400390625 457 c 128,-1,15
 93 409 93 409 93 308 c 2,16,-1
 93 0 l 1,17,-1
 56 0 l 1,18,-1
 56 529 l 1,19,-1
 84 529 l 1,20,-1
 88 425 l 1,21,-1
 91 425 l 1,22,23
 97.7998046875 452 97.7998046875 452 110.599609375 478 c 128,-1,24
 123.400390625 504 123.400390625 504 143.799804688 521.5 c 128,-1,25
 164.200195312 539 164.200195312 539 194.599609375 539 c 0,26,27
 239.400390625 539 239.400390625 539 267.099609375 497.5 c 128,-1,28
 294.799804688 456 294.799804688 456 294.799804688 370 c 2,29,-1
 294.799804688 -106 l 2,30,31
 294.799804688 -242 294.799804688 -242 222.599609375 -242 c 0,0,1
EndSplineSet
Substitution2: "'smcp' Lowercase to Small Capitals lookup 34 subtable" eng.sc
EndChar

StartChar: OE
Encoding: 338 338 275
Width: 564
GlyphClass: 2
Flags: W
AnchorPoint: "Anchor-2" 306 714 basechar 0
AnchorPoint: "Anchor-0" 306 0 basechar 0
LayerCount: 2
Fore
SplineSet
237.400390625 715 m 2,0,1
 268.200195312 715 l 2,2,3
 280.200195312 715 280.200195312 715 294.200195312 714 c 1,4,-1
 516.200195312 714 l 1,5,-1
 516.200195312 680 l 1,6,-1
 276.200195312 680 l 1,7,-1
 276.200195312 392 l 1,8,-1
 503.200195312 392 l 1,9,-1
 503.200195312 357 l 1,10,-1
 276.200195312 357 l 1,11,-1
 276.200195312 35 l 1,12,-1
 516.200195312 35 l 1,13,-1
 516.200195312 0 l 1,14,-1
 290.200195312 0 l 2,15,16
 276.200195312 0 276.200195312 0 262.200195312 -1.5 c 128,-1,17
 248.200195312 -3 248.200195312 -3 232.599609375 -3 c 0,18,19
 139 -3 139 -3 90.7001953125 89 c 128,-1,20
 42.400390625 181 42.400390625 181 42.400390625 359 c 0,21,22
 42.400390625 467 42.400390625 467 62.7001953125 547 c 128,-1,23
 83 627 83 627 123.799804688 671 c 128,-1,24
 164.599609375 715 164.599609375 715 237.400390625 715 c 2,0,1
229.400390625 680 m 2,25,26
 168.599609375 680 168.599609375 680 136.599609375 638 c 128,-1,27
 104.599609375 596 104.599609375 596 93 523 c 128,-1,28
 81.400390625 450 81.400390625 450 81.400390625 359 c 0,29,30
 81.400390625 259 81.400390625 259 96.599609375 186 c 128,-1,31
 111.799804688 113 111.799804688 113 145.400390625 73 c 128,-1,32
 179 33 179 33 232.599609375 33 c 2,33,-1
 238.200195312 33 l 1,34,-1
 238.200195312 680 l 1,35,-1
 229.400390625 680 l 2,25,26
EndSplineSet
Substitution2: "'c2sc' Capitals to Small Capitals lookup 33 subtable" oe.sc
EndChar

StartChar: oe
Encoding: 339 339 276
Width: 608
GlyphClass: 2
Flags: W
AnchorPoint: "Anchor-2" 342 529 basechar 0
AnchorPoint: "Anchor-0" 342 0 basechar 0
LayerCount: 2
Fore
SplineSet
411 539 m 0,0,1
 455 539 455 539 480.700195312 505.5 c 128,-1,2
 506.400390625 472 506.400390625 472 519.900390625 418 c 128,-1,3
 533.400390625 364 533.400390625 364 533.400390625 303 c 2,4,-1
 533.400390625 267 l 1,5,-1
 311.799804688 267 l 1,6,7
 310.799804688 24 310.799804688 24 459.799804688 24 c 0,8,9
 484.799804688 24 484.799804688 24 509.799804688 31.5 c 128,-1,10
 534.799804688 39 534.799804688 39 562.799804688 58 c 1,11,-1
 562.799804688 22 l 1,12,13
 540.799804688 7 540.799804688 7 513.799804688 -1.5 c 128,-1,14
 486.799804688 -10 486.799804688 -10 454.799804688 -10 c 0,15,16
 386.799804688 -10 386.799804688 -10 347.799804688 29.5 c 128,-1,17
 308.799804688 69 308.799804688 69 294.799804688 134 c 1,18,19
 282.799804688 72 282.799804688 72 252.400390625 31 c 128,-1,20
 222 -10 222 -10 172.400390625 -10 c 0,21,22
 108.400390625 -10 108.400390625 -10 72.2001953125 61 c 128,-1,23
 36 132 36 132 36 265 c 0,24,25
 36 404 36 404 73.7998046875 471.5 c 128,-1,26
 111.599609375 539 111.599609375 539 178 539 c 0,27,28
 226.799804688 539 226.799804688 539 254.799804688 500 c 128,-1,29
 282.799804688 461 282.799804688 461 293.799804688 398 c 1,30,31
 306.799804688 456 306.799804688 456 334.5 497.5 c 128,-1,32
 362.200195312 539 362.200195312 539 411 539 c 0,0,1
178 505 m 0,33,34
 122.799804688 505 122.799804688 505 98.400390625 443 c 128,-1,35
 74 381 74 381 74 265 c 0,36,37
 74 150 74 150 98 87 c 128,-1,38
 122 24 122 24 172.400390625 24 c 0,39,40
 227.599609375 24 227.599609375 24 251.200195312 89 c 128,-1,41
 274.799804688 154 274.799804688 154 274.799804688 266 c 0,42,43
 274.799804688 381 274.799804688 381 252.400390625 443 c 128,-1,44
 230 505 230 505 178 505 c 0,33,34
409.400390625 505 m 0,45,46
 371 505 371 505 343.799804688 457 c 128,-1,47
 316.599609375 409 316.599609375 409 311.799804688 300 c 1,48,-1
 497.400390625 300 l 1,49,50
 498.400390625 356 498.400390625 356 489.5 403 c 128,-1,51
 480.599609375 450 480.599609375 450 461 477.5 c 128,-1,52
 441.400390625 505 441.400390625 505 409.400390625 505 c 0,45,46
EndSplineSet
Substitution2: "'smcp' Lowercase to Small Capitals lookup 34 subtable" oe.sc
EndChar

StartChar: Tbar
Encoding: 358 358 295
Width: 333
GlyphClass: 2
Flags: W
AnchorPoint: "Anchor-2" 173 714 basechar 0
AnchorPoint: "Anchor-0" 173 0 basechar 0
LayerCount: 2
Fore
SplineSet
146.400390625 0 m 1,0,-1
 146.400390625 355 l 1,1,-1
 31.400390625 355 l 1,2,-1
 31.400390625 389 l 1,3,-1
 146.400390625 389 l 1,4,-1
 146.400390625 678 l 1,5,-1
 6.400390625 678 l 1,6,-1
 6.400390625 714 l 1,7,-1
 325.200195312 714 l 1,8,-1
 325.200195312 678 l 1,9,-1
 184.400390625 678 l 1,10,-1
 184.400390625 389 l 1,11,-1
 299.200195312 389 l 1,12,-1
 299.200195312 355 l 1,13,-1
 184.400390625 355 l 1,14,-1
 184.400390625 0 l 1,15,-1
 146.400390625 0 l 1,0,-1
EndSplineSet
Substitution2: "'c2sc' Capitals to Small Capitals lookup 33 subtable" tbar.sc
EndChar

StartChar: tbar
Encoding: 359 359 296
Width: 216
GlyphClass: 2
Flags: W
AnchorPoint: "Anchor-3" 199 656 basechar 0
AnchorPoint: "Anchor-2" 92 656 basechar 0
AnchorPoint: "Anchor-1" 110 265 basechar 0
AnchorPoint: "Anchor-0" 139 0 basechar 0
LayerCount: 2
Fore
SplineSet
153 24 m 0,0,1
 166 24 166 24 178.5 27 c 128,-1,2
 191 30 191 30 199 35 c 1,3,-1
 199 1 l 1,4,5
 188 -4 188 -4 175.5 -7 c 128,-1,6
 163 -10 163 -10 147 -10 c 0,7,8
 100 -10 100 -10 83 22 c 128,-1,9
 66 54 66 54 66 116 c 2,10,-1
 66 283 l 1,11,-1
 18 283 l 1,12,-1
 18 315 l 1,13,-1
 66 315 l 1,14,-1
 66 496 l 1,15,-1
 16 496 l 1,16,-1
 16 519 l 1,17,-1
 65 529 l 1,18,-1
 75 656 l 1,19,-1
 103 656 l 1,20,-1
 103 529 l 1,21,-1
 201 529 l 1,22,-1
 201 496 l 1,23,-1
 103 496 l 1,24,-1
 103 315 l 1,25,-1
 201 315 l 1,26,-1
 201 283 l 1,27,-1
 103 283 l 1,28,-1
 103 115 l 2,29,30
 103 68 103 68 113 46 c 128,-1,31
 123 24 123 24 153 24 c 0,0,1
EndSplineSet
Substitution2: "'smcp' Lowercase to Small Capitals lookup 34 subtable" tbar.sc
EndChar

StartChar: Uogonek
Encoding: 370 370 307
Width: 423
GlyphClass: 2
Flags: W
AnchorPoint: "Anchor-3" 473 714 basechar 0
AnchorPoint: "Anchor-2" 247 714 basechar 0
AnchorPoint: "Anchor-0" 247 -218 basechar 0
LayerCount: 2
Fore
SplineSet
218.799804688 -135 m 0,0,1
 218.799804688 -187 218.799804688 -187 260.400390625 -187 c 0,2,3
 268.400390625 -187 268.400390625 -187 276.400390625 -185.5 c 128,-1,4
 284.400390625 -184 284.400390625 -184 288.400390625 -182 c 1,5,-1
 288.400390625 -212 l 1,6,7
 278 -218 278 -218 257.200195312 -218 c 0,8,9
 226.799804688 -218 226.799804688 -218 209.200195312 -198 c 128,-1,10
 191.599609375 -178 191.599609375 -178 191.599609375 -138 c 0,11,12
 191.599609375 -104 191.599609375 -104 206.400390625 -69 c 128,-1,13
 221.200195312 -34 221.200195312 -34 247.599609375 -4 c 1,14,15
 228.400390625 -10 228.400390625 -10 205.200195312 -10 c 0,16,17
 137.200195312 -10 137.200195312 -10 97 45 c 128,-1,18
 56.7998046875 100 56.7998046875 100 56.7998046875 218 c 2,19,-1
 56.7998046875 714 l 1,20,-1
 94.7998046875 714 l 1,21,-1
 94.7998046875 221 l 2,22,23
 94.7998046875 114 94.7998046875 114 124 70 c 128,-1,24
 153.200195312 26 153.200195312 26 205.200195312 26 c 0,25,26
 238 26 238 26 262.799804688 44 c 128,-1,27
 287.599609375 62 287.599609375 62 301.200195312 104.5 c 128,-1,28
 314.799804688 147 314.799804688 147 314.799804688 221 c 2,29,-1
 314.799804688 714 l 1,30,-1
 352.799804688 714 l 1,31,-1
 352.799804688 218 l 2,32,33
 352.799804688 140 352.799804688 140 333.799804688 92 c 128,-1,34
 314.799804688 44 314.799804688 44 288.400390625 20 c 1,35,36
 258 -19 258 -19 238.400390625 -58 c 128,-1,37
 218.799804688 -97 218.799804688 -97 218.799804688 -135 c 0,0,1
EndSplineSet
Substitution2: "'c2sc' Capitals to Small Capitals lookup 33 subtable" uogonek.sc
Substitution2: "'locl' Localized Forms in Latin lookup 9 subtable" Uogonek.loclNAV
Ligature2: "'ccmp' Glyph Composition/Decomposition lookup 6 subtable" U uni0328
EndChar

StartChar: longs
Encoding: 383 383 320
Width: 191
GlyphClass: 2
Flags: W
AnchorPoint: "Anchor-2" 141 765 basechar 0
AnchorPoint: "Anchor-0" 91 0 basechar 0
LayerCount: 2
Fore
SplineSet
167.799804688 731 m 0,0,1
 129.799804688 731 129.799804688 731 111.299804688 699 c 128,-1,2
 92.7998046875 667 92.7998046875 667 92.7998046875 580 c 2,3,-1
 92.7998046875 0 l 1,4,-1
 56.7998046875 0 l 1,5,-1
 56.7998046875 581 l 2,6,7
 56.7998046875 671 56.7998046875 671 80.2998046875 718 c 128,-1,8
 103.799804688 765 103.799804688 765 165.799804688 765 c 0,9,10
 193.799804688 765 193.799804688 765 216.799804688 755 c 1,11,-1
 207.799804688 724 l 1,12,13
 187.799804688 731 187.799804688 731 167.799804688 731 c 0,0,1
EndSplineSet
EndChar

StartChar: florin
Encoding: 402 402 321
Width: 384
GlyphClass: 2
Flags: W
AnchorPoint: "Anchor-2" 255 724 basechar 0
AnchorPoint: "Anchor-0" 197 -240 basechar 0
LayerCount: 2
Fore
SplineSet
273.200195312 724 m 0,0,1
 292.200195312 724 292.200195312 724 310.200195312 720.5 c 128,-1,2
 328.200195312 717 328.200195312 717 344.200195312 708 c 1,3,-1
 332.200195312 676 l 1,4,5
 310.200195312 690 310.200195312 690 276.200195312 690 c 0,6,7
 235.200195312 690 235.200195312 690 218.700195312 655.5 c 128,-1,8
 202.200195312 621 202.200195312 621 201.200195312 546 c 1,9,-1
 201.200195312 449 l 1,10,-1
 296.200195312 449 l 1,11,-1
 296.200195312 416 l 1,12,-1
 201.200195312 416 l 1,13,-1
 201.200195312 -63 l 2,14,15
 201.200195312 -118 201.200195312 -118 191.700195312 -157.5 c 128,-1,16
 182.200195312 -197 182.200195312 -197 158.200195312 -218.5 c 128,-1,17
 134.200195312 -240 134.200195312 -240 88.2001953125 -240 c 0,18,19
 60.2001953125 -240 60.2001953125 -240 31.2001953125 -232 c 1,20,-1
 31.2001953125 -195 l 1,21,22
 46.2001953125 -200 46.2001953125 -200 59.7001953125 -202.5 c 128,-1,23
 73.2001953125 -205 73.2001953125 -205 86.2001953125 -205 c 0,24,25
 129.200195312 -205 129.200195312 -205 146.700195312 -172.5 c 128,-1,26
 164.200195312 -140 164.200195312 -140 164.200195312 -75 c 2,27,-1
 164.200195312 416 l 1,28,-1
 90.2001953125 416 l 1,29,-1
 90.2001953125 440 l 1,30,-1
 164.200195312 450 l 1,31,-1
 164.200195312 551 l 2,32,33
 164.200195312 635 164.200195312 635 189.200195312 679.5 c 128,-1,34
 214.200195312 724 214.200195312 724 273.200195312 724 c 0,0,1
EndSplineSet
EndChar

StartChar: Aringacute
Encoding: 506 506 322
Width: 330
GlyphClass: 2
Flags: W
AnchorPoint: "Anchor-2" 197 952 basechar 0
AnchorPoint: "Anchor-0" 197 0 basechar 0
LayerCount: 2
Fore
SplineSet
129.6 801 m 1,0,-1
 129.6 812 l 1,1,2
 158.4 854 158.4 854 177.6 885.5 c 128,-1,3
 196.8 917 196.8 917 214.4 952 c 1,4,-1
 249.6 952 l 1,5,-1
 249.6 945 l 1,6,7
 237.6 922 237.6 922 220 895.5 c 128,-1,8
 202.4 869 202.4 869 183.2 844 c 128,-1,9
 164 819 164 819 148 801 c 1,10,-1
 129.6 801 l 1,0,-1
0 0 m 1,11,-1
 145.6 605 l 1,12,13
 123.2 611 123.2 611 107.6 632.5 c 128,-1,14
 92 654 92 654 92 688 c 0,15,16
 92 729 92 729 112.8 753 c 128,-1,17
 133.6 777 133.6 777 164 777 c 0,18,19
 195.2 777 195.2 777 216.4 752.5 c 128,-1,20
 237.6 728 237.6 728 237.6 688 c 0,21,22
 237.6 654 237.6 654 222.8 632.5 c 128,-1,23
 208 611 208 611 184.8 605 c 1,24,-1
 330.2 0 l 1,25,-1
 291.2 0 l 1,26,-1
 241.6 217 l 1,27,-1
 88 217 l 1,28,-1
 40 0 l 1,29,-1
 0 0 l 1,11,-1
165.6 626 m 0,30,31
 188 626 188 626 201.6 643 c 128,-1,32
 215.2 660 215.2 660 215.2 687 c 0,33,34
 215.2 716 215.2 716 201.2 733.5 c 128,-1,35
 187.2 751 187.2 751 164 751 c 256,36,37
 140.8 751 140.8 751 127.6 733 c 128,-1,38
 114.4 715 114.4 715 114.4 688 c 0,39,40
 114.4 662 114.4 662 127.6 644 c 128,-1,41
 140.8 626 140.8 626 165.6 626 c 0,30,31
95.2 253 m 1,42,-1
 235.2 253 l 1,43,-1
 177.6 517 l 2,44,45
 168 564 168 564 165.6 586 c 1,46,47
 164 573 164 573 161.2 559.5 c 128,-1,48
 158.4 546 158.4 546 154.4 523 c 1,49,-1
 95.2 253 l 1,42,-1
EndSplineSet
Substitution2: "'c2sc' Capitals to Small Capitals lookup 33 subtable" aringacute.sc
EndChar

StartChar: aringacute
Encoding: 507 507 323
Width: 321
GlyphClass: 2
Flags: W
AnchorPoint: "Anchor-2" 187 928 basechar 0
AnchorPoint: "Anchor-0" 187 0 basechar 0
LayerCount: 2
Fore
SplineSet
257.200195312 928 m 1,0,-1
 257.200195312 920 l 1,1,2
 241.200195312 896 241.200195312 896 221.599609375 868.5 c 128,-1,3
 202 841 202 841 183.200195312 815.5 c 128,-1,4
 164.400390625 790 164.400390625 790 149.200195312 773 c 1,5,-1
 130.799804688 773 l 1,6,-1
 130.799804688 785 l 1,7,8
 158 826 158 826 177.599609375 858 c 128,-1,9
 197.200195312 890 197.200195312 890 215.599609375 928 c 1,10,-1
 257.200195312 928 l 1,0,-1
161.200195312 750 m 0,11,12
 192.400390625 750 192.400390625 750 214.799804688 726 c 128,-1,13
 237.200195312 702 237.200195312 702 237.200195312 661 c 256,14,15
 237.200195312 620 237.200195312 620 215.599609375 596 c 128,-1,16
 194 572 194 572 162 572 c 0,17,18
 131.599609375 572 131.599609375 572 110.400390625 595.5 c 128,-1,19
 89.2001953125 619 89.2001953125 619 89.2001953125 662 c 0,20,21
 89.2001953125 703 89.2001953125 703 110 726.5 c 128,-1,22
 130.799804688 750 130.799804688 750 161.200195312 750 c 0,11,12
161.200195312 724 m 256,23,24
 138 724 138 724 124.799804688 706 c 128,-1,25
 111.599609375 688 111.599609375 688 111.599609375 662 c 256,26,27
 111.599609375 636 111.599609375 636 124.400390625 617.5 c 128,-1,28
 137.200195312 599 137.200195312 599 162 599 c 0,29,30
 185.200195312 599 185.200195312 599 198.400390625 616 c 128,-1,31
 211.599609375 633 211.599609375 633 211.599609375 661 c 256,32,33
 211.599609375 689 211.599609375 689 198 706.5 c 128,-1,34
 184.400390625 724 184.400390625 724 161.200195312 724 c 256,23,24
154.799804688 539 m 0,35,36
 207.599609375 539 207.599609375 539 234.400390625 497 c 128,-1,37
 261.200195312 455 261.200195312 455 261.200195312 359 c 2,38,-1
 261.200195312 0 l 1,39,-1
 232.200195312 0 l 1,40,-1
 229.200195312 89 l 1,41,-1
 227.200195312 89 l 1,42,43
 218 51 218 51 196.799804688 20.5 c 128,-1,44
 175.599609375 -10 175.599609375 -10 132.400390625 -10 c 0,45,46
 99.599609375 -10 99.599609375 -10 77.099609375 10.5 c 128,-1,47
 54.599609375 31 54.599609375 31 42.099609375 63.5 c 128,-1,48
 29.599609375 96 29.599609375 96 29.599609375 133 c 0,49,50
 29.599609375 212 29.599609375 212 69.7998046875 253 c 128,-1,51
 110 294 110 294 175.599609375 302 c 2,52,-1
 224.400390625 308 l 1,53,-1
 224.400390625 356 l 2,54,55
 224.400390625 440 224.400390625 440 207.599609375 473 c 128,-1,56
 190.799804688 506 190.799804688 506 153.200195312 506 c 0,57,58
 137.200195312 506 137.200195312 506 118 499 c 128,-1,59
 98.7998046875 492 98.7998046875 492 76.400390625 476 c 1,60,-1
 64.599609375 506 l 1,61,62
 107.599609375 539 107.599609375 539 154.799804688 539 c 0,35,36
225.200195312 278 m 1,63,-1
 177.200195312 272 l 1,64,65
 67.599609375 257 67.599609375 257 67.599609375 134 c 0,66,67
 67.599609375 78 67.599609375 78 86.400390625 49.5 c 128,-1,68
 105.200195312 21 105.200195312 21 137.200195312 21 c 0,69,70
 183.599609375 21 183.599609375 21 204.400390625 75.5 c 128,-1,71
 225.200195312 130 225.200195312 130 225.200195312 218 c 2,72,-1
 225.200195312 278 l 1,63,-1
EndSplineSet
Substitution2: "'smcp' Lowercase to Small Capitals lookup 34 subtable" aringacute.sc
EndChar

StartChar: circumflex
Encoding: 710 710 330
Width: 291
Flags: W
LayerCount: 2
Fore
SplineSet
161 764 m 1,0,1
 174 740 174 740 192 709.5 c 128,-1,2
 210 679 210 679 226.5 652.5 c 128,-1,3
 243 626 243 626 251 614 c 1,4,-1
 251 606 l 1,5,-1
 230 606 l 1,6,7
 209 630 209 630 185.5 663.5 c 128,-1,8
 162 697 162 697 141 726 c 1,9,10
 122 699 122 699 98 664 c 128,-1,11
 74 629 74 629 54 606 c 1,12,-1
 32 606 l 1,13,-1
 32 614 l 1,14,15
 44 631 44 631 60.5 658 c 128,-1,16
 77 685 77 685 93.5 713.5 c 128,-1,17
 110 742 110 742 122 764 c 1,18,-1
 161 764 l 1,0,1
EndSplineSet
EndChar

StartChar: caron
Encoding: 711 711 331
Width: 285
Flags: W
LayerCount: 2
Fore
SplineSet
121 606 m 1,0,1
 108 630 108 630 92 658.5 c 128,-1,2
 76 687 76 687 60 713 c 128,-1,3
 44 739 44 739 32 756 c 1,4,-1
 32 764 l 1,5,-1
 54 764 l 1,6,7
 74 741 74 741 96.5 708.5 c 128,-1,8
 119 676 119 676 138 644 c 1,9,10
 159 676 159 676 178.5 703.5 c 128,-1,11
 198 731 198 731 224 764 c 1,12,-1
 245 764 l 1,13,-1
 245 756 l 1,14,15
 223 724 223 724 199 682.5 c 128,-1,16
 175 641 175 641 156 606 c 1,17,-1
 121 606 l 1,0,1
EndSplineSet
EndChar

StartChar: macron
Encoding: 713 713 332
Width: 282
Flags: W
LayerCount: 2
Fore
SplineSet
242 648 m 1,0,-1
 242 616 l 1,1,-1
 32 616 l 1,2,-1
 32 648 l 1,3,-1
 242 648 l 1,0,-1
EndSplineSet
EndChar

StartChar: breve
Encoding: 728 728 333
Width: 280
Flags: W
LayerCount: 2
Fore
SplineSet
240 719 m 1,0,1
 238 669 238 669 210 639 c 128,-1,2
 182 609 182 609 135 609 c 0,3,4
 92 609 92 609 63 636.5 c 128,-1,5
 34 664 34 664 32 719 c 1,6,-1
 61 719 l 1,7,8
 63 683 63 683 82.5 662 c 128,-1,9
 102 641 102 641 136 641 c 256,10,11
 170 641 170 641 190 662.5 c 128,-1,12
 210 684 210 684 211 719 c 1,13,-1
 240 719 l 1,0,1
EndSplineSet
EndChar

StartChar: dotaccent
Encoding: 729 729 334
Width: 132
Flags: W
LayerCount: 2
Fore
SplineSet
62 727 m 256,0,1
 78 727 78 727 85 715.5 c 128,-1,2
 92 704 92 704 92 689 c 0,3,4
 92 650 92 650 62 650 c 0,5,6
 47 650 47 650 39.5 661 c 128,-1,7
 32 672 32 672 32 688 c 256,8,9
 32 704 32 704 39 715.5 c 128,-1,10
 46 727 46 727 62 727 c 256,0,1
EndSplineSet
EndChar

StartChar: ring
Encoding: 730 730 335
Width: 253
Flags: W
LayerCount: 2
Fore
SplineSet
123 615 m 0,0,1
 85 615 85 615 58.5 638.5 c 128,-1,2
 32 662 32 662 32 704 c 256,3,4
 32 746 32 746 57.5 769.5 c 128,-1,5
 83 793 83 793 122 793 c 256,6,7
 161 793 161 793 187 768.5 c 128,-1,8
 213 744 213 744 213 704 c 256,9,10
 213 664 213 664 188 639.5 c 128,-1,11
 163 615 163 615 123 615 c 0,0,1
124 643 m 0,12,13
 152 643 152 643 168.5 659.5 c 128,-1,14
 185 676 185 676 185 703 c 0,15,16
 185 732 185 732 168 749 c 128,-1,17
 151 766 151 766 122 766 c 256,18,19
 93 766 93 766 77 748.5 c 128,-1,20
 61 731 61 731 61 704 c 0,21,22
 61 678 61 678 76.5 660.5 c 128,-1,23
 92 643 92 643 124 643 c 0,12,13
EndSplineSet
EndChar

StartChar: ogonek
Encoding: 731 731 336
Width: 186
Flags: W
LayerCount: 2
Fore
SplineSet
67 -132 m 0,0,1
 67 -188 67 -188 112 -188 c 0,2,3
 122 -188 122 -188 131.5 -186 c 128,-1,4
 141 -184 141 -184 146 -182 c 1,5,-1
 146 -212 l 1,6,7
 139 -214 139 -214 129 -216 c 128,-1,8
 119 -218 119 -218 108 -218 c 0,9,10
 72 -218 72 -218 52 -197.5 c 128,-1,11
 32 -177 32 -177 32 -138 c 0,12,13
 32 -98 32 -98 54.5 -60.5 c 128,-1,14
 77 -23 77 -23 115 10 c 1,15,-1
 140 0 l 1,16,17
 102 -35 102 -35 84.5 -66.5 c 128,-1,18
 67 -98 67 -98 67 -132 c 0,0,1
EndSplineSet
EndChar

StartChar: tilde
Encoding: 732 732 337
Width: 339
Flags: W
LayerCount: 2
Fore
SplineSet
32 615 m 1,0,1
 36 662 36 662 55.5 685.5 c 128,-1,2
 75 709 75 709 104 709 c 0,3,4
 124 709 124 709 140 699.5 c 128,-1,5
 156 690 156 690 169.5 677.5 c 128,-1,6
 183 665 183 665 196.5 655.5 c 128,-1,7
 210 646 210 646 226 646 c 0,8,9
 246 646 246 646 257.5 663 c 128,-1,10
 269 680 269 680 271 710 c 1,11,-1
 299 710 l 1,12,13
 298 662 298 662 277 638.5 c 128,-1,14
 256 615 256 615 227 615 c 0,15,16
 207 615 207 615 191 624.5 c 128,-1,17
 175 634 175 634 161 646.5 c 128,-1,18
 147 659 147 659 133.5 668.5 c 128,-1,19
 120 678 120 678 105 678 c 0,20,21
 88 678 88 678 75.5 662.5 c 128,-1,22
 63 647 63 647 60 615 c 1,23,-1
 32 615 l 1,0,1
EndSplineSet
EndChar

StartChar: hungarumlaut
Encoding: 733 733 338
Width: 325
Flags: W
LayerCount: 2
Fore
SplineSet
285 766 m 1,0,-1
 285 759 l 1,1,2
 276 742 276 742 256 713.5 c 128,-1,3
 236 685 236 685 212.5 655 c 128,-1,4
 189 625 189 625 170 606 c 1,5,-1
 149 606 l 1,6,-1
 149 615 l 1,7,8
 166 636 166 636 184.5 665 c 128,-1,9
 203 694 203 694 219.5 721.5 c 128,-1,10
 236 749 236 749 245 766 c 1,11,-1
 285 766 l 1,0,-1
168 766 m 1,12,-1
 168 759 l 1,13,14
 159 742 159 742 139.5 713.5 c 128,-1,15
 120 685 120 685 96.5 655.5 c 128,-1,16
 73 626 73 626 53 606 c 1,17,-1
 32 606 l 1,18,-1
 32 615 l 1,19,20
 50 638 50 638 68.5 666.5 c 128,-1,21
 87 695 87 695 102.5 721.5 c 128,-1,22
 118 748 118 748 128 766 c 1,23,-1
 168 766 l 1,12,-1
EndSplineSet
EndChar

StartChar: tonos
Encoding: 900 900 339
Width: 507
Flags: W
AnchorPoint: "Anchor-10" 293 529 mark 0
AnchorPoint: "Anchor-6" 293 529 mark 0
AnchorPoint: "Anchor-2" 293 529 mark 0
LayerCount: 2
Fore
SplineSet
202.400390625 606 m 1,0,-1
 202.400390625 616 l 1,1,2
 209.400390625 633 209.400390625 633 220.400390625 665.5 c 128,-1,3
 231.400390625 698 231.400390625 698 240.400390625 732 c 128,-1,4
 249.400390625 766 249.400390625 766 253.400390625 786 c 1,5,-1
 292.400390625 786 l 1,6,-1
 292.400390625 775 l 1,7,8
 281.400390625 735 281.400390625 735 261.900390625 688 c 128,-1,9
 242.400390625 641 242.400390625 641 226.400390625 606 c 1,10,-1
 202.400390625 606 l 1,0,-1
EndSplineSet
EndChar

StartChar: dieresistonos
Encoding: 901 901 340
Width: 490
Flags: W
AnchorPoint: "Anchor-10" 261 529 mark 0
AnchorPoint: "Anchor-6" 261 529 mark 0
AnchorPoint: "Anchor-2" 261 529 mark 0
LayerCount: 2
Fore
SplineSet
272.400390625 774 m 1,0,-1
 272.400390625 764 l 1,1,2
 269.400390625 746 269.400390625 746 263.400390625 720 c 128,-1,3
 257.400390625 694 257.400390625 694 250.400390625 668 c 128,-1,4
 243.400390625 642 243.400390625 642 236.400390625 623 c 1,5,-1
 213.400390625 623 l 1,6,-1
 213.400390625 634 l 1,7,8
 217.400390625 651 217.400390625 651 221.900390625 677 c 128,-1,9
 226.400390625 703 226.400390625 703 229.900390625 729.5 c 128,-1,10
 233.400390625 756 233.400390625 756 234.400390625 774 c 1,11,-1
 272.400390625 774 l 1,0,-1
151.400390625 669 m 0,12,13
 163.400390625 669 163.400390625 669 170.900390625 658.5 c 128,-1,14
 178.400390625 648 178.400390625 648 178.400390625 632 c 256,15,16
 178.400390625 616 178.400390625 616 170.900390625 606 c 128,-1,17
 163.400390625 596 163.400390625 596 151.400390625 596 c 0,18,19
 137.400390625 596 137.400390625 596 129.900390625 606 c 128,-1,20
 122.400390625 616 122.400390625 616 122.400390625 632 c 0,21,22
 122.400390625 647 122.400390625 647 129.900390625 658 c 128,-1,23
 137.400390625 669 137.400390625 669 151.400390625 669 c 0,12,13
308.400390625 669 m 256,24,25
 320.400390625 669 320.400390625 669 328.900390625 659 c 128,-1,26
 337.400390625 649 337.400390625 649 337.400390625 632 c 0,27,28
 337.400390625 616 337.400390625 616 329.400390625 606 c 128,-1,29
 321.400390625 596 321.400390625 596 308.400390625 596 c 0,30,31
 296.400390625 596 296.400390625 596 288.400390625 606.5 c 128,-1,32
 280.400390625 617 280.400390625 617 280.400390625 633 c 0,33,34
 280.400390625 648 280.400390625 648 288.400390625 658.5 c 128,-1,35
 296.400390625 669 296.400390625 669 308.400390625 669 c 256,24,25
EndSplineSet
EndChar

StartChar: Gamma
Encoding: 915 915 352
Width: 336
GlyphClass: 2
Flags: W
AnchorPoint: "Anchor-2" 202 714 basechar 0
AnchorPoint: "Anchor-0" 169 0 basechar 0
LayerCount: 2
Fore
SplineSet
313.599609375 714 m 1,0,-1
 313.599609375 679 l 1,1,-1
 99.599609375 679 l 1,2,-1
 99.599609375 0 l 1,3,-1
 61.599609375 0 l 1,4,-1
 61.599609375 714 l 1,5,-1
 313.599609375 714 l 1,0,-1
EndSplineSet
EndChar

StartChar: uni0394
Encoding: 916 916 353
Width: 350
GlyphClass: 2
Flags: W
AnchorPoint: "Anchor-2" 188 714 basechar 0
AnchorPoint: "Anchor-0" 188 0 basechar 0
LayerCount: 2
Fore
SplineSet
192.799804688 714 m 1,0,-1
 339.200195312 31 l 1,1,-1
 339.200195312 0 l 1,2,-1
 8.7998046875 0 l 1,3,-1
 8.7998046875 33 l 1,4,-1
 156 714 l 1,5,-1
 192.799804688 714 l 1,0,-1
300.200195312 35 m 1,6,-1
 203.200195312 499 l 2,7,8
 198.400390625 528 198.400390625 528 192.799804688 561 c 128,-1,9
 187.200195312 594 187.200195312 594 182.400390625 625 c 128,-1,10
 177.599609375 656 177.599609375 656 174.400390625 678 c 1,11,12
 168.799804688 638 168.799804688 638 160.400390625 587.5 c 128,-1,13
 152 537 152 537 144.799804688 497 c 2,14,-1
 47.7998046875 35 l 1,15,-1
 300.200195312 35 l 1,6,-1
EndSplineSet
EndChar

StartChar: Theta
Encoding: 920 920 357
Width: 441
GlyphClass: 2
Flags: W
AnchorPoint: "Anchor-3" 499 714 basechar 0
AnchorPoint: "Anchor-2" 260 714 basechar 0
AnchorPoint: "Anchor-1" 260 357 basechar 0
AnchorPoint: "Anchor-0" 260 0 basechar 0
LayerCount: 2
Fore
SplineSet
388.400390625 358 m 0,0,1
 388.400390625 284 388.400390625 284 378.400390625 218 c 128,-1,2
 368.400390625 152 368.400390625 152 348.099609375 100.5 c 128,-1,3
 327.799804688 49 327.799804688 49 296.200195312 19.5 c 128,-1,4
 264.599609375 -10 264.599609375 -10 216.599609375 -10 c 256,5,6
 168.599609375 -10 168.599609375 -10 136.200195312 20.5 c 128,-1,7
 103.799804688 51 103.799804688 51 83.099609375 103.5 c 128,-1,8
 62.400390625 156 62.400390625 156 52.400390625 222 c 128,-1,9
 42.400390625 288 42.400390625 288 42.400390625 358 c 0,10,11
 42.400390625 541 42.400390625 541 89.099609375 632.5 c 128,-1,12
 135.799804688 724 135.799804688 724 216.599609375 724 c 0,13,14
 276.599609375 724 276.599609375 724 312.599609375 676.5 c 128,-1,15
 348.599609375 629 348.599609375 629 368.5 546.5 c 128,-1,16
 388.400390625 464 388.400390625 464 388.400390625 358 c 0,0,1
81.400390625 358 m 0,17,18
 81.400390625 199 81.400390625 199 116.200195312 112.5 c 128,-1,19
 151 26 151 26 216.599609375 26 c 0,20,21
 283 26 283 26 316.200195312 110.5 c 128,-1,22
 349.400390625 195 349.400390625 195 349.400390625 358 c 0,23,24
 349.400390625 518 349.400390625 518 316.200195312 603.5 c 128,-1,25
 283 689 283 689 216.599609375 689 c 0,26,27
 147.799804688 689 147.799804688 689 114.599609375 602.5 c 128,-1,28
 81.400390625 516 81.400390625 516 81.400390625 358 c 0,17,18
299 378 m 1,29,-1
 299 344 l 1,30,-1
 131.799804688 344 l 1,31,-1
 131.799804688 378 l 1,32,-1
 299 378 l 1,29,-1
EndSplineSet
EndChar

StartChar: Lambda
Encoding: 923 923 360
Width: 310
GlyphClass: 2
Flags: W
AnchorPoint: "Anchor-2" 184 714 basechar 0
AnchorPoint: "Anchor-0" 184 0 basechar 0
LayerCount: 2
Fore
SplineSet
173.4 714 m 1,0,-1
 310 0 l 1,1,-1
 271 0 l 1,2,-1
 182.2 501 l 2,3,4
 175 544 175 544 166.6 594 c 128,-1,5
 158.2 644 158.2 644 155 675 c 1,6,7
 150.2 636 150.2 636 141.8 587.5 c 128,-1,8
 133.4 539 133.4 539 127 500 c 2,9,-1
 39 0 l 1,10,-1
 0 0 l 1,11,-1
 136.6 714 l 1,12,-1
 173.4 714 l 1,0,-1
EndSplineSet
EndChar

StartChar: Xi
Encoding: 926 926 363
Width: 370
GlyphClass: 2
Flags: W
AnchorPoint: "Anchor-2" 190 714 basechar 0
AnchorPoint: "Anchor-0" 190 0 basechar 0
LayerCount: 2
Fore
SplineSet
47.599609375 679 m 1,0,-1
 47.599609375 714 l 1,1,-1
 313.599609375 714 l 1,2,-1
 313.599609375 679 l 1,3,-1
 47.599609375 679 l 1,0,-1
66.599609375 358 m 1,4,-1
 66.599609375 393 l 1,5,-1
 294.599609375 393 l 1,6,-1
 294.599609375 358 l 1,7,-1
 66.599609375 358 l 1,4,-1
37.599609375 0 m 1,8,-1
 37.599609375 35 l 1,9,-1
 323.599609375 35 l 1,10,-1
 323.599609375 0 l 1,11,-1
 37.599609375 0 l 1,8,-1
EndSplineSet
EndChar

StartChar: Pi
Encoding: 928 928 365
Width: 428
GlyphClass: 2
Flags: W
AnchorPoint: "Anchor-2" 249 714 basechar 0
AnchorPoint: "Anchor-0" 249 0 basechar 0
LayerCount: 2
Fore
SplineSet
61.599609375 0 m 1,0,-1
 61.599609375 714 l 1,1,-1
 351 714 l 1,2,-1
 351 0 l 1,3,-1
 314 0 l 1,4,-1
 314 679 l 1,5,-1
 99.599609375 679 l 1,6,-1
 99.599609375 0 l 1,7,-1
 61.599609375 0 l 1,0,-1
EndSplineSet
EndChar

StartChar: Sigma
Encoding: 931 931 367
Width: 354
GlyphClass: 2
Flags: W
AnchorPoint: "Anchor-2" 187 714 basechar 0
AnchorPoint: "Anchor-0" 187 0 basechar 0
LayerCount: 2
Fore
SplineSet
24 0 m 1,0,-1
 24 32 l 1,1,-1
 192 372 l 1,2,-1
 30 686 l 1,3,-1
 30 714 l 1,4,-1
 314.599609375 714 l 1,5,-1
 314.599609375 679 l 1,6,-1
 133 679 l 1,7,8
 105 679 l 2,9,10
 90 679 90 679 74 680 c 1,11,-1
 228.599609375 372 l 1,12,-1
 63 33 l 1,13,14
 76 34 76 34 95 34.5 c 128,-1,15
 114 35 114 35 144.799804688 35 c 2,16,-1
 329.599609375 35 l 1,17,-1
 329.599609375 0 l 1,18,-1
 24 0 l 1,0,-1
EndSplineSet
EndChar

StartChar: Phi
Encoding: 934 934 370
Width: 496
GlyphClass: 2
Flags: W
AnchorPoint: "Anchor-2" 290 714 basechar 0
AnchorPoint: "Anchor-0" 290 0 basechar 0
LayerCount: 2
Fore
SplineSet
261.599609375 724 m 1,0,-1
 261.599609375 637 l 1,1,2
 312.799804688 636 312.799804688 636 352.400390625 605.5 c 128,-1,3
 392 575 392 575 418.599609375 516.5 c 128,-1,4
 445.200195312 458 445.200195312 458 445.200195312 371 c 256,5,6
 445.200195312 284 445.200195312 284 419 224 c 128,-1,7
 392.799804688 164 392.799804688 164 352.799804688 132 c 128,-1,8
 312.799804688 100 312.799804688 100 261.599609375 99 c 1,9,-1
 261.599609375 -10 l 1,10,-1
 224.599609375 -10 l 1,11,-1
 224.599609375 99 l 1,12,13
 177.400390625 99 177.400390625 99 137.400390625 131 c 128,-1,14
 97.400390625 163 97.400390625 163 69.099609375 224.5 c 128,-1,15
 40.7998046875 286 40.7998046875 286 40.7998046875 373 c 0,16,17
 40.7998046875 456 40.7998046875 456 67.900390625 514.5 c 128,-1,18
 95 573 95 573 135 604.5 c 128,-1,19
 175 636 175 636 224.599609375 637 c 1,20,-1
 224.599609375 724 l 1,21,-1
 261.599609375 724 l 1,0,-1
224.599609375 602 m 1,22,23
 184.599609375 601 184.599609375 601 151.799804688 575 c 128,-1,24
 119 549 119 549 99.400390625 498 c 128,-1,25
 79.7998046875 447 79.7998046875 447 79.7998046875 372 c 0,26,27
 79.7998046875 294 79.7998046875 294 100.599609375 241.5 c 128,-1,28
 121.400390625 189 121.400390625 189 154.200195312 162.5 c 128,-1,29
 187 136 187 136 224.599609375 135 c 1,30,-1
 224.599609375 602 l 1,22,23
261.599609375 602 m 1,31,-1
 261.599609375 135 l 1,32,33
 301.599609375 136 301.599609375 136 334.799804688 162.5 c 128,-1,34
 368 189 368 189 387.599609375 241.5 c 128,-1,35
 407.200195312 294 407.200195312 294 407.200195312 373 c 256,36,37
 407.200195312 452 407.200195312 452 388 502 c 128,-1,38
 368.799804688 552 368.799804688 552 335.599609375 576.5 c 128,-1,39
 302.400390625 601 302.400390625 601 261.599609375 602 c 1,31,-1
EndSplineSet
EndChar

StartChar: Psi
Encoding: 936 936 372
Width: 484
GlyphClass: 2
Flags: W
AnchorPoint: "Anchor-2" 281 714 basechar 0
AnchorPoint: "Anchor-0" 281 0 basechar 0
LayerCount: 2
Fore
SplineSet
416 714 m 1,0,-1
 416 484 l 2,1,2
 416 348 416 348 391.99609375 286.5 c 128,-1,3
 367.9921875 225 367.9921875 225 347.200195312 223 c 1,4,-1
 347.200195312 0 l 1,5,-1
 310.200195312 0 l 1,6,-1
 310.200195312 223 l 1,7,8
 220.599609375 224 220.599609375 224 160.400390625 249.5 c 128,-1,9
 100.200195312 275 100.200195312 275 77.7001953125 332.5 c 128,-1,10
 55.2001953125 390 55.2001953125 390 55.2001953125 487 c 2,11,-1
 55.2001953125 714 l 1,12,-1
 93.2001953125 714 l 1,13,-1
 93.2001953125 491 l 2,14,15
 93.2001953125 420 93.2001953125 420 110.700195312 368 c 128,-1,16
 128.200195312 316 128.200195312 316 174.400390625 287.5 c 128,-1,17
 220.599609375 259 220.599609375 259 310.200195312 257 c 1,18,-1
 310.200195312 714 l 1,19,-1
 347.200195312 714 l 1,20,-1
 347.200195312 257 l 1,21,22
 364.934570312 261 364.934570312 261 371.967773438 314 c 128,-1,23
 379 367 379 367 379 489 c 2,24,-1
 379 714 l 1,25,-1
 416 714 l 1,0,-1
EndSplineSet
EndChar

StartChar: uni03A9
Encoding: 937 937 373
Width: 455
GlyphClass: 2
Flags: W
AnchorPoint: "Anchor-2" 265 714 basechar 0
AnchorPoint: "Anchor-0" 265 0 basechar 0
LayerCount: 2
Fore
SplineSet
226.200195312 689 m 256,0,1
 163 689 163 689 125.400390625 610.5 c 128,-1,2
 87.7998046875 532 87.7998046875 532 87.7998046875 380 c 0,3,4
 87.7998046875 253 87.7998046875 253 118.200195312 161.5 c 128,-1,5
 148.599609375 70 148.599609375 70 190.200195312 26 c 1,6,-1
 190.200195312 0 l 1,7,-1
 24.7998046875 0 l 1,8,-1
 24.7998046875 35 l 1,9,-1
 151.799804688 35 l 1,10,11
 111.799804688 84 111.799804688 84 79.7998046875 167.5 c 128,-1,12
 47.7998046875 251 47.7998046875 251 47.7998046875 381 c 0,13,14
 47.7998046875 554 47.7998046875 554 97.400390625 639 c 128,-1,15
 147 724 147 724 225.400390625 724 c 256,16,17
 303.799804688 724 303.799804688 724 352.099609375 639 c 128,-1,18
 400.400390625 554 400.400390625 554 400.400390625 379 c 0,19,20
 400.400390625 246 400.400390625 246 370.099609375 164 c 128,-1,21
 339.799804688 82 339.799804688 82 297.400390625 35 c 1,22,-1
 424.400390625 35 l 1,23,-1
 424.400390625 0 l 1,24,-1
 256.599609375 0 l 1,25,-1
 256.599609375 26 l 1,26,27
 309.400390625 75 309.400390625 75 335.400390625 164.5 c 128,-1,28
 361.400390625 254 361.400390625 254 361.400390625 379 c 0,29,30
 361.400390625 533 361.400390625 533 325.400390625 611 c 128,-1,31
 289.400390625 689 289.400390625 689 226.200195312 689 c 256,0,1
EndSplineSet
EndChar

